<svg width="20" height="20" viewBox="0 0 20 20" fill="none" xmlns="http://www.w3.org/2000/svg">
<path d="M12.5514 12.4217C12.5028 12.4217 12.4538 12.4134 12.4062 12.3964C12.2356 12.3351 12.1218 12.1733 12.1218 11.992V8.77499L4.04929 4.11495C3.84378 3.99628 3.77335 3.73351 3.89199 3.528C4.01062 3.32249 4.27335 3.2521 4.47894 3.37069L12.7664 8.15476C12.8994 8.23151 12.9813 8.37339 12.9813 8.5269V10.796L13.8893 9.69554C13.9918 9.57124 14.1553 9.51483 14.3127 9.54925L15.121 9.7264V7.04351L7.04355 2.38288C6.838 2.26429 6.76753 2.00151 6.88613 1.79597C7.00472 1.59042 7.26749 1.51995 7.47304 1.63854L15.7654 6.42315C15.8984 6.49991 15.9803 6.64179 15.9803 6.79534V10.2605C15.9803 10.3906 15.9214 10.5137 15.82 10.5952C15.7186 10.6768 15.5857 10.708 15.4587 10.6802L14.3851 10.4449L12.883 12.2655C12.7998 12.3663 12.6773 12.4217 12.5514 12.4217Z" fill="#2490A9"/>
<path d="M18.6871 5.05605C18.6859 5.05304 18.6848 5.04995 18.6836 5.04698C18.6812 5.04167 18.6784 5.03651 18.6758 5.03124C18.6391 4.95362 18.58 4.88706 18.5031 4.84265L10.2149 0.0575684C10.082 -0.0191895 9.91812 -0.0191895 9.78519 0.0575684L1.5575 4.8078C1.46797 4.84163 1.3891 4.9053 1.33754 4.9946C1.29097 5.07519 1.2739 5.16452 1.28222 5.25058V14.7851C1.28222 14.9387 1.36414 15.0805 1.49707 15.1573L9.78523 19.9424C9.9182 20.0192 10.082 20.0192 10.2149 19.9424L18.5031 15.1573C18.636 15.0805 18.7179 14.9386 18.7179 14.7851V5.26042C18.7244 5.1923 18.7146 5.12226 18.6871 5.05605ZM10 0.92585L17.4342 5.21792L10.0003 9.50382L2.57437 5.21304L10 0.92585ZM2.14156 5.95546L9.57035 10.2479V18.8261L2.14156 14.5371V5.95546ZM10.4297 18.8261V10.2482L17.8586 5.96523V14.5371L10.4297 18.8261Z" fill="#353535"/>
<path d="M5.00024 15.1685C4.92734 15.1685 4.85348 15.1499 4.78578 15.1108L3.01008 14.0856C2.80457 13.967 2.73414 13.7042 2.85281 13.4987C2.97149 13.2932 3.2343 13.2228 3.43977 13.3414L5.21547 14.3666C5.42098 14.4853 5.49141 14.7481 5.37274 14.9536C5.29317 15.0914 5.14875 15.1685 5.00024 15.1685Z" fill="#2490A9"/>
<path d="M4.2013 12.9564C4.12841 12.9564 4.05454 12.9378 3.98685 12.8988L3.01032 12.335C2.80482 12.2163 2.73439 11.9535 2.85306 11.748C2.97173 11.5425 3.23454 11.4721 3.44001 11.5908L4.41653 12.1546C4.62204 12.2732 4.69247 12.536 4.5738 12.7415C4.49423 12.8793 4.34978 12.9564 4.2013 12.9564Z" fill="#2490A9"/>
</svg>
