<svg width="50" height="50" viewBox="0 0 50 50" fill="none" xmlns="http://www.w3.org/2000/svg">
<g clip-path="url(#clip0_0_4998)">
<path d="M13.5418 39.5834H9.37517C8.80017 39.5834 8.3335 39.1167 8.3335 38.5417C8.3335 37.9667 8.80017 37.5 9.37517 37.5H13.5418C14.1168 37.5 14.5835 37.9667 14.5835 38.5417C14.5835 39.1167 14.1168 39.5834 13.5418 39.5834Z" fill="white"/>
<path d="M47.3962 39.5833H44.792C44.217 39.5833 43.7504 39.1166 43.7504 38.5416C43.7504 37.9666 44.217 37.5 44.792 37.5H46.5316L47.9358 30.0166C47.917 26.1875 44.6462 22.9166 40.6254 22.9166H33.7858L30.4712 37.5H36.4587C37.0337 37.5 37.5004 37.9666 37.5004 38.5416C37.5004 39.1166 37.0337 39.5833 36.4587 39.5833H29.167C28.8504 39.5833 28.5504 39.4396 28.3524 39.1916C28.1545 38.9458 28.0795 38.6208 28.1504 38.3125L31.9379 21.6458C32.0462 21.1687 32.467 20.8333 32.9545 20.8333H40.6254C45.7941 20.8333 50.0003 25.0396 50.0003 30.2083L48.4191 38.7333C48.3274 39.2271 47.8983 39.5833 47.3962 39.5833Z" fill="white"/>
<path d="M40.6253 43.7501C37.7545 43.7501 35.417 41.4147 35.417 38.5417C35.417 35.6688 37.7545 33.3334 40.6253 33.3334C43.4961 33.3334 45.8336 35.6688 45.8336 38.5417C45.8336 41.4147 43.4961 43.7501 40.6253 43.7501ZM40.6253 35.4167C38.9024 35.4167 37.5003 36.8188 37.5003 38.5417C37.5003 40.2647 38.9024 41.6667 40.6253 41.6667C42.3482 41.6667 43.7503 40.2647 43.7503 38.5417C43.7503 36.8188 42.3482 35.4167 40.6253 35.4167Z" fill="white"/>
<path d="M17.7087 43.7501C14.8378 43.7501 12.5003 41.4147 12.5003 38.5417C12.5003 35.6688 14.8378 33.3334 17.7087 33.3334C20.5795 33.3334 22.917 35.6688 22.917 38.5417C22.917 41.4147 20.5795 43.7501 17.7087 43.7501ZM17.7087 35.4167C15.9858 35.4167 14.5837 36.8188 14.5837 38.5417C14.5837 40.2647 15.9858 41.6667 17.7087 41.6667C19.4316 41.6667 20.8337 40.2647 20.8337 38.5417C20.8337 36.8188 19.4316 35.4167 17.7087 35.4167Z" fill="white"/>
<path d="M13.5421 20.8333H5.20876C4.63376 20.8333 4.16709 20.3667 4.16709 19.7917C4.16709 19.2167 4.63376 18.75 5.20876 18.75H13.5421C14.1171 18.75 14.5838 19.2167 14.5838 19.7917C14.5838 20.3667 14.1171 20.8333 13.5421 20.8333Z" fill="white"/>
<path d="M13.5417 27.0833H3.12499C2.54999 27.0833 2.08333 26.6166 2.08333 26.0416C2.08333 25.4666 2.54999 24.9999 3.12499 24.9999H13.5417C14.1167 24.9999 14.5833 25.4666 14.5833 26.0416C14.5833 26.6166 14.1167 27.0833 13.5417 27.0833Z" fill="white"/>
<path d="M13.5419 33.3334H1.04191C0.466915 33.3334 0.000248644 32.8668 0.000248644 32.2918C0.000248644 31.7168 0.466915 31.2501 1.04191 31.2501H13.5419C14.1169 31.2501 14.5836 31.7168 14.5836 32.2918C14.5836 32.8668 14.1169 33.3334 13.5419 33.3334Z" fill="white"/>
<path d="M29.1668 39.5834H21.8752C21.3002 39.5834 20.8335 39.1167 20.8335 38.5417C20.8335 37.9667 21.3002 37.5 21.8752 37.5H28.3356L33.0689 16.6667H9.37517C8.80017 16.6667 8.3335 16.2001 8.3335 15.6251C8.3335 15.0501 8.80017 14.5834 9.37517 14.5834H34.3752C34.6918 14.5834 34.9918 14.7271 35.1897 14.9751C35.3877 15.2209 35.4627 15.5459 35.3918 15.8542L30.1835 38.7709C30.0752 39.248 29.6522 39.5834 29.1668 39.5834Z" fill="white"/>
</g>
<defs>
<clipPath id="clip0_0_4998">
<rect width="49.0943" height="49.0943" fill="white" transform="scale(1.01845)"/>
</clipPath>
</defs>
</svg>
