<svg width="18" height="18" viewBox="0 0 18 18" fill="none" xmlns="http://www.w3.org/2000/svg">
<path d="M8.75514 5.41648C8.09814 5.41648 7.08113 4.66948 6.01013 4.69648C4.59713 4.71448 3.30112 5.51548 2.57212 6.78448C1.10512 9.33148 2.19413 13.0935 3.62513 15.1635C4.32713 16.1715 5.15513 17.3055 6.25313 17.2695C7.30613 17.2245 7.70214 16.5855 8.98014 16.5855C10.2491 16.5855 10.6091 17.2695 11.7251 17.2425C12.8591 17.2245 13.5791 16.2165 14.2721 15.1995C15.0731 14.0295 15.4061 12.8955 15.4241 12.8325C15.3971 12.8235 13.2191 11.9865 13.1921 9.46648C13.1741 7.36048 14.9111 6.35248 14.9921 6.30748C14.0021 4.85848 12.4811 4.69648 11.9501 4.66048C10.5641 4.55248 9.40314 5.41648 8.75514 5.41648ZM11.0951 3.29248C11.6801 2.59048 12.0671 1.60948 11.9591 0.637482C11.1221 0.673482 10.1141 1.19548 9.51114 1.89748C8.97114 2.51848 8.50314 3.51748 8.62914 4.47148C9.55614 4.54348 10.5101 3.99448 11.0951 3.29248Z" fill="black"/>
</svg>
