<svg width="26" height="26" viewBox="0 0 26 26" fill="none" xmlns="http://www.w3.org/2000/svg">
<g clip-path="url(#clip0_0_7474)">
<path d="M13 0C6.09777 0 0.502411 5.59536 0.502411 12.4976L7.55615 17.146L25.4776 13.2094C25.4908 12.9738 25.4975 12.7365 25.4975 12.4976C25.4976 5.59536 19.9022 0 13 0Z" fill="#9BD069"/>
<path d="M17.2775 13.2093C15.8353 13.2093 14.6941 11.9707 14.8335 10.5353C14.8347 10.5228 14.8358 10.5105 14.8369 10.4983C14.8748 10.073 15.0938 9.68775 15.4312 9.42594C15.6535 9.25341 15.7966 8.98361 15.7966 8.68034C15.757 8.44285 15.9695 7.72035 15.3144 7.35266C14.8147 7.07218 14.7289 6.44579 14.9967 6.04351C15.0226 6.00453 15.0384 5.9648 15.0433 5.9244H15.0463C15.0463 5.90507 15.0457 5.88584 15.0448 5.86671H15.0463V3.83775C15.0463 2.61503 14.0551 1.62385 12.8324 1.62385L11.6507 1.5948C11.555 1.59246 11.4686 1.54514 11.4053 1.47336C11.3104 1.36586 11.0883 1.29041 10.8294 1.29041C10.5706 1.29041 10.3484 1.36586 10.2535 1.47336C10.1902 1.54514 10.1038 1.59246 10.0081 1.5948L8.82645 1.62385C7.60373 1.62385 6.61255 2.61503 6.61255 3.83775V5.86676H6.61403C6.61311 5.88589 6.61255 5.90512 6.61255 5.92445H6.61555C6.62522 6.00519 6.67813 6.08344 6.76864 6.15808V6.85896V6.85906V8.89219V10.1223C6.76864 11.0902 7.10672 11.9775 7.67018 12.6742C8.0723 13.1715 8.04229 13.8903 7.60948 14.361C7.60058 14.3706 7.59167 14.3803 7.58277 14.39C6.95221 15.0752 5.83017 14.8924 5.44295 14.0456C5.0979 13.291 4.83085 12.505 4.64352 11.7009C4.09604 9.35049 0.565253 9.54707 0.506084 12.2164V12.2169C0.43796 15.2985 1.51044 18.1397 3.31971 20.3565C5.54943 23.0884 8.89747 24.1518 12.6094 24.2683C12.5914 24.2678 12.6274 24.2688 12.6094 24.2683C19.4001 24.4517 25.1005 19.9056 25.4769 13.2093H17.2775Z" fill="#69B76B"/>
<path d="M20.0531 25.4259H18.905C18.6332 25.4259 18.4129 25.2056 18.4129 24.9338C18.4129 24.662 18.6332 24.4417 18.905 24.4417H20.0531C20.3249 24.4417 20.5452 24.662 20.5452 24.9338C20.5452 25.2056 20.3249 25.4259 20.0531 25.4259Z" fill="#FFBE82"/>
<path d="M16.81 22.5092C16.7329 22.0346 17.2908 19.1204 14.8386 16.6513V16.6536C14.4638 16.2761 14.0648 15.9548 13.5975 15.6643C13.5975 15.6639 13.5975 15.6636 13.5975 15.6632C13.5923 15.66 13.4776 15.5905 13.4723 15.5873V15.5883C12.4611 14.9901 11.2819 14.6457 10.0219 14.6457C9.89937 14.6457 9.77757 14.6489 9.65663 14.6555C8.70387 14.7064 7.81042 15.1345 7.16719 15.8392C7.15941 15.8478 7.15162 15.8563 7.14379 15.8648C6.5292 16.5377 6.18848 17.4162 6.18848 18.3275V22.9441C7.91971 24.0827 9.92521 24.7957 12.062 24.959C12.4731 24.9903 16.223 23.0023 16.81 22.5092Z" fill="#2490A9"/>
<path d="M10.0219 14.6456C8.77845 14.6456 7.61368 14.9809 6.61136 15.5645V15.5637C6.60587 15.5669 6.51617 15.6199 6.51001 15.6236V15.6249C4.84111 16.6362 3.64083 18.3477 3.32025 20.356C4.60173 21.9261 6.25222 23.1833 8.12942 23.9905C6.52487 22.5674 6.03554 20.151 7.16856 18.1936C7.66039 17.3439 8.38095 16.5519 9.43344 15.9877V15.9864C9.43964 15.9826 9.52934 15.9297 9.53478 15.9264V15.9273C10.3618 15.4456 11.2998 15.1337 12.301 15.0393C11.5887 14.7849 10.8218 14.6456 10.0219 14.6456Z" fill="#096B82"/>
<path d="M10.0219 13.4481C8.32728 13.4481 6.95346 14.8219 6.95346 16.5166C6.95346 17.6446 7.5625 18.6298 8.46928 19.1629L10.0398 17.5924L11.5973 19.1499C12.4916 18.6137 13.0904 17.6352 13.0904 16.5166C13.0904 14.8219 11.7166 13.4481 10.0219 13.4481Z" fill="#096B82"/>
<path d="M10.0219 12.9561C8.32728 12.9561 6.95346 14.3299 6.95346 16.0246C6.95346 17.1526 7.5625 18.1377 8.46928 18.6709L10.0398 17.1004L11.5973 18.6579C12.4916 18.1217 13.0904 17.1432 13.0904 16.0246C13.0904 14.3299 11.7166 12.9561 10.0219 12.9561Z" fill="white"/>
<path d="M10.0811 17.0392H10.0026C9.24175 17.0392 8.62497 16.4225 8.62497 15.6617V12.4489H11.4587V15.6617C11.4587 16.4225 10.842 17.0392 10.0811 17.0392Z" fill="#FF965A"/>
<path d="M13.8855 7.4776C13.8855 6.18457 13.056 5.0022 11.763 5.0022H8.32071C7.84486 5.0022 7.42065 5.16271 7.07413 5.42956V12.3241C7.07413 13.33 7.70006 14.2316 8.64454 14.5777C9.08019 14.7374 9.5508 14.8245 10.0418 14.8245C12.2634 14.8245 14.0643 13.0236 14.0643 10.802V9.5321L13.8855 7.4776Z" fill="#FFBE82"/>
<path d="M6.52925 5.97089C6.18639 6.3781 5.97952 6.90356 5.97952 7.47755V10.7621C5.97952 12.5053 7.07612 13.9873 8.61091 14.5653C8.89745 14.6732 9.11012 14.2902 8.87033 14.0999C7.93334 13.3557 7.33254 12.2067 7.33254 10.9172V9.13185C7.33254 8.36713 7.98442 7.76917 8.74706 7.8258C9.15443 7.85607 9.58892 7.8724 10.0403 7.8724C11.6295 7.8724 13.0119 7.67027 13.7304 7.37193V5.97089H6.52925Z" fill="#FF965A"/>
<path d="M14.0905 10.2634H14.0644V7.8725H14.0905C14.597 7.8725 15.0075 8.28307 15.0075 8.7895V9.34644C15.0075 9.85287 14.597 10.2634 14.0905 10.2634Z" fill="#FF965A"/>
<path d="M5.95338 10.2634H5.97953V7.8725H5.95338C5.44695 7.8725 5.03638 8.28307 5.03638 8.7895V9.34644C5.03638 9.85287 5.4469 10.2634 5.95338 10.2634Z" fill="#FF965A"/>
<path d="M8.63886 9.91757C8.45382 9.91757 8.30383 9.76754 8.30383 9.58255V8.66626C8.30383 8.48122 8.45387 8.33124 8.63886 8.33124C8.82389 8.33124 8.97388 8.48127 8.97388 8.66626V9.58255C8.97393 9.76754 8.82389 9.91757 8.63886 9.91757Z" fill="#FF965A"/>
<path d="M11.3749 9.91757C11.1899 9.91757 11.0399 9.76754 11.0399 9.58255V8.66626C11.0399 8.48122 11.19 8.33124 11.3749 8.33124C11.56 8.33124 11.71 8.48127 11.71 8.66626V9.58255C11.71 9.76754 11.56 9.91757 11.3749 9.91757Z" fill="#FF965A"/>
<path d="M8.63886 9.6492C8.45382 9.6492 8.30383 9.49916 8.30383 9.31418V8.39789C8.30383 8.21285 8.45387 8.06287 8.63886 8.06287C8.82389 8.06287 8.97388 8.2129 8.97388 8.39789V9.31418C8.97393 9.49916 8.82389 9.6492 8.63886 9.6492Z" fill="#373C41"/>
<path d="M11.3749 9.6492C11.1899 9.6492 11.0399 9.49916 11.0399 9.31418V8.39789C11.0399 8.21285 11.19 8.06287 11.3749 8.06287C11.56 8.06287 11.71 8.2129 11.71 8.39789V9.31418C11.71 9.49916 11.56 9.6492 11.3749 9.6492Z" fill="#373C41"/>
<path d="M9.08025 7.89533H8.10321C7.91817 7.89533 7.76819 7.74534 7.76819 7.5603C7.76819 7.37526 7.91817 7.22528 8.10321 7.22528H9.08025C9.26528 7.22528 9.41527 7.37526 9.41527 7.5603C9.41527 7.74534 9.26528 7.89533 9.08025 7.89533Z" fill="#783C28"/>
<path d="M11.8721 7.89533H10.8951C10.7101 7.89533 10.5601 7.74534 10.5601 7.5603C10.5601 7.37526 10.7101 7.22528 10.8951 7.22528H11.8721C12.0572 7.22528 12.2072 7.37526 12.2072 7.5603C12.2072 7.74534 12.0572 7.89533 11.8721 7.89533Z" fill="#783C28"/>
<path d="M11.2755 11.5027H8.80828C8.70592 11.5027 8.62411 11.592 8.63779 11.6935C8.66394 11.8876 8.72937 12.0692 8.82583 12.2302L10.6655 12.7754C11.0809 12.5714 11.3819 12.17 11.4461 11.6935C11.4597 11.592 11.3779 11.5027 11.2755 11.5027Z" fill="#CD2846"/>
<path d="M9.49903 10.1248C9.41575 10.4573 9.5671 10.8196 9.85654 10.9288C9.91479 10.9508 9.97712 10.9627 10.0418 10.9627C10.1066 10.9627 10.1689 10.9508 10.2272 10.9288C10.5166 10.8196 10.668 10.4573 10.5847 10.1248L10.3086 9.02221C10.2391 8.74463 9.84458 8.74463 9.77509 9.02221L9.49903 10.1248Z" fill="#FF965A"/>
<path d="M12.1048 5.55556C12.2286 5.33058 12.5102 5.24475 12.7424 5.35439C12.7459 5.35602 12.7493 5.35765 12.7527 5.35933C13.0046 5.47985 13.206 5.67329 13.3402 5.9065H13.6224C13.8665 5.9065 14.0643 5.70864 14.0643 5.46454V4.57939C14.0643 3.5789 13.2533 2.76782 12.2528 2.76782H7.79099C7.49031 2.76823 7.24432 3.01462 7.24432 3.31531V5.39733C7.27449 5.38105 7.30497 5.36502 7.33717 5.35083C7.73035 5.17724 8.13894 5.56141 8.00839 5.97086C8.00773 5.9729 8.00707 5.97498 8.00646 5.97702C7.91559 6.26544 8.13166 6.559 8.43407 6.559H10.4084C11.8662 6.559 12.0225 5.70513 12.1048 5.55556Z" fill="#783C28"/>
<path d="M7.32123 4.57939C7.32123 3.5789 8.13231 2.76782 9.1328 2.76782H7.79103C6.79054 2.76782 5.97946 3.5789 5.97946 4.57939V7.49884V7.49894V9.53208C6.27704 9.53208 6.51825 9.29087 6.51825 8.99329V6.61425C6.51825 6.08874 6.81394 5.60445 7.28648 5.37459C7.29808 5.36894 7.30963 5.36345 7.32118 5.3581L7.32123 4.57939Z" fill="#5A2D19"/>
<path d="M13.4414 5.5648C13.3935 5.65068 13.3386 5.73198 13.2786 5.80916C13.4365 6.03744 13.5256 6.31324 13.5256 6.60121V8.99327C13.5256 9.29085 13.7668 9.53206 14.0644 9.53206V7.47756V5.34618C13.834 5.24962 13.5641 5.3446 13.4414 5.5648Z" fill="#5A2D19"/>
<path d="M9.77599 6.55902C9.47435 6.55902 9.25736 6.26638 9.34781 5.97857C9.34939 5.97348 9.35102 5.9684 9.3527 5.96331C9.48625 5.55039 9.05767 5.17467 8.66413 5.35757C8.65223 5.36312 8.64027 5.36876 8.62832 5.37461C8.34666 5.51163 8.12861 5.73935 7.99775 6.012C7.93334 6.28856 8.14423 6.55902 8.43422 6.55902H10.4084H9.77599Z" fill="#A55A3C"/>
<path d="M8.43077 9.00674H8.4239C8.35756 9.00674 8.30383 8.95297 8.30383 8.88667V8.50581C8.30383 8.43947 8.35761 8.38574 8.4239 8.38574H8.43077C8.49711 8.38574 8.55084 8.43952 8.55084 8.50581V8.88667C8.55084 8.95297 8.49711 9.00674 8.43077 9.00674Z" fill="white"/>
<path d="M11.1606 9.00674H11.1537C11.0874 9.00674 11.0337 8.95297 11.0337 8.88667V8.50581C11.0337 8.43947 11.0874 8.38574 11.1537 8.38574H11.1606C11.2269 8.38574 11.2807 8.43952 11.2807 8.50581V8.88667C11.2807 8.95297 11.2269 9.00674 11.1606 9.00674Z" fill="white"/>
<path d="M8.82593 12.23C9.07349 12.643 9.52533 12.9195 10.0419 12.9195C10.2656 12.9195 10.4772 12.8674 10.6653 12.775C10.5844 12.2677 10.145 11.8798 9.61482 11.8798C9.30188 11.8799 9.02058 12.015 8.82593 12.23Z" fill="#F5415F"/>
<path d="M10.6962 11.8799H9.34772C9.21834 11.8799 9.11343 11.775 9.11343 11.6456V11.5027H10.9305V11.6456C10.9305 11.775 10.8256 11.8799 10.6962 11.8799Z" fill="white"/>
<path d="M25.2883 23.9155V14.86C25.2883 14.3018 24.8358 13.8492 24.2776 13.8492H20.9777L18.4933 14.7441L16.0715 13.8492H13.7211V23.9155H25.2883Z" fill="#ECD833"/>
<path d="M20.6034 13.8467V15.4901C20.6288 15.7984 20.442 16.1278 20.0437 16.1278H16.3936C16.407 16.1871 16.436 16.2422 16.4785 16.2868L16.7144 16.5337C16.8476 16.6731 17.0702 16.6731 17.2034 16.5337L17.2884 16.4447C17.4215 16.3053 17.6442 16.3053 17.7774 16.4447L17.8624 16.5337C17.9956 16.6731 18.2182 16.6731 18.3514 16.5337L18.4363 16.4448C18.5695 16.3054 18.7922 16.3053 18.9254 16.4447L19.0105 16.5338C19.1437 16.6732 19.3663 16.6732 19.4995 16.5338L19.5846 16.4446C19.7178 16.3052 19.9404 16.3052 20.0736 16.4446L20.1589 16.5338C20.2921 16.6732 20.5146 16.6732 20.6478 16.5338L20.8839 16.2868C20.944 16.2239 20.9776 16.1402 20.9776 16.0531V13.8466L20.6034 13.8467Z" fill="#ECC32E"/>
<path d="M20.5876 16.2697C20.6369 16.2095 20.6643 16.1341 20.6643 16.0557V13.8492H17.1291V16.2698H20.5876V16.2697Z" fill="white"/>
<path d="M20.4332 16.0332L20.348 16.1223C20.2148 16.2617 19.9922 16.2617 19.859 16.1223L19.7739 16.0333C19.6407 15.8939 19.4181 15.8939 19.2849 16.0333L19.2 16.1221C19.0668 16.2616 18.8441 16.2616 18.711 16.1222L18.6259 16.0332C18.4927 15.8938 18.2701 15.8938 18.1369 16.0332L18.0519 16.1221C17.9188 16.2615 17.6961 16.2615 17.5629 16.1221L17.4975 16.0537C17.328 15.8763 17.2334 15.6403 17.2334 15.3949V13.8491H16.0716V16.0556C16.0716 16.1426 16.1052 16.2263 16.1653 16.2893L16.4011 16.5361C16.5343 16.6755 16.7569 16.6755 16.8901 16.5361L16.9751 16.4472C17.1083 16.3078 17.3309 16.3077 17.4641 16.4472L17.5491 16.5362C17.6823 16.6756 17.905 16.6756 18.0382 16.5361L18.1231 16.4472C18.2563 16.3078 18.4789 16.3078 18.6121 16.4472L18.6972 16.5362C18.8304 16.6756 19.0529 16.6756 19.1861 16.5362L19.2714 16.4471C19.4046 16.3077 19.6271 16.3077 19.7603 16.4471L19.8456 16.5363C19.9788 16.6756 20.2014 16.6756 20.3346 16.5363L20.5706 16.2893C20.6308 16.2264 20.6644 16.1427 20.6644 16.0556V15.9292C20.5799 15.9326 20.4964 15.967 20.4332 16.0332Z" fill="#D0FBFD"/>
<path d="M17.3048 21.5712H17.4663V23.1266C17.4663 23.1751 17.5056 23.2144 17.5541 23.2144H17.9304C17.9789 23.2144 18.0183 23.1751 18.0183 23.1266V21.5712H18.2257C18.3177 21.5712 18.3668 21.4628 18.3061 21.3937L17.8456 20.8689C17.8031 20.8204 17.7275 20.8204 17.6848 20.8689L17.2243 21.3937C17.1637 21.4628 17.2128 21.5712 17.3048 21.5712Z" fill="#ECC32E"/>
<path d="M18.6004 21.5712H18.7619V23.1266C18.7619 23.1751 18.8012 23.2144 18.8497 23.2144H19.226C19.2746 23.2144 19.3139 23.1751 19.3139 23.1266V21.5712H19.5214C19.6133 21.5712 19.6624 21.4628 19.6017 21.3937L19.1413 20.8689C19.0987 20.8204 19.0231 20.8204 18.9804 20.8689L18.52 21.3937C18.4594 21.4628 18.5085 21.5712 18.6004 21.5712Z" fill="#ECC32E"/>
<path d="M18.0972 21.3937L17.6367 20.8689C17.5941 20.8204 17.5185 20.8204 17.4759 20.8689L17.0154 21.3937C16.9547 21.4628 17.0038 21.5712 17.0958 21.5712H17.2572V23.1266C17.2572 23.1751 17.2966 23.2144 17.3451 23.2144H17.7214C17.7699 23.2144 17.8093 23.1751 17.8093 23.1266V21.5712H18.0167C18.1087 21.5712 18.1578 21.4628 18.0972 21.3937Z" fill="#9D66D5"/>
<path d="M19.3929 21.3937L18.9324 20.8689C18.8898 20.8204 18.8142 20.8204 18.7715 20.8689L18.3111 21.3937C18.2504 21.4628 18.2995 21.5712 18.3914 21.5712H18.5529V23.1266C18.5529 23.1751 18.5923 23.2144 18.6408 23.2144H19.0171C19.0656 23.2144 19.1049 23.1751 19.1049 23.1266V21.5712H19.3124C19.4044 21.5712 19.4535 21.4628 19.3929 21.3937Z" fill="#9D66D5"/>
<path d="M16.941 17.1946V20.451H17.3908C17.5976 20.451 17.7653 20.2833 17.7653 20.0765V17.5205C17.7653 17.3137 17.5976 17.1461 17.3908 17.1461H16.9386C16.9397 17.1619 16.941 17.1779 16.941 17.1946Z" fill="#ECC32E"/>
<path d="M24.4945 23.6904C24.3901 23.6904 24.2864 23.6503 24.2196 23.57C24.1855 23.529 24.1329 23.504 24.0772 23.504H23.7816V22.927C23.7816 22.8018 23.8465 22.6879 23.9492 22.6162C24.1041 22.5082 24.2055 22.3288 24.2055 22.1256V20.986C24.2055 20.9013 24.1368 20.8327 24.0521 20.8327H23.9606L24.0375 21.2381C24.042 21.2617 24.0383 21.2862 24.0271 21.3074L23.8469 21.6478C23.8406 21.6596 23.8367 21.6724 23.8352 21.6856L23.8137 21.8798C23.8076 21.9344 23.7331 21.9457 23.7111 21.8954L23.6329 21.7163C23.6165 21.6787 23.6146 21.6365 23.6276 21.5975L23.7358 21.2727C23.7421 21.2539 23.743 21.2337 23.7383 21.2145L23.6467 20.8327H23.1628C23.0781 20.8327 23.0094 20.9013 23.0094 20.986V22.1256C23.0094 22.3953 23.188 22.6232 23.4333 22.6977V23.504H23.1377C23.0822 23.504 23.0295 23.5289 22.9954 23.5698C22.9283 23.6502 22.8244 23.6904 22.7197 23.6904H21.9834C21.7329 23.6904 21.5285 23.486 21.5332 23.2356C21.5332 23.2313 21.5333 23.2271 21.5333 23.2229V22.5779C21.5333 22.319 21.7433 22.1091 22.0022 22.1091H22.3944C22.5346 22.1091 22.637 21.9794 22.6079 21.8424C22.4852 21.2654 21.9728 20.8327 21.3593 20.8327C20.7458 20.8327 20.2334 21.2655 20.1107 21.8424C20.0816 21.9794 20.184 22.1091 20.3241 22.1091H21.1852V23.2152C21.1852 23.3269 21.1051 23.4265 20.9943 23.4408C20.8603 23.458 20.7457 23.3536 20.7457 23.2229V23.0301C20.7457 22.9391 20.6792 22.858 20.5887 22.8493C20.4848 22.8394 20.3975 22.9208 20.3975 23.0226V23.2229C20.3975 23.2428 20.3985 23.2626 20.4005 23.282C20.4186 23.4555 20.3122 23.6229 20.1455 23.674C20.0022 23.7179 19.8532 23.6712 19.76 23.5638C19.7277 23.5267 19.6801 23.504 19.6286 23.504H17.1976C17.1015 23.504 17.0235 23.5819 17.0235 23.6781C17.0235 23.6823 17.0245 23.6863 17.0247 23.6904H14.5086C14.1372 23.6904 13.8361 23.3893 13.8361 23.0178V21.2478C13.8361 20.8078 14.1928 20.4511 14.6327 20.4511H14.6487V17.1616C14.6487 17.1563 14.6493 17.1514 14.6494 17.1462H14.6327C14.1928 17.1462 13.8361 16.7895 13.8361 16.3495V13.8494H12.12C11.7486 13.8494 11.4474 14.1506 11.4474 14.522V24.288C11.4474 24.6595 11.7486 24.9606 12.12 24.9606H24.6157C24.9872 24.9606 25.2883 24.6595 25.2883 24.288V23.6905H24.4945V23.6904Z" fill="#ECC32E"/>
<path d="M22.3989 21.8422C22.2762 21.2653 21.7638 20.8325 21.1503 20.8325C20.5368 20.8325 20.0244 21.2653 19.9018 21.8422C19.8726 21.9793 19.975 22.109 20.1151 22.109H20.9762V23.2227C20.9762 23.3439 20.8776 23.4425 20.7564 23.4425C20.6353 23.4425 20.5367 23.3439 20.5367 23.2227V23.0224C20.5367 22.9262 20.4587 22.8483 20.3626 22.8483C20.2664 22.8483 20.1885 22.9262 20.1885 23.0224V23.2227C20.1885 23.5359 20.4433 23.7907 20.7564 23.7907C21.0696 23.7907 21.3244 23.5359 21.3244 23.2227V22.109H22.1855C22.3256 22.109 22.428 21.9793 22.3989 21.8422Z" fill="#ABABFF"/>
<path d="M19.4196 23.852H16.9887C16.8925 23.852 16.8146 23.7741 16.8146 23.6779C16.8146 23.5818 16.8925 23.5038 16.9887 23.5038H19.4196C19.5158 23.5038 19.5937 23.5818 19.5937 23.6779C19.5937 23.7741 19.5157 23.852 19.4196 23.852Z" fill="#9D66D5"/>
<path d="M23.8683 23.5038H23.5727V22.6975C23.818 22.6229 23.9966 22.3951 23.9966 22.1254V20.9859C23.9966 20.9011 23.9279 20.8325 23.8432 20.8325H23.7517L23.8286 21.2379C23.8331 21.2616 23.8294 21.286 23.8182 21.3072L23.638 21.6476C23.6318 21.6594 23.6278 21.6722 23.6263 21.6855L23.6048 21.8796C23.5987 21.9342 23.5242 21.9455 23.5022 21.8952L23.424 21.7161C23.4076 21.6786 23.4057 21.6363 23.4187 21.5974L23.5269 21.2725C23.5332 21.2538 23.5341 21.2336 23.5294 21.2143L23.4378 20.8325H22.9539C22.8692 20.8325 22.8005 20.9012 22.8005 20.9859V22.1255C22.8005 22.3952 22.9791 22.623 23.2244 22.6975V23.5039H22.9288C22.8379 23.5039 22.7567 23.5703 22.748 23.6609C22.7381 23.7647 22.8195 23.8521 22.9213 23.8521H23.8758C23.9776 23.8521 24.059 23.7647 24.0491 23.6609C24.0404 23.5703 23.9592 23.5038 23.8683 23.5038Z" fill="#8659B9"/>
<path d="M17.4283 19.9654C17.4318 19.9401 17.4342 19.9144 17.4342 19.8882V17.7087C17.4342 17.3979 17.1823 17.146 16.8715 17.146H13.688V19.9654H17.4283Z" fill="#9BD069"/>
<path d="M14.1872 19.7872C13.9804 19.7872 13.8127 19.6195 13.8127 19.4127C13.8127 19.1965 13.988 19.0212 14.2043 19.0212H15.8355C15.9264 19.0212 16.0076 18.9547 16.0163 18.8642C16.0262 18.7603 15.9448 18.673 15.843 18.673H13.9948C13.8942 18.673 13.8127 18.5915 13.8127 18.4909C13.8127 18.3903 13.8942 18.3088 13.9948 18.3088H14.8545C14.9454 18.3088 15.0266 18.2423 15.0353 18.1518C15.0452 18.0479 14.9638 17.9606 14.862 17.9606H13.9948C13.8942 17.9606 13.8127 17.8791 13.8127 17.7785V17.146H12.6643C12.4575 17.146 12.2898 17.3136 12.2898 17.5204V20.0764C12.2898 20.2833 12.4575 20.4509 12.6643 20.4509H17.0598C17.2666 20.4509 17.4342 20.2833 17.4342 20.0765V19.7872H14.1872Z" fill="#69B76B"/>
<path d="M14.2571 6.50664H5.82343V4.41627C5.82343 3.22744 6.78713 2.26373 7.97597 2.26373H12.1046C13.2934 2.26373 14.2571 3.22744 14.2571 4.41627V6.50664Z" fill="#3342AA"/>
<path d="M11.992 6.55898H8.08862V4.16127C8.08862 3.11326 8.93821 2.26367 9.98622 2.26367H10.0944C11.1424 2.26367 11.992 3.11326 11.992 4.16127V6.55898Z" fill="white"/>
<path d="M7.02203 5.36572C6.36007 5.36572 5.82343 5.90237 5.82343 6.56432H5.82643C5.88911 7.08688 7.75099 7.50615 10.0403 7.50615C12.3296 7.50615 14.1915 7.08688 14.2541 6.56432H14.2571C14.2571 5.90237 13.7205 5.36572 13.0585 5.36572H7.02203Z" fill="#2B3890"/>
<path d="M10.0403 2.52942C10.3855 2.52942 10.6653 2.3953 10.6653 2.22986C10.6653 2.06442 10.3855 1.9303 10.0403 1.9303C9.69511 1.9303 9.41528 2.06442 9.41528 2.22986C9.41528 2.3953 9.69511 2.52942 10.0403 2.52942Z" fill="#2B3890"/>
<path d="M15.7064 25.918C15.4799 25.918 15.2963 25.7344 15.2963 25.5079V24.3597C15.2963 24.1332 15.4799 23.9496 15.7064 23.9496C15.9328 23.9496 16.1164 24.1332 16.1164 24.3597V25.5079C16.1164 25.7344 15.9328 25.918 15.7064 25.918Z" fill="#FFBE82"/>
<path d="M16.5265 26C16.2547 26 16.0344 25.7797 16.0344 25.5079V24.3597C16.0344 24.0879 16.2547 23.8676 16.5265 23.8676C16.7983 23.8676 17.0186 24.0879 17.0186 24.3597V25.5079C17.0186 25.7797 16.7983 26 16.5265 26Z" fill="#FFBE82"/>
<path d="M17.456 26C17.1842 26 16.9639 25.7797 16.9639 25.5079V24.3597C16.9639 24.0879 17.1842 23.8676 17.456 23.8676C17.7278 23.8676 17.9481 24.0879 17.9481 24.3597V25.5079C17.9481 25.7797 17.7278 26 17.456 26Z" fill="#FFBE82"/>
<path d="M18.3855 26C18.1137 26 17.8934 25.7797 17.8934 25.5079V24.3597C17.8934 24.0879 18.1137 23.8676 18.3855 23.8676C18.6573 23.8676 18.8776 24.0879 18.8776 24.3597V25.5079C18.8776 25.7797 18.6573 26 18.3855 26Z" fill="#FFBE82"/>
<path d="M18.3855 25.215C18.17 25.215 17.9874 25.0764 17.9207 24.8835C17.8541 25.0764 17.6714 25.215 17.456 25.215C17.2405 25.215 17.0579 25.0764 16.9912 24.8835C16.9246 25.0764 16.7419 25.215 16.5265 25.215C16.3208 25.215 16.1447 25.0887 16.0712 24.9095C16.0033 25.0421 15.8656 25.133 15.7063 25.133C15.4798 25.133 15.2963 24.9495 15.2963 24.723V25.5079C15.2963 25.7344 15.4799 25.918 15.7063 25.918C15.8656 25.918 16.0033 25.827 16.0712 25.6944C16.1447 25.8736 16.3208 26 16.5265 26C16.7419 26 16.9246 25.8613 16.9912 25.6685C17.0579 25.8613 17.2405 26 17.456 26C17.6714 26 17.8541 25.8613 17.9207 25.6685C17.9874 25.8613 18.17 26 18.3855 26C18.6573 26 18.8776 25.7797 18.8776 25.5079V24.723C18.8776 24.9947 18.6573 25.215 18.3855 25.215Z" fill="#FF965A"/>
</g>
<defs>
<clipPath id="clip0_0_7474">
<rect width="26" height="26" fill="white"/>
</clipPath>
</defs>
</svg>
