<svg width="26" height="26" viewBox="0 0 26 26" fill="none" xmlns="http://www.w3.org/2000/svg">
<g clip-path="url(#clip0_0_7333)">
<path d="M12.9783 1.11719C6.10712 1.11719 0.536926 6.68738 0.536926 13.5586C0.536926 16.6228 1.64538 19.4277 3.48224 21.5958L7.49858 24.7305C9.15197 25.543 11.0117 26 12.9783 26C14.8204 26 16.5688 25.5992 18.1416 24.8808C16.7458 24.1536 15.7899 22.6938 15.7899 21.0141C15.7899 18.6112 17.7449 16.6562 20.1478 16.6562C21.8876 16.6562 23.392 17.6815 24.0901 19.1593C24.9403 17.4759 25.4197 15.5733 25.4197 13.5586C25.4197 6.68738 19.8495 1.11719 12.9783 1.11719Z" fill="#FFBD86"/>
<path d="M15.79 21.0141C15.79 18.6112 17.7449 16.6562 20.1479 16.6562C21.003 16.6562 21.8007 16.9048 22.4745 17.332V1.32031C22.4745 1.03985 22.2471 0.8125 21.9666 0.8125H17.0409V2.23438C17.0409 2.3464 16.9498 2.4375 16.8377 2.4375H9.11899C9.00697 2.4375 8.91586 2.3464 8.91586 2.23438V0.8125H3.99008C3.70962 0.8125 3.48227 1.03985 3.48227 1.32031V21.5958C4.58554 22.898 5.95151 23.9701 7.49866 24.7305H17.8747C16.6253 23.9634 15.79 22.5846 15.79 21.0141Z" fill="#22B27F"/>
<path d="M6.14454 1.32031C6.14454 1.03985 6.37189 0.8125 6.65235 0.8125H3.99014C3.70968 0.8125 3.48233 1.03985 3.48233 1.32031V21.5958C4.25121 22.5034 5.14801 23.2987 6.14454 23.9551V1.32031Z" fill="#09A76D"/>
<path d="M15.79 21.0141C15.79 18.6112 17.7449 16.6562 20.1479 16.6562C20.4223 16.6562 20.6905 16.683 20.951 16.7317V1.98047C20.951 1.89632 20.8828 1.82812 20.7987 1.82812H17.0409V2.23438C17.0409 2.3464 16.9498 2.4375 16.8377 2.4375H9.11899C9.00697 2.4375 8.91586 2.3464 8.91586 2.23438V1.82812H5.15805C5.07391 1.82812 5.00571 1.89632 5.00571 1.98047V22.5469C5.00571 22.631 5.07391 22.6992 5.15805 22.6992H16.1292C15.911 22.1805 15.79 21.6112 15.79 21.0141Z" fill="white"/>
<path d="M7.0586 22.5469V1.98047C7.0586 1.89632 7.1268 1.82812 7.21094 1.82812H5.15811C5.07397 1.82812 5.00577 1.89632 5.00577 1.98047V22.5469C5.00577 22.631 5.07397 22.6992 5.15811 22.6992H7.21094C7.1268 22.6992 7.0586 22.631 7.0586 22.5469Z" fill="#F8F6F6"/>
<path d="M15.5429 2.4375V2.84883H14.4921C14.2096 2.84883 13.965 3.03215 13.8833 3.30495C13.7646 3.70114 13.3925 3.97785 12.9784 3.97785C12.5644 3.97785 12.1922 3.70114 12.0736 3.305C11.9919 3.03215 11.7472 2.84883 11.4648 2.84883H10.414V2.4375H9.65225V2.97578C9.65225 3.32582 9.93698 3.61055 10.287 3.61055H11.3725C11.6136 4.27969 12.2611 4.73957 12.9784 4.73957C13.6957 4.73957 14.3432 4.27969 14.5843 3.61055H15.6698C16.0199 3.61055 16.3046 3.32582 16.3046 2.97578V2.4375H15.5429Z" fill="#9C9C9C"/>
<path d="M8.9731 8.77879C9.84605 8.77879 10.5537 8.07112 10.5537 7.19817C10.5537 6.32522 9.84605 5.61755 8.9731 5.61755C8.10015 5.61755 7.39249 6.32522 7.39249 7.19817C7.39249 8.07112 8.10015 8.77879 8.9731 8.77879Z" fill="#26A6FE"/>
<path d="M8.42969 7.19817C8.42969 6.50694 8.87357 5.91975 9.49168 5.70505C9.32918 5.64863 9.1548 5.61755 8.9731 5.61755C8.10017 5.61755 7.39249 6.32519 7.39249 7.19817C7.39249 8.0711 8.10012 8.77879 8.9731 8.77879C9.1548 8.77879 9.32918 8.74771 9.49168 8.69129C8.87357 8.47659 8.42969 7.88935 8.42969 7.19817Z" fill="#0593FC"/>
<path d="M8.86611 8.05207C8.76866 8.05207 8.67116 8.01489 8.59681 7.94055L7.94331 7.2871C7.79457 7.13836 7.79457 6.8972 7.94331 6.74851C8.09205 6.59972 8.33321 6.59977 8.4819 6.74846L8.86606 7.13262L9.46401 6.53467C9.61274 6.38598 9.8539 6.38598 10.0026 6.53467C10.1513 6.68346 10.1513 6.92457 10.0026 7.07331L9.13535 7.94055C9.06106 8.01489 8.96361 8.05207 8.86611 8.05207Z" fill="white"/>
<path d="M18.5643 6.8172H11.9119C11.7016 6.8172 11.5311 6.64673 11.5311 6.43634C11.5311 6.22595 11.7016 6.05548 11.9119 6.05548H18.5643C18.7746 6.05548 18.9451 6.22595 18.9451 6.43634C18.9451 6.64673 18.7746 6.8172 18.5643 6.8172Z" fill="#9C9C9C"/>
<path d="M16.3806 8.34058H11.9118C11.7015 8.34058 11.531 8.1701 11.531 7.95972C11.531 7.74933 11.7015 7.57886 11.9118 7.57886H16.3806C16.5909 7.57886 16.7614 7.74933 16.7614 7.95972C16.7614 8.1701 16.5909 8.34058 16.3806 8.34058Z" fill="#9C9C9C"/>
<path d="M8.9731 12.8097C9.84605 12.8097 10.5537 12.102 10.5537 11.2291C10.5537 10.3561 9.84605 9.64844 8.9731 9.64844C8.10015 9.64844 7.39249 10.3561 7.39249 11.2291C7.39249 12.102 8.10015 12.8097 8.9731 12.8097Z" fill="#26A6FE"/>
<path d="M8.42969 11.2291C8.42969 10.5378 8.87357 9.95064 9.49168 9.73593C9.32918 9.67952 9.1548 9.64844 8.9731 9.64844C8.10017 9.64844 7.39249 10.3561 7.39249 11.2291C7.39249 12.102 8.10012 12.8097 8.9731 12.8097C9.1548 12.8097 9.32918 12.7786 9.49168 12.7222C8.87357 12.5075 8.42969 11.9202 8.42969 11.2291Z" fill="#0593FC"/>
<path d="M8.86611 12.083C8.76866 12.083 8.67121 12.0459 8.59681 11.9715L7.94331 11.3181C7.79457 11.1693 7.79457 10.9282 7.94331 10.7795C8.09205 10.6307 8.33321 10.6307 8.4819 10.7794L8.86606 11.1636L9.46401 10.5657C9.61274 10.417 9.8539 10.417 10.0026 10.5657C10.1513 10.7145 10.1513 10.9556 10.0026 11.1043L9.13535 11.9715C9.06106 12.0459 8.96356 12.083 8.86611 12.083Z" fill="white"/>
<path d="M18.5643 10.8482H11.9119C11.7016 10.8482 11.5311 10.6777 11.5311 10.4673C11.5311 10.257 11.7016 10.0865 11.9119 10.0865H18.5643C18.7746 10.0865 18.9451 10.257 18.9451 10.4673C18.9451 10.6777 18.7746 10.8482 18.5643 10.8482Z" fill="#9C9C9C"/>
<path d="M16.3806 12.3717H11.9118C11.7015 12.3717 11.531 12.2012 11.531 11.9908C11.531 11.7805 11.7015 11.61 11.9118 11.61H16.3806C16.5909 11.61 16.7614 11.7805 16.7614 11.9908C16.7614 12.2012 16.5909 12.3717 16.3806 12.3717Z" fill="#9C9C9C"/>
<path d="M8.9731 16.8406C9.84605 16.8406 10.5537 16.1329 10.5537 15.2599C10.5537 14.387 9.84605 13.6793 8.9731 13.6793C8.10015 13.6793 7.39249 14.387 7.39249 15.2599C7.39249 16.1329 8.10015 16.8406 8.9731 16.8406Z" fill="#26A6FE"/>
<path d="M8.42969 15.2599C8.42969 14.5687 8.87357 13.9815 9.49168 13.7668C9.32918 13.7104 9.1548 13.6793 8.9731 13.6793C8.10017 13.6793 7.39249 14.387 7.39249 15.2599C7.39249 16.1329 8.10012 16.8405 8.9731 16.8405C9.1548 16.8405 9.32918 16.8094 9.49168 16.753C8.87357 16.5384 8.42969 15.9511 8.42969 15.2599Z" fill="#0593FC"/>
<path d="M8.86611 16.114C8.76866 16.114 8.67121 16.0769 8.59681 16.0025L7.94331 15.3491C7.79457 15.2003 7.79457 14.9592 7.94331 14.8105C8.09205 14.6617 8.33321 14.6617 8.4819 14.8104L8.86606 15.1946L9.46401 14.5967C9.61274 14.448 9.8539 14.448 10.0026 14.5967C10.1513 14.7455 10.1513 14.9866 10.0026 15.1353L9.13535 16.0025C9.06106 16.0769 8.96356 16.114 8.86611 16.114Z" fill="white"/>
<path d="M17.7744 14.1175H11.9118C11.7015 14.1175 11.531 14.288 11.531 14.4984C11.531 14.7087 11.7015 14.8792 11.9118 14.8792H17.6185L17.7744 14.1175Z" fill="#9C9C9C"/>
<path d="M17.8866 13.764L17.7938 13.7691L17.2965 16.1993C17.2798 16.2809 17.3766 16.3368 17.4389 16.2815L19.2949 14.6357L19.2545 14.5538L17.8866 13.764Z" fill="#FFE5C2"/>
<path d="M18.4603 14.0952L17.8866 13.7639L17.7938 13.769L17.2965 16.1992C17.2798 16.2808 17.3766 16.3367 17.4389 16.2814L18.1401 15.6597L18.4603 14.0952Z" fill="#FED2A4"/>
<path d="M14.8571 16.4026H11.9118C11.7015 16.4026 11.531 16.2322 11.531 16.0218C11.531 15.8114 11.7015 15.6409 11.9118 15.6409H14.8571C15.0675 15.6409 15.238 15.8114 15.238 16.0218C15.238 16.2322 15.0675 16.4026 14.8571 16.4026Z" fill="#9C9C9C"/>
<path d="M8.9731 20.8714C9.84605 20.8714 10.5537 20.1637 10.5537 19.2908C10.5537 18.4178 9.84605 17.7101 8.9731 17.7101C8.10015 17.7101 7.39249 18.4178 7.39249 19.2908C7.39249 20.1637 8.10015 20.8714 8.9731 20.8714Z" fill="#D8ECFE"/>
<path d="M8.42969 19.2908C8.42969 18.5995 8.87357 18.0123 9.49168 17.7976C9.32918 17.7412 9.1548 17.7101 8.9731 17.7101C8.10017 17.7101 7.39249 18.4178 7.39249 19.2908C7.39249 20.1637 8.10012 20.8713 8.9731 20.8713C9.1548 20.8713 9.32918 20.8403 9.49168 20.7838C8.87357 20.5692 8.42969 19.9819 8.42969 19.2908Z" fill="#B3DAFE"/>
<path d="M16.8691 18.1481H11.9119C11.7016 18.1481 11.5311 18.3186 11.5311 18.529C11.5311 18.7394 11.7016 18.9099 11.9119 18.9099H16.3332C16.4846 18.6365 16.6647 18.3816 16.8691 18.1481Z" fill="#9C9C9C"/>
<path d="M14.8571 20.4333H11.9118C11.7015 20.4333 11.531 20.2628 11.531 20.0524C11.531 19.842 11.7015 19.6716 11.9118 19.6716H14.8571C15.0675 19.6716 15.238 19.842 15.238 20.0524C15.238 20.2628 15.0675 20.4333 14.8571 20.4333Z" fill="#9C9C9C"/>
<path d="M16.8378 2.48828H9.11905C8.97884 2.48828 8.86514 2.37458 8.86514 2.23438V0.253906C8.86514 0.113699 8.97884 0 9.11905 0H16.8378C16.978 0 17.0917 0.113699 17.0917 0.253906V2.23438C17.0917 2.37458 16.9781 2.48828 16.8378 2.48828Z" fill="#0182FC"/>
<path d="M11.6797 1.47266C11.5395 1.47266 11.4258 1.35896 11.4258 1.21875V0H9.11905C8.97884 0 8.86514 0.113699 8.86514 0.253906V2.23438C8.86514 2.37458 8.97884 2.48828 9.11905 2.48828H16.8378C16.978 2.48828 17.0917 2.37458 17.0917 2.23438V1.47266H11.6797Z" fill="#0172FB"/>
<path d="M25.2461 3.46128L24.4955 3.02797C24.2883 2.90833 24.0233 2.97932 23.9036 3.18656L22.907 4.91276L22.9529 4.98929L24.3038 5.76924L24.408 5.7794L25.4047 4.05319C25.5243 3.84595 25.4533 3.58092 25.2461 3.46128Z" fill="#9C9C9C"/>
<path d="M18.2355 15.575L17.51 15.1561L17.2965 16.1991C17.2798 16.2807 17.3766 16.3366 17.4389 16.2813L18.2355 15.575Z" fill="#5A5A5A"/>
<path d="M22.9064 4.91266L24.4074 5.77929L19.2943 14.6352L17.7933 13.7686L22.9064 4.91266Z" fill="#FAC600"/>
<path d="M24.2385 4.14084C24.3581 3.9336 24.6231 3.86256 24.8304 3.98225L25.2918 4.24865L25.4046 4.05319C25.5242 3.84595 25.4532 3.58093 25.246 3.46128L24.4955 3.02797C24.2882 2.90833 24.0232 2.97932 23.9036 3.18656L22.9069 4.91276L22.9528 4.98929L23.5497 5.33384L24.2385 4.14084Z" fill="#838383"/>
<path d="M23.2418 5.86705L24.0786 6.35008L24.408 5.77935L22.907 4.91272L17.7939 13.769L18.4583 14.1525L23.2418 5.86705Z" fill="#E8B800"/>
<path d="M20.1478 25.4227C22.5826 25.4227 24.5564 23.4489 24.5564 21.0141C24.5564 18.5793 22.5826 16.6055 20.1478 16.6055C17.713 16.6055 15.7392 18.5793 15.7392 21.0141C15.7392 23.4489 17.713 25.4227 20.1478 25.4227Z" fill="#0182FC"/>
<path d="M17.7226 21.0141C17.7226 18.9203 19.1823 17.1674 21.1395 16.7175C20.8208 16.6442 20.4888 16.6055 20.1478 16.6055C17.713 16.6055 15.7392 18.5793 15.7392 21.0141C15.7392 23.4489 17.713 25.4227 20.1478 25.4227C20.4888 25.4227 20.8208 25.384 21.1395 25.3107C19.1823 24.8608 17.7226 23.108 17.7226 21.0141Z" fill="#0172FB"/>
<path d="M20.0215 22.8241C19.808 22.8241 19.5945 22.7427 19.4316 22.5799L17.9999 21.1483C17.6741 20.8225 17.6741 20.2942 17.9999 19.9685C18.3258 19.6425 18.8541 19.6426 19.1798 19.9684L20.0214 20.8099L21.3313 19.5001C21.6571 19.1744 22.1855 19.1743 22.5112 19.5002C22.837 19.8261 22.837 20.3544 22.5112 20.6801L20.6113 22.5799C20.4486 22.7427 20.235 22.8241 20.0215 22.8241Z" fill="#0172FB"/>
<path d="M20.2659 22.5683C20.0524 22.5683 19.8389 22.4869 19.6759 22.3241L18.2443 20.8925C17.9185 20.5667 17.9185 20.0384 18.2443 19.7127C18.5702 19.3867 19.0985 19.3868 19.4242 19.7126L20.2658 20.5541L21.5757 19.2443C21.9015 18.9186 22.4298 18.9185 22.7556 19.2444C23.0814 19.5703 23.0814 20.0986 22.7556 20.4243L20.8557 22.3241C20.693 22.4869 20.4794 22.5683 20.2659 22.5683Z" fill="white"/>
</g>
<defs>
<clipPath id="clip0_0_7333">
<rect width="26" height="26" fill="white"/>
</clipPath>
</defs>
</svg>
