<svg width="160" height="81" viewBox="0 0 160 81" fill="none" xmlns="http://www.w3.org/2000/svg">
<g opacity="0.05">
<path d="M122.811 21.2434C122.99 20.1021 121.151 19.1634 119.769 19.0661C119.11 19.0196 118.425 19.1079 117.801 18.9173C116.448 18.5044 115.907 16.9741 114.587 16.4864C113.6 16.1219 112.464 16.4465 111.507 16.868C110.55 17.2894 109.604 17.8201 108.535 17.8801C107.605 17.9323 106.596 17.6301 105.782 18.028C105.176 18.3243 104.858 18.9361 104.3 19.2967C103.753 19.6496 103.04 19.7245 102.362 19.7567C101.684 19.7889 100.981 19.7949 100.364 20.0425C99.7464 20.29 99.2353 20.8619 99.3636 21.446L122.811 21.2434Z" fill="#4B4B4B"/>
<path d="M153.613 17.7439C153.793 16.6026 151.953 15.6638 150.571 15.5663C149.912 15.5198 149.228 15.6081 148.603 15.4174C147.25 15.0046 146.709 13.4743 145.389 12.9866C144.402 12.6221 143.266 12.9466 142.309 13.3681C141.352 13.7896 140.407 14.3203 139.338 14.3803C138.408 14.4325 137.398 14.1303 136.585 14.5282C135.978 14.8244 135.661 15.4362 135.102 15.7969C134.556 16.1498 133.843 16.2246 133.165 16.2569C132.486 16.2891 131.784 16.295 131.167 16.5426C130.549 16.7902 130.038 17.3621 130.166 17.9458L153.613 17.7439Z" fill="#63CAE1"/>
<path d="M64.6179 5.42303H42.8883V78.2067H64.6179V5.42303Z" fill="#63CAE1"/>
<path d="M64.6192 5.42303H53.7545V78.0266H64.6192V5.42303Z" fill="#4B4B4B"/>
<path d="M53.0416 0H45.3684V5.4213H53.0416V0Z" fill="#63CAE1"/>
<path d="M53.0444 0H51.2156V5.4213H53.0444V0Z" fill="#4B4B4B"/>
<path d="M41.0786 5.425V5.10881H65.2549V5.425" fill="#086E86"/>
<path d="M49.0173 7.78529H47.1781V10.8951H49.0173V7.78529Z" fill="#1B5664"/>
<path d="M53.751 12.1174C53.751 12.1502 51.3185 12.1767 48.319 12.1767C45.3181 12.1767 42.8864 12.1502 42.8864 12.1174C42.8864 12.0845 45.3181 12.058 48.319 12.058C51.3185 12.058 53.751 12.0845 53.751 12.1174Z" fill="#086E86"/>
<path d="M59.9751 7.78413H58.1359V10.8939H59.9751V7.78413Z" fill="#086E86"/>
<path d="M64.7114 12.1138C64.7114 12.1466 62.2792 12.1732 59.2791 12.1732C56.2781 12.1732 53.8464 12.1466 53.8464 12.1138C53.8464 12.081 56.2781 12.0545 59.2791 12.0545C62.2792 12.0545 64.7114 12.081 64.7114 12.1138Z" fill="#086E86"/>
<path d="M59.9754 13.956H58.1362V17.0661H59.9754V13.956Z" fill="#086E86"/>
<path d="M64.7114 18.2857C64.7114 18.3185 62.2792 18.3451 59.2791 18.3451C56.2781 18.3451 53.8464 18.3185 53.8464 18.2857C53.8464 18.2529 56.2781 18.2264 59.2791 18.2264C62.2792 18.2264 64.7114 18.2529 64.7114 18.2857Z" fill="#086E86"/>
<path d="M59.9754 20.3269H58.1362V23.4367H59.9754V20.3269Z" fill="#086E86"/>
<path d="M64.7133 24.6484C64.7133 24.6812 62.2812 24.7077 59.281 24.7077C56.2801 24.7077 53.8483 24.6812 53.8483 24.6484C53.8483 24.6156 56.2801 24.589 59.281 24.589C62.2812 24.589 64.7133 24.6156 64.7133 24.6484Z" fill="#086E86"/>
<path d="M59.9754 26.687H58.1362V29.797H59.9754V26.687Z" fill="#086E86"/>
<path d="M64.7114 31.0181C64.7114 31.0509 62.2792 31.0774 59.2791 31.0774C56.2781 31.0774 53.8464 31.0509 53.8464 31.0181C53.8464 30.9852 56.2781 30.9587 59.2791 30.9587C62.2792 30.9587 64.7114 30.9855 64.7114 31.0181Z" fill="#086E86"/>
<path d="M59.9754 32.8603H58.1362V35.9704H59.9754V32.8603Z" fill="#086E86"/>
<path d="M64.7114 37.1908C64.7114 37.2236 62.2792 37.2502 59.2791 37.2502C56.2781 37.2502 53.8464 37.2236 53.8464 37.1908C53.8464 37.158 56.2781 37.1315 59.2791 37.1315C62.2792 37.1315 64.7114 37.158 64.7114 37.1908Z" fill="#086E86"/>
<path d="M59.9754 39.0633H58.1362V42.1731H59.9754V39.0633Z" fill="#086E86"/>
<path d="M59.9754 45.3522H58.1362V48.4623H59.9754V45.3522Z" fill="#086E86"/>
<path d="M64.7114 43.3925C64.7114 43.4253 62.2792 43.4518 59.2791 43.4518C56.2781 43.4518 53.8464 43.4253 53.8464 43.3925C53.8464 43.3597 56.2781 43.3331 59.2791 43.3331C62.2792 43.3331 64.7114 43.3597 64.7114 43.3925Z" fill="#086E86"/>
<path d="M49.0173 14.0507H47.1781V17.1608H49.0173V14.0507Z" fill="#1B5664"/>
<path d="M53.751 18.3827C53.751 18.4155 51.3185 18.442 48.319 18.442C45.3181 18.442 42.8864 18.4155 42.8864 18.3827C42.8864 18.3498 45.3181 18.3233 48.319 18.3233C51.3185 18.3233 53.751 18.3498 53.751 18.3827Z" fill="#086E86"/>
<path d="M49.0173 20.3265H47.1781V23.4366H49.0173V20.3265Z" fill="#1B5664"/>
<path d="M53.751 24.6582C53.751 24.691 51.3185 24.7176 48.319 24.7176C45.3181 24.7176 42.8864 24.691 42.8864 24.6582C42.8864 24.6254 45.3181 24.5989 48.319 24.5989C51.3185 24.5989 53.751 24.6254 53.751 24.6582Z" fill="#086E86"/>
<path d="M49.0173 26.593H47.1781V29.7031H49.0173V26.593Z" fill="#1B5664"/>
<path d="M53.751 30.9245C53.751 30.9573 51.3185 30.9838 48.319 30.9838C45.3181 30.9838 42.8864 30.9573 42.8864 30.9245C42.8864 30.8917 45.3181 30.8651 48.319 30.8651C51.3185 30.8651 53.751 30.8917 53.751 30.9245Z" fill="#086E86"/>
<path d="M49.0173 32.8603H47.1781V35.9704H49.0173V32.8603Z" fill="#1B5664"/>
<path d="M53.751 37.1921C53.751 37.2249 51.3185 37.2515 48.319 37.2515C45.3181 37.2515 42.8864 37.2249 42.8864 37.1921C42.8864 37.1593 45.3181 37.1327 48.319 37.1327C51.3185 37.1327 53.751 37.1593 53.751 37.1921Z" fill="#086E86"/>
<path d="M49.0173 39.1292H47.1781V42.2393H49.0173V39.1292Z" fill="#1B5664"/>
<path d="M53.751 43.4574C53.751 43.4902 51.3185 43.5168 48.319 43.5168C45.3181 43.5168 42.8864 43.4902 42.8864 43.4574C42.8864 43.4246 45.3181 43.398 48.319 43.398C51.3185 43.398 53.751 43.4246 53.751 43.4574Z" fill="#086E86"/>
<path d="M49.0173 45.4017H47.1781V48.5115H49.0173V45.4017Z" fill="#1B5664"/>
<path d="M136.653 6.74014H120.101V48.8049H136.653V6.74014Z" fill="#63CAE1"/>
<path d="M136.65 6.74014H128.374V48.6889H136.65V6.74014Z" fill="#4B4B4B"/>
<path d="M127.834 2.61181H121.989V6.74148H127.834V2.61181Z" fill="#63CAE1"/>
<path d="M127.836 2.61181H126.443V6.74148H127.836V2.61181Z" fill="#4B4B4B"/>
<path d="M118.721 6.74115V6.50012H137.137V6.74115" fill="#086E86"/>
<path d="M124.768 8.54401H123.367V10.9131H124.768V8.54401Z" fill="#1B5664"/>
<path d="M128.377 11.845C128.377 11.8701 126.524 11.89 124.239 11.89C121.953 11.89 120.101 11.8698 120.101 11.845C120.101 11.8199 121.954 11.7997 124.239 11.7997C126.524 11.7997 128.377 11.8199 128.377 11.845Z" fill="#086E86"/>
<path d="M133.117 8.54456H131.716V10.9137H133.117V8.54456Z" fill="#086E86"/>
<path d="M136.724 11.8452C136.724 11.8702 134.871 11.8902 132.586 11.8902C130.3 11.8902 128.448 11.8699 128.448 11.8452C128.448 11.8201 130.301 11.7998 132.586 11.7998C134.871 11.7998 136.724 11.8201 136.724 11.8452Z" fill="#086E86"/>
<path d="M133.115 13.2441H131.714V15.6132H133.115V13.2441Z" fill="#086E86"/>
<path d="M136.724 16.5426C136.724 16.5677 134.871 16.5879 132.586 16.5879C130.3 16.5879 128.448 16.5677 128.448 16.5426C128.448 16.5175 130.301 16.4976 132.586 16.4976C134.871 16.4976 136.724 16.5178 136.724 16.5426Z" fill="#086E86"/>
<path d="M133.115 18.0953H131.714V20.4641H133.115V18.0953Z" fill="#086E86"/>
<path d="M136.724 21.3893C136.724 21.4144 134.871 21.4344 132.586 21.4344C130.3 21.4344 128.448 21.4141 128.448 21.3893C128.448 21.3643 130.301 21.344 132.586 21.344C134.871 21.344 136.724 21.3643 136.724 21.3893Z" fill="#086E86"/>
<path d="M133.113 22.9374H131.712V25.3065H133.113V22.9374Z" fill="#086E86"/>
<path d="M136.72 26.2299C136.72 26.2549 134.867 26.2752 132.582 26.2752C130.296 26.2752 128.444 26.2549 128.444 26.2299C128.444 26.2048 130.297 26.1848 132.582 26.1848C134.867 26.1848 136.72 26.2048 136.72 26.2299Z" fill="#086E86"/>
<path d="M133.115 27.6391H131.714V30.0082H133.115V27.6391Z" fill="#086E86"/>
<path d="M136.724 30.9412C136.724 30.9663 134.871 30.9866 132.586 30.9866C130.3 30.9866 128.448 30.9663 128.448 30.9412C128.448 30.9165 130.301 30.8959 132.586 30.8959C134.871 30.8962 136.724 30.9165 136.724 30.9412Z" fill="#086E86"/>
<path d="M133.113 32.3695H131.712V34.7386H133.113V32.3695Z" fill="#086E86"/>
<path d="M133.113 37.1598H131.712V39.5289H133.113V37.1598Z" fill="#086E86"/>
<path d="M136.72 35.6703C136.72 35.6954 134.867 35.7156 132.582 35.7156C130.296 35.7156 128.444 35.6954 128.444 35.6703C128.444 35.6452 130.297 35.625 132.582 35.625C134.867 35.6253 136.72 35.6455 136.72 35.6703Z" fill="#086E86"/>
<path d="M124.768 13.3188H123.367V15.6879H124.768V13.3188Z" fill="#1B5664"/>
<path d="M128.377 16.6115C128.377 16.6366 126.524 16.6568 124.239 16.6568C121.953 16.6568 120.101 16.6366 120.101 16.6115C120.101 16.5864 121.954 16.5665 124.239 16.5665C126.524 16.5662 128.377 16.5864 128.377 16.6115Z" fill="#086E86"/>
<path d="M124.768 18.0948H123.367V20.4639H124.768V18.0948Z" fill="#1B5664"/>
<path d="M128.377 21.3885C128.377 21.4135 126.524 21.4338 124.239 21.4338C121.953 21.4338 120.101 21.4135 120.101 21.3885C120.101 21.3637 121.954 21.3434 124.239 21.3434C126.524 21.3434 128.377 21.3637 128.377 21.3885Z" fill="#086E86"/>
<path d="M124.768 22.8716H123.367V25.2407H124.768V22.8716Z" fill="#1B5664"/>
<path d="M128.377 26.1655C128.377 26.1905 126.524 26.2108 124.239 26.2108C121.953 26.2108 120.101 26.1905 120.101 26.1655C120.101 26.1404 121.954 26.1204 124.239 26.1204C126.524 26.1204 128.377 26.1407 128.377 26.1655Z" fill="#086E86"/>
<path d="M124.768 27.6393H123.367V30.0084H124.768V27.6393Z" fill="#1B5664"/>
<path d="M128.377 30.9415C128.377 30.9665 126.524 30.9868 124.239 30.9868C121.953 30.9868 120.101 30.9665 120.101 30.9415C120.101 30.9167 121.954 30.8961 124.239 30.8961C126.524 30.8964 128.377 30.9167 128.377 30.9415Z" fill="#086E86"/>
<path d="M124.768 32.4165H123.367V34.7856H124.768V32.4165Z" fill="#1B5664"/>
<path d="M128.377 35.7178C128.377 35.7429 126.524 35.7632 124.239 35.7632C121.953 35.7632 120.101 35.7429 120.101 35.7178C120.101 35.6931 121.954 35.6728 124.239 35.6728C126.524 35.6728 128.377 35.6931 128.377 35.7178Z" fill="#086E86"/>
<path d="M124.77 37.1931H123.369V39.5622H124.77V37.1931Z" fill="#1B5664"/>
<path d="M155.768 26.9142H135.566V78.2543H155.768V26.9142Z" fill="#63CAE1"/>
<path d="M155.769 26.9142H145.668V78.1129H155.769V26.9142Z" fill="#4B4B4B"/>
<path d="M145.006 21.877H137.872V26.9174H145.006V21.877Z" fill="#63CAE1"/>
<path d="M145.005 21.877H143.305V26.9174H145.005V21.877Z" fill="#4B4B4B"/>
<path d="M133.881 26.9179V26.6237H156.358V26.9179" fill="#086E86"/>
<path d="M141.264 29.1129H139.555V32.0043H141.264V29.1129Z" fill="#1B5664"/>
<path d="M145.667 33.1387C145.667 33.1691 143.405 33.1939 140.616 33.1939C137.826 33.1939 135.566 33.1691 135.566 33.1387C135.566 33.1083 137.827 33.0835 140.616 33.0835C143.405 33.0835 145.667 33.1083 145.667 33.1387Z" fill="#086E86"/>
<path d="M151.451 29.1124H149.741V32.0039H151.451V29.1124Z" fill="#086E86"/>
<path d="M155.857 33.1371C155.857 33.1675 153.595 33.1923 150.806 33.1923C148.016 33.1923 145.756 33.1675 145.756 33.1371C145.756 33.1067 148.017 33.0819 150.806 33.0819C153.595 33.0819 155.857 33.1067 155.857 33.1371Z" fill="#086E86"/>
<path d="M151.451 34.8547H149.741V37.7461H151.451V34.8547Z" fill="#086E86"/>
<path d="M155.857 38.8806C155.857 38.911 153.595 38.9358 150.806 38.9358C148.016 38.9358 145.756 38.911 145.756 38.8806C145.756 38.8502 148.017 38.8254 150.806 38.8254C153.595 38.8254 155.857 38.8499 155.857 38.8806Z" fill="#086E86"/>
<path d="M151.451 40.7711H149.741V43.6625H151.451V40.7711Z" fill="#086E86"/>
<path d="M155.853 44.7945C155.853 44.8249 153.591 44.8497 150.802 44.8497C148.012 44.8497 145.752 44.8249 145.752 44.7945C145.752 44.7641 148.013 44.7393 150.802 44.7393C153.591 44.7393 155.853 44.7641 155.853 44.7945Z" fill="#086E86"/>
<path d="M151.451 46.6861H149.741V49.5775H151.451V46.6861Z" fill="#086E86"/>
<path d="M155.853 50.7108C155.853 50.7412 153.591 50.766 150.802 50.766C148.012 50.766 145.752 50.7412 145.752 50.7108C145.752 50.6803 148.013 50.6556 150.802 50.6556C153.591 50.6556 155.853 50.6803 155.853 50.7108Z" fill="#086E86"/>
<path d="M151.451 52.4307H149.741V55.3221H151.451V52.4307Z" fill="#086E86"/>
<path d="M155.853 56.4558C155.853 56.4863 153.591 56.511 150.802 56.511C148.012 56.511 145.752 56.4863 145.752 56.4558C145.752 56.4254 148.013 56.4007 150.802 56.4007C153.591 56.4007 155.853 56.4254 155.853 56.4558Z" fill="#086E86"/>
<path d="M151.453 58.2014H149.743V61.0928H151.453V58.2014Z" fill="#086E86"/>
<path d="M151.453 64.041H149.743V66.9324H151.453V64.041Z" fill="#086E86"/>
<path d="M155.853 62.228C155.853 62.2584 153.591 62.2832 150.802 62.2832C148.012 62.2832 145.752 62.2584 145.752 62.228C145.752 62.1975 148.013 62.1728 150.802 62.1728C153.591 62.1728 155.853 62.1975 155.853 62.228Z" fill="#086E86"/>
<path d="M141.264 34.9453H139.555V37.8367H141.264V34.9453Z" fill="#1B5664"/>
<path d="M145.667 38.972C145.667 39.0024 143.405 39.0272 140.616 39.0272C137.826 39.0272 135.566 39.0024 135.566 38.972C135.566 38.9416 137.827 38.9168 140.616 38.9168C143.405 38.9168 145.667 38.9416 145.667 38.972Z" fill="#086E86"/>
<path d="M141.264 40.7713H139.555V43.6627H141.264V40.7713Z" fill="#1B5664"/>
<path d="M145.667 44.7972C145.667 44.8276 143.405 44.8524 140.616 44.8524C137.826 44.8524 135.566 44.8276 135.566 44.7972C135.566 44.7668 137.827 44.742 140.616 44.742C143.405 44.742 145.667 44.7668 145.667 44.7972Z" fill="#086E86"/>
<path d="M141.264 46.5958H139.555V49.4873H141.264V46.5958Z" fill="#1B5664"/>
<path d="M145.667 50.6316C145.667 50.6621 143.405 50.6868 140.616 50.6868C137.826 50.6868 135.566 50.6621 135.566 50.6316C135.566 50.6012 137.827 50.5764 140.616 50.5764C143.405 50.5761 145.667 50.6012 145.667 50.6316Z" fill="#086E86"/>
<path d="M141.264 52.4298H139.555V55.3213H141.264V52.4298Z" fill="#1B5664"/>
<path d="M145.667 56.4544C145.667 56.4849 143.405 56.5096 140.616 56.5096C137.826 56.5096 135.566 56.4849 135.566 56.4544C135.566 56.424 137.827 56.3993 140.616 56.3993C143.405 56.3993 145.667 56.424 145.667 56.4544Z" fill="#086E86"/>
<path d="M141.264 58.2555H139.555V61.1469H141.264V58.2555Z" fill="#1B5664"/>
<path d="M145.667 62.2799C145.667 62.3103 143.405 62.3351 140.616 62.3351C137.826 62.3351 135.566 62.3103 135.566 62.2799C135.566 62.2495 137.827 62.2247 140.616 62.2247C143.405 62.2247 145.667 62.2495 145.667 62.2799Z" fill="#086E86"/>
<path d="M141.266 64.0869H139.557V66.9783H141.266V64.0869Z" fill="#1B5664"/>
<path d="M136.056 41.5768H101.378V78.2533H136.056V41.5768Z" fill="#4B4B4B"/>
<path d="M136.057 41.5768H119.798V78.2533H136.057V41.5768Z" fill="#086E86"/>
<path d="M111.768 46.5422H108.65V52.6165H111.768V46.5422Z" fill="#63CAE1"/>
<path d="M111.768 70.3182H108.65V76.3928H111.768V70.3182Z" fill="#63CAE1"/>
<path d="M119.798 55.0048C119.798 55.0731 115.675 55.1283 110.589 55.1283C105.502 55.1283 101.38 55.0728 101.38 55.0048C101.38 54.9365 105.503 54.8813 110.589 54.8813C115.675 54.8813 119.798 54.9365 119.798 55.0048Z" fill="#63CAE1"/>
<path d="M111.77 58.5207H108.652V64.5953H111.77V58.5207Z" fill="#63CAE1"/>
<path d="M119.796 66.9771C119.796 67.0455 115.673 67.1006 110.587 67.1006C105.5 67.1006 101.378 67.0452 101.378 66.9771C101.378 66.9091 105.501 66.8536 110.587 66.8536C115.673 66.8536 119.796 66.9088 119.796 66.9771Z" fill="#63CAE1"/>
<path d="M126.369 46.5423H123.251V52.6166H126.369V46.5423Z" fill="#63CAE1"/>
<path d="M133.134 46.5423H130.015V52.6166H133.134V46.5423Z" fill="#63CAE1"/>
<path d="M126.369 58.0725H123.251V64.1468H126.369V58.0725Z" fill="#63CAE1"/>
<path d="M133.134 58.0725H130.015V64.1468H133.134V58.0725Z" fill="#63CAE1"/>
<path d="M126.369 69.5961H123.251V75.6704H126.369V69.5961Z" fill="#63CAE1"/>
<path d="M133.134 69.5961H130.015V75.6704H133.134V69.5961Z" fill="#63CAE1"/>
<path d="M138.662 40.2979H98.7711V41.6202H138.662V40.2979Z" fill="#086E86"/>
<path d="M136.298 41.7474C136.298 41.8157 128.547 41.8712 118.988 41.8712C109.426 41.8712 101.677 41.8157 101.677 41.7474C101.677 41.6791 109.426 41.6239 118.988 41.6239C128.547 41.6239 136.298 41.6794 136.298 41.7474Z" fill="#4B4B4B"/>
<path d="M23.5413 23.1327H1.81169V78.3552H23.5413V23.1327Z" fill="#63CAE1"/>
<path d="M23.5406 23.1327H12.6759V78.2031H23.5406V23.1327Z" fill="#4B4B4B"/>
<path d="M11.9631 17.7162H4.28981V23.1375H11.9631V17.7162Z" fill="#63CAE1"/>
<path d="M11.964 17.7162H10.1353V23.1375H11.964V17.7162Z" fill="#4B4B4B"/>
<path d="M0 23.1337V22.8175H24.1766V23.1337" fill="#086E86"/>
<path d="M7.93871 25.5002H6.09954V28.6103H7.93871V25.5002Z" fill="#1B5664"/>
<path d="M12.6747 29.8343C12.6747 29.8671 10.2422 29.8937 7.24242 29.8937C4.2415 29.8937 1.80973 29.8671 1.80973 29.8343C1.80973 29.8015 4.2415 29.775 7.24242 29.775C10.2422 29.775 12.6747 29.8015 12.6747 29.8343Z" fill="#086E86"/>
<path d="M18.8987 25.5011H17.0596V28.6112H18.8987V25.5011Z" fill="#086E86"/>
<path d="M23.6344 29.8328C23.6344 29.8656 21.2019 29.8922 18.2024 29.8922C15.2015 29.8922 12.7698 29.8656 12.7698 29.8328C12.7698 29.8 15.2015 29.7734 18.2024 29.7734C21.2023 29.7734 23.6344 29.8 23.6344 29.8328Z" fill="#086E86"/>
<path d="M18.8987 31.6743H17.0596V34.7844H18.8987V31.6743Z" fill="#086E86"/>
<path d="M23.6344 36.004C23.6344 36.0369 21.2019 36.0634 18.2024 36.0634C15.2015 36.0634 12.7698 36.0369 12.7698 36.004C12.7698 35.9712 15.2015 35.9447 18.2024 35.9447C21.2023 35.9447 23.6344 35.9715 23.6344 36.004Z" fill="#086E86"/>
<path d="M18.8987 38.0345H17.0596V41.1446H18.8987V38.0345Z" fill="#086E86"/>
<path d="M23.6344 42.3642C23.6344 42.3971 21.2019 42.4236 18.2024 42.4236C15.2015 42.4236 12.7698 42.3971 12.7698 42.3642C12.7698 42.3314 15.2015 42.3049 18.2024 42.3049C21.2023 42.3049 23.6344 42.3314 23.6344 42.3642Z" fill="#086E86"/>
<path d="M18.8987 44.3943H17.0596V47.5043H18.8987V44.3943Z" fill="#086E86"/>
<path d="M23.6344 48.7246C23.6344 48.7574 21.2019 48.784 18.2024 48.784C15.2015 48.784 12.7698 48.7574 12.7698 48.7246C12.7698 48.6918 15.2015 48.6653 18.2024 48.6653C21.2023 48.6653 23.6344 48.6918 23.6344 48.7246Z" fill="#086E86"/>
<path d="M18.8987 50.5764H17.0596V53.6862H18.8987V50.5764Z" fill="#086E86"/>
<path d="M23.6344 54.9073C23.6344 54.9402 21.2019 54.9667 18.2024 54.9667C15.2015 54.9667 12.7698 54.9402 12.7698 54.9073C12.7698 54.8745 15.2015 54.848 18.2024 54.848C21.2023 54.8483 23.6344 54.8748 23.6344 54.9073Z" fill="#086E86"/>
<path d="M18.8987 56.7803H17.0596V59.8901H18.8987V56.7803Z" fill="#086E86"/>
<path d="M18.8987 63.0623H17.0596V66.1724H18.8987V63.0623Z" fill="#086E86"/>
<path d="M23.6344 61.1099C23.6344 61.1427 21.2019 61.1693 18.2024 61.1693C15.2015 61.1693 12.7698 61.1427 12.7698 61.1099C12.7698 61.0771 15.2015 61.0506 18.2024 61.0506C21.2023 61.0506 23.6344 61.0771 23.6344 61.1099Z" fill="#086E86"/>
<path d="M7.93871 31.7696H6.09954V34.8796H7.93871V31.7696Z" fill="#1B5664"/>
<path d="M12.6767 36.0999C12.6767 36.1327 10.2442 36.1593 7.24438 36.1593C4.24345 36.1593 1.81169 36.1327 1.81169 36.0999C1.81169 36.0671 4.24345 36.0406 7.24438 36.0406C10.2442 36.0406 12.6767 36.0671 12.6767 36.0999Z" fill="#086E86"/>
<path d="M7.93871 38.0349H6.09954V41.145H7.93871V38.0349Z" fill="#1B5664"/>
<path d="M12.6747 42.3658C12.6747 42.3986 10.2422 42.4251 7.24242 42.4251C4.2415 42.4251 1.80973 42.3986 1.80973 42.3658C1.80973 42.3329 4.2415 42.3064 7.24242 42.3064C10.2422 42.3064 12.6747 42.3329 12.6747 42.3658Z" fill="#086E86"/>
<path d="M7.93871 44.3029H6.09954V47.413H7.93871V44.3029Z" fill="#1B5664"/>
<path d="M12.6767 48.6424C12.6767 48.6752 10.2442 48.7018 7.24438 48.7018C4.24345 48.7018 1.81169 48.6752 1.81169 48.6424C1.81169 48.6096 4.24345 48.5831 7.24438 48.5831C10.2442 48.5831 12.6767 48.6099 12.6767 48.6424Z" fill="#086E86"/>
<path d="M7.93871 50.5749H6.09954V53.6846H7.93871V50.5749Z" fill="#1B5664"/>
<path d="M12.6747 54.9066C12.6747 54.9394 10.2422 54.966 7.24242 54.966C4.2415 54.966 1.80973 54.9394 1.80973 54.9066C1.80973 54.8738 4.2415 54.8473 7.24242 54.8473C10.2422 54.8476 12.6747 54.8741 12.6747 54.9066Z" fill="#086E86"/>
<path d="M7.93871 56.8446H6.09954V59.9547H7.93871V56.8446Z" fill="#1B5664"/>
<path d="M12.6767 61.1752C12.6767 61.208 10.2442 61.2346 7.24438 61.2346C4.24345 61.2346 1.81169 61.208 1.81169 61.1752C1.81169 61.1424 4.24345 61.1158 7.24438 61.1158C10.2442 61.1161 12.6767 61.1427 12.6767 61.1752Z" fill="#086E86"/>
<path d="M7.93871 63.1103H6.09954V66.2204H7.93871V63.1103Z" fill="#1B5664"/>
<path d="M59.1771 78.1304H27.2011L27.0619 37.6069H59.0376L59.1771 78.1304Z" fill="#4B4B4B"/>
<path d="M59.0403 37.6069H43.0525V78.1304H59.0403V37.6069Z" fill="#292929"/>
<path d="M42.004 29.6303H30.7127V37.6081H42.004V29.6303Z" fill="#4B4B4B"/>
<path d="M42.0048 29.6303H39.3138V37.6081H42.0048V29.6303Z" fill="#086E86"/>
<path d="M59.9744 37.1448H24.3982V37.6102H59.9744V37.1448Z" fill="#086E86"/>
<path d="M36.0812 41.0875H33.3745V45.664H36.0812V41.0875Z" fill="#63CAE1"/>
<path d="M43.0478 47.4567C43.0478 47.505 39.4684 47.5441 35.0543 47.5441C30.6386 47.5441 27.06 47.505 27.06 47.4567C27.06 47.4084 30.6386 47.3693 35.0543 47.3693C39.4684 47.3693 43.0478 47.4084 43.0478 47.4567Z" fill="#086E86"/>
<path d="M52.2085 41.0872H49.5018V45.6637H52.2085V41.0872Z" fill="#63CAE1"/>
<path d="M59.1771 47.4666C59.1771 47.5149 55.5977 47.554 51.1836 47.554C46.7679 47.554 43.1893 47.5149 43.1893 47.4666C43.1893 47.4183 46.7679 47.3792 51.1836 47.3792C55.5977 47.3792 59.1771 47.4183 59.1771 47.4666Z" fill="#4B4B4B"/>
<path d="M52.2085 50.1799H49.5018V54.7565H52.2085V50.1799Z" fill="#63CAE1"/>
<path d="M59.1771 56.5512C59.1771 56.5995 55.5977 56.6386 51.1836 56.6386C46.7679 56.6386 43.1893 56.5995 43.1893 56.5512C43.1893 56.5032 46.7679 56.4638 51.1836 56.4638C55.5977 56.4638 59.1771 56.5029 59.1771 56.5512Z" fill="#4B4B4B"/>
<path d="M52.2085 59.5335H49.5018V64.11H52.2085V59.5335Z" fill="#63CAE1"/>
<path d="M59.181 65.9033C59.181 65.9517 55.6016 65.9908 51.1875 65.9908C46.7718 65.9908 43.1932 65.9517 43.1932 65.9033C43.1932 65.855 46.7718 65.8159 51.1875 65.8159C55.6016 65.8162 59.181 65.8553 59.181 65.9033Z" fill="#4B4B4B"/>
<path d="M52.2085 68.8962H49.5018V73.4727H52.2085V68.8962Z" fill="#63CAE1"/>
<path d="M59.1771 75.2661C59.1771 75.3144 55.5977 75.3535 51.1836 75.3535C46.7679 75.3535 43.1893 75.3144 43.1893 75.2661C43.1893 75.2177 46.7679 75.1786 51.1836 75.1786C55.5977 75.1786 59.1771 75.2177 59.1771 75.2661Z" fill="#4B4B4B"/>
<path d="M36.0812 50.3116H33.3745V54.8881H36.0812V50.3116Z" fill="#63CAE1"/>
<path d="M43.0478 56.6909C43.0478 56.7392 39.4684 56.7783 35.0543 56.7783C30.6386 56.7783 27.06 56.7392 27.06 56.6909C27.06 56.6426 30.6386 56.6035 35.0543 56.6035C39.4684 56.6035 43.0478 56.6426 43.0478 56.6909Z" fill="#086E86"/>
<path d="M36.0812 59.5358H33.3745V64.1123H36.0812V59.5358Z" fill="#63CAE1"/>
<path d="M43.0478 65.9035C43.0478 65.9519 39.4684 65.9909 35.0543 65.9909C30.6386 65.9909 27.06 65.9519 27.06 65.9035C27.06 65.8552 30.6386 65.8161 35.0543 65.8161C39.4684 65.8161 43.0478 65.8555 43.0478 65.9035Z" fill="#086E86"/>
<path d="M36.0812 68.7599H33.3745V73.3364H36.0812V68.7599Z" fill="#63CAE1"/>
<path d="M43.0478 75.1366C43.0478 75.185 39.4684 75.224 35.0543 75.224C30.6386 75.224 27.06 75.185 27.06 75.1366C27.06 75.0883 30.6386 75.0492 35.0543 75.0492C39.4684 75.0495 43.0478 75.0886 43.0478 75.1366Z" fill="#086E86"/>
<path d="M108.549 72.6347H81.7576L81.6412 20.1386H108.433L108.549 72.6347Z" fill="#4B4B4B"/>
<path d="M108.432 20.1386H95.0364V72.6347H108.432V20.1386Z" fill="#086E86"/>
<path d="M94.1585 13.4808H84.6978V20.1388H94.1585V13.4808Z" fill="#4B4B4B"/>
<path d="M94.1582 13.4808H91.9035V20.1388H94.1582V13.4808Z" fill="#086E86"/>
<path d="M109.215 19.754H80.8399V20.1424H109.215V19.754Z" fill="#086E86"/>
<path d="M89.1955 23.045H86.9277V26.8644H89.1955V23.045Z" fill="#63CAE1"/>
<path d="M95.035 28.3591C95.035 28.3994 92.0359 28.4319 88.3375 28.4319C84.6376 28.4319 81.6393 28.3994 81.6393 28.3591C81.6393 28.3189 84.6376 28.2864 88.3375 28.2864C92.0359 28.2861 95.035 28.3189 95.035 28.3591Z" fill="#086E86"/>
<path d="M102.71 23.0467H100.442V26.8662H102.71V23.0467Z" fill="#63CAE1"/>
<path d="M108.549 28.3596C108.549 28.3998 105.55 28.4324 101.852 28.4324C98.1519 28.4324 95.1536 28.3998 95.1536 28.3596C95.1536 28.3193 98.1519 28.2868 101.852 28.2868C105.55 28.2865 108.549 28.3193 108.549 28.3596Z" fill="#4B4B4B"/>
<path d="M102.71 30.6275H100.442V34.4469H102.71V30.6275Z" fill="#63CAE1"/>
<path d="M108.549 35.9498C108.549 35.9901 105.55 36.0229 101.852 36.0229C98.1519 36.0229 95.1536 35.9904 95.1536 35.9498C95.1536 35.9095 98.1519 35.877 101.852 35.877C105.55 35.877 108.549 35.9095 108.549 35.9498Z" fill="#4B4B4B"/>
<path d="M102.71 38.4405H100.442V42.2599H102.71V38.4405Z" fill="#63CAE1"/>
<path d="M108.549 43.7648C108.549 43.805 105.55 43.8375 101.852 43.8375C98.1519 43.8375 95.1536 43.8047 95.1536 43.7648C95.1536 43.7248 98.1519 43.6917 101.852 43.6917C105.55 43.6917 108.549 43.7245 108.549 43.7648Z" fill="#4B4B4B"/>
<path d="M102.71 46.2447H100.442V50.0641H102.71V46.2447Z" fill="#63CAE1"/>
<path d="M108.549 51.5648C108.549 51.6051 105.55 51.6376 101.852 51.6376C98.1519 51.6376 95.1536 51.6051 95.1536 51.5648C95.1536 51.5246 98.1519 51.4921 101.852 51.4921C105.55 51.4918 108.549 51.5246 108.549 51.5648Z" fill="#4B4B4B"/>
<path d="M89.1955 30.74H86.9277V34.5595H89.1955V30.74Z" fill="#63CAE1"/>
<path d="M95.035 36.0609C95.035 36.1012 92.0359 36.134 88.3375 36.134C84.6376 36.134 81.6393 36.1012 81.6393 36.0609C81.6393 36.0207 84.6376 35.9882 88.3375 35.9882C92.0359 35.9882 95.035 36.0207 95.035 36.0609Z" fill="#086E86"/>
<path d="M89.1955 38.4403H86.9277V42.2597H89.1955V38.4403Z" fill="#63CAE1"/>
<path d="M95.035 43.7538C95.035 43.7941 92.0359 43.8266 88.3375 43.8266C84.6376 43.8266 81.6393 43.7938 81.6393 43.7538C81.6393 43.7136 84.6376 43.6811 88.3375 43.6811C92.0359 43.6808 95.035 43.7133 95.035 43.7538Z" fill="#086E86"/>
<path d="M89.1955 46.1354H86.9277V49.9548H89.1955V46.1354Z" fill="#63CAE1"/>
<path d="M95.035 51.4575C95.035 51.4978 92.0359 51.5306 88.3375 51.5306C84.6376 51.5306 81.6393 51.4981 81.6393 51.4575C81.6393 51.4173 84.6376 51.3847 88.3375 51.3847C92.0359 51.3847 95.035 51.4173 95.035 51.4575Z" fill="#086E86"/>
<path d="M101.749 77.8296H62.5553L62.385 28.354H101.579L101.749 77.8296Z" fill="#4B4B4B"/>
<path d="M101.584 28.354H81.9871V77.8296H101.584V28.354Z" fill="#292929"/>
<path d="M80.6969 18.6193H66.8565V28.3596H80.6969V18.6193Z" fill="#4B4B4B"/>
<path d="M80.6968 18.6193H77.3983V28.3596H80.6968V18.6193Z" fill="#086E86"/>
<path d="M102.725 27.7849H59.1173V28.3531H102.725V27.7849Z" fill="#086E86"/>
<path d="M73.4437 32.6065H70.1262V38.194H73.4437V32.6065Z" fill="#63CAE1"/>
<path d="M81.982 40.3858C81.982 40.4447 77.5946 40.4923 72.184 40.4923C66.7713 40.4923 62.385 40.4447 62.385 40.3858C62.385 40.3269 66.7713 40.2793 72.184 40.2793C77.5946 40.2793 81.982 40.3269 81.982 40.3858Z" fill="#086E86"/>
<path d="M93.21 32.6065H89.8925V38.194H93.21V32.6065Z" fill="#63CAE1"/>
<path d="M101.754 40.3839C101.754 40.4428 97.3668 40.4904 91.9562 40.4904C86.5435 40.4904 82.1572 40.4428 82.1572 40.3839C82.1572 40.325 86.5435 40.2774 91.9562 40.2774C97.3668 40.2774 101.754 40.325 101.754 40.3839Z" fill="#4B4B4B"/>
<path d="M93.2081 43.6973H89.8905V49.2849H93.2081V43.6973Z" fill="#63CAE1"/>
<path d="M101.748 51.478C101.748 51.537 97.3609 51.585 91.9504 51.585C86.5377 51.585 82.1513 51.5374 82.1513 51.478C82.1513 51.4191 86.5377 51.3716 91.9504 51.3716C97.3609 51.3716 101.748 51.4196 101.748 51.478Z" fill="#4B4B4B"/>
<path d="M93.21 55.1217H89.8925V60.7093H93.21V55.1217Z" fill="#63CAE1"/>
<path d="M101.754 62.9105C101.754 62.9694 97.3668 63.0174 91.9562 63.0174C86.5435 63.0174 82.1572 62.9694 82.1572 62.9105C82.1572 62.8516 86.5435 62.804 91.9562 62.804C97.3668 62.8036 101.754 62.8516 101.754 62.9105Z" fill="#4B4B4B"/>
<path d="M93.21 66.5557H89.8925V72.1433H93.21V66.5557Z" fill="#63CAE1"/>
<path d="M101.754 74.3385C101.754 74.3974 97.3668 74.4454 91.9562 74.4454C86.5435 74.4454 82.1572 74.3974 82.1572 74.3385C82.1572 74.2796 86.5435 74.232 91.9562 74.232C97.3668 74.232 101.754 74.2796 101.754 74.3385Z" fill="#4B4B4B"/>
<path d="M73.4437 43.8695H70.1262V49.4571H73.4437V43.8695Z" fill="#63CAE1"/>
<path d="M81.982 51.6506C81.982 51.7095 77.5946 51.7575 72.184 51.7575C66.7713 51.7575 62.385 51.7095 62.385 51.6506C62.385 51.5917 66.7713 51.5441 72.184 51.5441C77.5946 51.5441 81.982 51.5917 81.982 51.6506Z" fill="#086E86"/>
<path d="M73.4437 55.1344H70.1262V60.7219H73.4437V55.1344Z" fill="#63CAE1"/>
<path d="M81.982 62.9113C81.982 62.9702 77.5946 63.0177 72.184 63.0177C66.7713 63.0177 62.385 62.9702 62.385 62.9113C62.385 62.8523 66.7713 62.8048 72.184 62.8048C77.5946 62.8043 81.982 62.8523 81.982 62.9113Z" fill="#086E86"/>
<path d="M73.4437 66.3949H70.1262V71.9825H73.4437V66.3949Z" fill="#63CAE1"/>
<path d="M81.982 74.1784C81.982 74.2373 77.5946 74.2853 72.184 74.2853C66.7713 74.2853 62.385 74.2378 62.385 74.1784C62.385 74.1195 66.7713 74.0719 72.184 74.0719C77.5946 74.0719 81.982 74.1195 81.982 74.1784Z" fill="#086E86"/>
<path d="M93.3841 6.84825C93.5634 5.70695 91.7239 4.7682 90.3419 4.67096C89.6827 4.62442 88.9982 4.71272 88.3736 4.52211C87.0207 4.10926 86.4801 2.57898 85.1599 2.09126C84.173 1.72674 83.0365 2.05129 82.0797 2.47278C81.123 2.89428 80.1773 3.42496 79.1086 3.48492C78.1786 3.53712 77.169 3.23494 76.3554 3.63287C75.7491 3.92909 75.4317 4.5409 74.873 4.90154C74.3262 5.25443 73.6134 5.32931 72.9353 5.36152C72.2571 5.39374 71.5548 5.3997 70.9372 5.64729C70.3197 5.89488 69.8086 6.46672 69.9369 7.0505L93.3841 6.84825Z" fill="#63CAE1"/>
<path d="M155.715 6.58282C155.845 5.75922 154.517 5.08178 153.52 5.01138C153.044 4.97797 152.55 5.04151 152.1 4.90399C151.123 4.60599 150.733 3.50169 149.781 3.14999C149.068 2.88689 148.248 3.12105 147.558 3.42532C146.867 3.72959 146.185 4.1126 145.414 4.15586C144.743 4.19344 144.014 3.97568 143.427 4.26265C142.989 4.47653 142.76 4.91771 142.357 5.17813C141.963 5.43288 141.448 5.48687 140.959 5.51014C140.469 5.53341 139.962 5.53788 139.517 5.71656C139.071 5.89524 138.702 6.30779 138.795 6.72929L155.715 6.58282Z" fill="#63CAE1"/>
<path d="M17.7181 12.5186C17.8476 11.695 16.5203 11.0175 15.5226 10.9471C15.0468 10.9134 14.5528 10.9773 14.1023 10.8397C13.1258 10.5417 12.7359 9.43743 11.7832 9.08573C11.0708 8.82263 10.251 9.0568 9.56052 9.36106C8.87009 9.66533 8.18784 10.048 7.41632 10.0913C6.74523 10.1289 6.01648 9.91113 5.42983 10.1981C4.99236 10.412 4.76321 10.8532 4.35996 11.1136C3.96564 11.3683 3.45079 11.4223 2.96161 11.4456C2.47206 11.4688 1.9654 11.4733 1.51974 11.652C1.07409 11.8307 0.705434 12.2432 0.798062 12.6647L17.7181 12.5186Z" fill="#63CAE1"/>
<path d="M0.111398 80.8511L20.0397 80.7786L39.9678 80.7521L79.8244 80.7023L119.681 80.7518L139.609 80.778L159.537 80.8511L139.609 80.9239L119.681 80.9502L79.8244 81L39.9678 80.9499L20.0397 80.9236L0.111398 80.8511Z" fill="#63CAE1"/>
<path d="M159.537 77.696H0.111398V80.8509H159.537V77.696Z" fill="#50A6BA"/>
<path d="M8.3124 77.6956C8.4083 78.2215 8.42997 78.7471 8.43411 79.273C8.43045 79.7989 8.40903 80.3245 8.3124 80.8504C8.21577 80.3245 8.19435 79.7989 8.1907 79.273C8.19484 78.7471 8.21626 78.2215 8.3124 77.6956Z" fill="#63CAE1"/>
<path d="M17.8477 77.6956C17.9436 78.2215 17.9653 78.7471 17.9694 79.273C17.9658 79.7989 17.9443 80.3245 17.8477 80.8504C17.7513 80.3245 17.7296 79.7989 17.726 79.273C17.7301 78.7471 17.7516 78.2215 17.8477 77.6956Z" fill="#63CAE1"/>
<path d="M27.381 77.6956C27.4769 78.2215 27.4986 78.7471 27.5027 79.273C27.4991 79.7989 27.4777 80.3245 27.381 80.8504C27.2847 80.3245 27.263 79.7989 27.2593 79.273C27.2635 78.7471 27.2851 78.2215 27.381 77.6956Z" fill="#63CAE1"/>
<path d="M36.9163 77.6956C37.0122 78.2215 37.0339 78.7471 37.038 79.273C37.0344 79.7989 37.013 80.3245 36.9163 80.8504C36.8199 80.3245 36.7983 79.7989 36.7946 79.273C36.7988 78.7471 36.8204 78.2215 36.9163 77.6956Z" fill="#63CAE1"/>
<path d="M46.4516 77.6956C46.5475 78.2215 46.5692 78.7471 46.5733 79.273C46.5697 79.7989 46.5483 80.3245 46.4516 80.8504C46.355 80.3245 46.3336 79.7989 46.3299 79.273C46.3341 78.7471 46.3557 78.2215 46.4516 77.6956Z" fill="#63CAE1"/>
<path d="M55.9869 77.6956C56.0828 78.2215 56.1045 78.7471 56.1086 79.273C56.105 79.7989 56.0836 80.3245 55.9869 80.8504C55.8905 80.3245 55.8689 79.7989 55.8652 79.273C55.8696 78.7471 55.891 78.2215 55.9869 77.6956Z" fill="#63CAE1"/>
<path d="M65.5203 77.6956C65.6162 78.2215 65.6378 78.7471 65.642 79.273C65.6383 79.7989 65.6169 80.3245 65.5203 80.8504C65.4236 80.3245 65.4022 79.7989 65.3986 79.273C65.4027 78.7471 65.4241 78.2215 65.5203 77.6956Z" fill="#63CAE1"/>
<path d="M75.0556 77.6956C75.1515 78.2215 75.1731 78.7471 75.1773 79.273C75.1736 79.7989 75.1522 80.3245 75.0556 80.8504C74.9592 80.3245 74.9375 79.7989 74.9339 79.273C74.938 78.7471 74.9597 78.2215 75.0556 77.6956Z" fill="#63CAE1"/>
<path d="M84.5889 77.6956C84.6848 78.2215 84.7065 78.7471 84.7106 79.273C84.707 79.7989 84.6855 80.3245 84.5889 80.8504C84.4923 80.3245 84.4709 79.7989 84.4672 79.273C84.4713 78.7471 84.493 78.2215 84.5889 77.6956Z" fill="#63CAE1"/>
<path d="M94.1262 77.6956C94.2221 78.2215 94.2437 78.7471 94.2479 79.273C94.2442 79.7989 94.2228 80.3245 94.1262 80.8504C94.0295 80.3245 94.0081 79.7989 94.0045 79.273C94.0086 78.7471 94.0303 78.2215 94.1262 77.6956Z" fill="#63CAE1"/>
<path d="M103.66 77.6956C103.755 78.2215 103.777 78.7471 103.781 79.273C103.778 79.7989 103.756 80.3245 103.66 80.8504C103.563 80.3245 103.541 79.7989 103.538 79.273C103.542 78.7471 103.564 78.2215 103.66 77.6956Z" fill="#63CAE1"/>
<path d="M113.195 77.6956C113.291 78.2215 113.312 78.7471 113.317 79.273C113.313 79.7989 113.291 80.3245 113.195 80.8504C113.098 80.3245 113.077 79.7989 113.073 79.273C113.077 78.7471 113.099 78.2215 113.195 77.6956Z" fill="#63CAE1"/>
<path d="M122.728 77.6956C122.824 78.2215 122.846 78.7471 122.85 79.273C122.846 79.7989 122.825 80.3245 122.728 80.8504C122.632 80.3245 122.61 79.7989 122.606 79.273C122.611 78.7471 122.632 78.2215 122.728 77.6956Z" fill="#63CAE1"/>
<path d="M132.265 77.6956C132.361 78.2215 132.383 78.7471 132.387 79.273C132.383 79.7989 132.362 80.3245 132.265 80.8504C132.169 80.3245 132.147 79.7989 132.144 79.273C132.148 78.7471 132.169 78.2215 132.265 77.6956Z" fill="#63CAE1"/>
<path d="M141.797 77.6956C141.893 78.2215 141.914 78.7471 141.918 79.273C141.915 79.7989 141.893 80.3245 141.797 80.8504C141.7 80.3245 141.679 79.7989 141.675 79.273C141.679 78.7471 141.701 78.2215 141.797 77.6956Z" fill="#63CAE1"/>
<path d="M151.334 77.6956C151.43 78.2215 151.452 78.7471 151.456 79.273C151.452 79.7989 151.431 80.3245 151.334 80.8504C151.238 80.3245 151.216 79.7989 151.212 79.273C151.216 78.7471 151.238 78.2215 151.334 77.6956Z" fill="#63CAE1"/>
</g>
</svg>
