<svg width="351" height="297" viewBox="0 0 351 297" fill="none" xmlns="http://www.w3.org/2000/svg">
<path d="M27.2202 263.75C27.7191 261.816 26.4513 259.875 25.0301 258.472C23.6088 257.069 21.9092 255.812 21.1701 253.957C19.9718 250.951 21.5828 247.06 19.5383 244.552C18.3359 243.077 16.179 242.583 15.1116 241.007C14.552 240.181 14.3707 239.165 14.1506 238.191C13.0285 233.224 10.5422 228.571 7.03663 224.879C6.79282 229.302 7.76867 233.786 9.828 237.709C10.6558 239.285 11.6727 240.822 11.9468 242.582C12.3922 245.439 10.7973 248.383 11.4996 251.188C12.3024 254.396 15.9061 256.543 16.0773 259.847C16.2219 262.639 13.7885 265.09 13.9699 267.88C14.0472 269.068 14.5984 270.171 15.2121 271.191C17.3713 274.781 20.5427 277.253 25.35 277.172L31.2378 277.379L27.2202 263.75Z" fill="#2490A9"/>
<g opacity="0.3">
<path d="M27.2202 263.75C27.7191 261.816 26.4513 259.875 25.0301 258.472C23.6088 257.069 21.9092 255.812 21.1701 253.957C19.9718 250.951 21.5828 247.06 19.5383 244.552C18.3359 243.077 16.179 242.583 15.1116 241.007C14.552 240.181 14.3707 239.165 14.1506 238.191C13.0285 233.224 10.5422 228.571 7.03663 224.879C6.79282 229.302 7.76867 233.786 9.828 237.709C10.6558 239.285 11.6727 240.822 11.9468 242.582C12.3922 245.439 10.7973 248.383 11.4996 251.188C12.3024 254.396 15.9061 256.543 16.0773 259.847C16.2219 262.639 13.7885 265.09 13.9699 267.88C14.0472 269.068 14.5984 270.171 15.2121 271.191C17.3713 274.781 20.5427 277.253 25.35 277.172L31.2378 277.379L27.2202 263.75Z" fill="black"/>
</g>
<path d="M32.4296 277.533C32.4296 277.533 32.991 277.664 34.0507 277.498C34.5781 277.42 35.2281 277.281 35.9637 277.016C36.6951 276.748 37.5289 276.367 38.3269 275.721C38.7099 275.386 39.0928 274.973 39.2986 274.426C39.5014 273.881 39.5382 273.282 39.5757 272.667C39.6072 272.052 39.6078 271.411 39.7131 270.762C39.8124 270.114 40.0669 269.477 40.4326 268.869C41.1272 267.649 42.2797 266.495 42.6519 264.839C43.0551 263.21 42.7661 261.448 42.492 259.678C42.2184 257.912 41.9538 255.986 42.6293 254.146C43.2609 252.305 44.5525 250.642 45.1977 248.567C45.8405 246.47 45.5408 244.215 45.6764 241.99C45.7388 240.873 45.9541 239.755 46.4435 238.721C46.9198 237.678 47.5805 236.695 48.0967 235.598C49.1415 233.38 49.3265 230.866 49.6119 228.402C49.7511 227.161 49.892 225.906 50.0341 224.639C50.1744 223.366 50.2874 222.099 50.6882 220.874C51.051 219.64 51.5761 218.446 52.097 217.23C52.3515 216.618 52.6215 216.006 52.7803 215.327C52.8956 214.633 52.9289 213.984 52.97 213.302C53.036 211.952 52.9807 210.584 52.813 209.226C52.653 207.868 52.408 206.521 52.2617 205.159C52.2528 205.079 52.2433 204.998 52.2356 204.924L52.2052 204.653L51.9638 204.773C50.7031 205.405 49.6232 206.345 48.7942 207.448C47.951 208.544 47.3367 209.781 46.8467 211.037C45.8631 213.567 45.5087 216.218 45.0133 218.748C44.5293 221.277 43.8912 223.766 42.5942 225.869C41.949 226.917 41.1682 227.874 40.485 228.897C39.8035 229.913 39.204 231.029 39.0239 232.253C38.6754 234.744 40.0479 236.932 39.7618 239.137C39.6601 240.233 39.2237 241.257 38.6879 242.193C38.1533 243.134 37.5247 244.006 36.9288 244.883C36.333 245.76 35.7657 246.649 35.3482 247.6C34.9236 248.547 34.6893 249.56 34.6251 250.552C34.4812 252.537 34.7631 254.421 34.618 256.199C34.4984 257.98 33.8728 259.595 33.1652 261.038C32.4528 262.487 31.6607 263.797 30.997 265.067C30.6628 265.702 30.3554 266.321 30.1045 266.943C29.8386 267.564 29.7084 268.201 29.5877 268.805C29.3944 270.026 29.4135 271.163 29.5443 272.166C29.8 274.183 30.5522 275.635 31.229 276.452C31.3836 276.67 31.5638 276.824 31.7053 276.968C31.8433 277.116 31.98 277.217 32.0918 277.296C32.3119 277.458 32.4296 277.533 32.4296 277.533C32.4558 277.503 31.9449 277.232 31.2896 276.405C30.6414 275.585 29.9219 274.143 29.6912 272.148C29.5728 271.157 29.5657 270.034 29.7661 268.836C29.8904 268.243 30.023 267.62 30.287 267.018C30.5374 266.41 30.849 265.794 31.185 265.166C31.854 263.907 32.6544 262.602 33.3823 261.144C34.1042 259.694 34.7542 258.047 34.8862 256.22C35.0408 254.404 34.7672 252.513 34.9177 250.575C34.9855 249.605 35.2132 248.638 35.6271 247.722C36.0351 246.802 36.594 245.93 37.1899 245.06C37.7858 244.189 38.4215 243.313 38.9715 242.353C39.5216 241.399 39.9836 240.332 40.0948 239.172C40.3785 236.822 39.0167 234.62 39.3706 232.305C39.5406 231.16 40.1103 230.093 40.7823 229.095C41.4549 228.092 42.2392 227.133 42.9041 226.058C44.2421 223.895 44.8902 221.358 45.3797 218.818C45.8804 216.273 46.2348 213.649 47.2011 211.172C47.6822 209.941 48.2828 208.735 49.0975 207.678C49.8997 206.612 50.9327 205.715 52.1339 205.113L51.8627 204.963C51.871 205.038 51.88 205.119 51.8895 205.2C52.0375 206.578 52.2831 207.928 52.4413 209.27C52.6066 210.613 52.6619 211.954 52.5971 213.284C52.5591 213.94 52.5186 214.629 52.4163 215.248C52.2724 215.868 52.0084 216.478 51.7557 217.084C51.2389 218.295 50.7061 219.507 50.3362 220.768C49.9271 222.022 49.8099 223.338 49.6731 224.595C49.5328 225.863 49.3931 227.119 49.2557 228.361C48.9744 230.835 48.7901 233.309 47.7833 235.45C47.2862 236.516 46.6261 237.502 46.1361 238.578C45.63 239.652 45.4058 240.832 45.3469 241.968C45.2185 244.24 45.514 246.461 44.8998 248.474C44.2896 250.478 43.0051 252.149 42.3558 254.049C41.6612 255.968 41.949 257.957 42.2297 259.717C42.514 261.49 42.8 263.216 42.42 264.781C42.0798 266.362 40.9601 267.506 40.2518 268.761C39.8832 269.383 39.6185 270.057 39.5216 270.73C39.4187 271.401 39.4241 272.047 39.3979 272.658C39.3676 273.264 39.3325 273.859 39.147 274.369C38.962 274.878 38.6016 275.28 38.2335 275.608C37.4646 276.244 36.6464 276.634 35.9274 276.909C35.2031 277.181 34.5621 277.332 34.0411 277.421C33.5196 277.515 33.1146 277.529 32.8435 277.537C32.5699 277.528 32.4296 277.533 32.4296 277.533Z" fill="#263238"/>
<path d="M51.0336 208.166C51.0271 208.165 51.0081 208.225 50.9765 208.344C50.9421 208.485 50.8992 208.659 50.8463 208.874C50.7309 209.337 50.5924 210.037 50.37 210.912C50.1387 211.784 49.6046 212.771 49.1479 213.988C48.6734 215.194 48.1917 216.593 47.7481 218.164C47.2991 219.734 46.9007 221.478 46.485 223.346C46.0557 225.21 45.6275 227.21 44.5999 229.096C44.1171 230.053 43.5741 231.021 43.1424 232.08C42.7 233.139 42.4615 234.297 42.2944 235.459C42.0113 237.791 41.5838 240.16 41.0248 242.582C39.8444 247.407 38.7199 252.003 37.6959 256.188C36.6469 260.359 35.7019 264.116 34.9057 267.285C34.1308 270.424 33.5005 272.975 33.0563 274.773C32.8517 275.637 32.6899 276.318 32.5722 276.814C32.5252 277.03 32.4866 277.206 32.4557 277.347C32.4313 277.468 32.4223 277.53 32.4283 277.532C32.4348 277.534 32.4568 277.474 32.4931 277.357C32.5341 277.218 32.5841 277.045 32.6465 276.833C32.7809 276.341 32.9659 275.665 33.1996 274.81C33.6717 273.018 34.3413 270.478 35.1656 267.351C35.9844 264.188 36.9561 260.437 38.0342 256.275C39.0677 252.089 40.203 247.492 41.3947 242.666C41.9531 240.246 42.386 237.834 42.6619 235.513C42.8254 234.359 43.0532 233.243 43.4778 232.216C43.8941 231.184 44.4287 230.221 44.9115 229.254C45.9474 227.332 46.3786 225.272 46.7913 223.415C47.1945 221.542 47.5756 219.804 48.0056 218.237C48.4302 216.669 48.891 215.272 49.3448 214.065C49.7777 212.852 50.2951 211.854 50.5115 210.952C50.7155 210.056 50.8279 209.363 50.9201 208.89C50.9575 208.672 50.9884 208.495 51.0134 208.353C51.0336 208.23 51.0402 208.168 51.0336 208.166Z" fill="#263238"/>
<path d="M33.4684 277.551C37.3141 275.265 38.4178 268.326 36.814 264.15C35.2096 259.973 32.4016 256.158 31.9687 251.704C31.6356 248.281 32.7566 244.768 31.9597 241.422C30.884 236.906 26.4757 233.409 26.5263 228.768C26.5548 226.164 28.0361 223.713 27.9184 221.111C27.7739 217.92 25.3244 215.388 23.8075 212.577C21.4853 208.274 21.3324 203.187 20.5386 198.362C19.7447 193.538 17.906 188.371 13.6297 186C12.9982 190.096 11.9201 192.901 12.259 198.45C12.3803 200.443 14.696 204.259 15.0105 208.626C15.1991 211.236 15.3293 213.851 15.4887 216.463C15.6439 219.005 15.8086 221.594 16.7196 223.972C17.4178 225.794 18.5399 227.45 19.0584 229.331C20.0337 232.872 18.7522 236.705 19.5401 240.292C20.2073 243.331 22.3107 245.946 22.74 249.027C23.3436 253.356 20.5421 257.854 21.9759 261.983C22.6877 264.033 24.373 265.678 24.8511 267.793C25.2222 269.435 24.8178 271.173 25.1538 272.822C25.6949 275.479 30.7627 277.542 33.469 277.378" fill="#2490A9"/>
<path d="M14.6894 190.066C14.6828 190.067 14.6888 190.145 14.706 190.297C14.728 190.469 14.7566 190.691 14.7928 190.97C14.8808 191.562 14.9801 192.431 15.18 193.553C15.3952 194.683 15.9768 195.955 16.4418 197.488C16.9324 199.016 17.4207 200.78 17.8524 202.754C18.2913 204.727 18.6582 206.911 19.0441 209.262C19.4425 211.595 19.8499 214.173 21.0154 216.62C21.5548 217.85 22.1602 219.081 22.6145 220.391C23.0801 221.698 23.2942 223.102 23.4256 224.547C23.6242 227.449 24.0108 230.466 24.5537 233.507C25.7317 239.576 26.8539 245.356 27.8749 250.618C28.9512 255.859 29.9211 260.581 30.7376 264.556C31.5618 268.502 32.2308 271.703 32.6994 273.946C32.9349 275.033 33.1199 275.887 33.2519 276.495C33.3155 276.769 33.3661 276.987 33.4047 277.156C33.441 277.304 33.463 277.38 33.4695 277.378C33.4761 277.377 33.4666 277.299 33.4428 277.148C33.413 276.977 33.3744 276.757 33.3268 276.48C33.212 275.869 33.0503 275.01 32.8439 273.917C32.4039 271.669 31.7747 268.459 30.9999 264.503C30.206 260.523 29.2634 255.796 28.2168 250.549C27.2053 245.289 26.0939 239.51 24.9271 233.443C24.3848 230.399 24.0006 227.426 23.7955 224.513C23.6611 223.06 23.4381 221.613 22.957 220.274C22.489 218.935 21.8753 217.7 21.3354 216.481C20.1764 214.07 19.769 211.552 19.3539 209.21C18.9555 206.864 18.5713 204.674 18.114 202.696C17.6639 200.718 17.1554 198.951 16.6434 197.423C16.1546 195.884 15.5552 194.624 15.3245 193.523C15.1056 192.42 14.9807 191.543 14.8684 190.959C14.8172 190.682 14.7762 190.462 14.7447 190.292C14.7143 190.141 14.6959 190.064 14.6894 190.066Z" fill="#263238"/>
<path d="M198.367 82.8425H179.253V109.633H198.367V82.8425Z" fill="#455A64"/>
<path d="M198.367 82.8425H179.253V85.9479H198.367V82.8425Z" fill="#263238"/>
<path d="M198.367 106.528H179.253V109.634H198.367V106.528Z" fill="#263238"/>
<path d="M194.595 87.858H182.982V93.91H194.595V87.858Z" fill="#263238"/>
<path d="M191.538 90.8842C191.508 90.8854 191.511 90.6416 191.394 90.2331C191.278 89.8323 190.999 89.2489 190.394 88.8035C189.809 88.3569 188.853 88.1101 187.93 88.4568C187.016 88.775 186.228 89.7484 186.239 90.8836C186.228 92.0195 187.016 92.9929 187.93 93.3111C188.853 93.6578 189.809 93.4116 190.394 92.9644C190.999 92.519 191.278 91.9356 191.394 91.5348C191.51 91.1269 191.507 90.8831 191.538 90.8842C191.548 90.8842 191.555 90.9443 191.56 91.0603C191.567 91.1756 191.556 91.3481 191.511 91.5651C191.426 91.9921 191.165 92.6326 190.527 93.1392C189.912 93.6465 188.865 93.9498 187.833 93.5799C186.811 93.2433 185.917 92.158 185.929 90.8842C185.917 89.6111 186.812 88.5258 187.833 88.1892C188.865 87.8199 189.912 88.1226 190.527 88.6299C191.165 89.1365 191.427 89.777 191.511 90.2039C191.556 90.4204 191.567 90.5929 191.56 90.7088C191.555 90.8242 191.548 90.8842 191.538 90.8842Z" fill="#455A64"/>
<path d="M184.319 96.2381C184.319 96.4872 184.118 96.6888 183.869 96.6888C183.62 96.6888 183.418 96.4872 183.418 96.2381C183.418 95.9889 183.62 95.7873 183.869 95.7873C184.118 95.7873 184.319 95.9889 184.319 96.2381Z" fill="#263238"/>
<path d="M187.728 96.2381C187.728 96.4872 187.527 96.6888 187.277 96.6888C187.028 96.6888 186.827 96.4872 186.827 96.2381C186.827 95.9889 187.028 95.7873 187.277 95.7873C187.527 95.7873 187.728 95.9889 187.728 96.2381Z" fill="#263238"/>
<path d="M191.137 96.2381C191.137 96.4872 190.936 96.6888 190.687 96.6888C190.437 96.6888 190.236 96.4872 190.236 96.2381C190.236 95.9889 190.437 95.7873 190.687 95.7873C190.936 95.7873 191.137 95.9889 191.137 96.2381Z" fill="#263238"/>
<path d="M183.869 99.5777C184.118 99.5777 184.319 99.3758 184.319 99.1269C184.319 98.878 184.118 98.6761 183.869 98.6761C183.62 98.6761 183.418 98.878 183.418 99.1269C183.418 99.3758 183.62 99.5777 183.869 99.5777Z" fill="#263238"/>
<path d="M187.728 99.1269C187.728 99.3761 187.527 99.5777 187.277 99.5777C187.028 99.5777 186.827 99.3761 186.827 99.1269C186.827 98.8777 187.028 98.6761 187.277 98.6761C187.527 98.6761 187.728 98.8777 187.728 99.1269Z" fill="#263238"/>
<path d="M190.687 99.5777C190.936 99.5777 191.137 99.3758 191.137 99.1269C191.137 98.878 190.936 98.6761 190.687 98.6761C190.438 98.6761 190.236 98.878 190.236 99.1269C190.236 99.3758 190.438 99.5777 190.687 99.5777Z" fill="#263238"/>
<path d="M183.869 102.466C184.118 102.466 184.319 102.265 184.319 102.016C184.319 101.767 184.118 101.565 183.869 101.565C183.62 101.565 183.418 101.767 183.418 102.016C183.418 102.265 183.62 102.466 183.869 102.466Z" fill="#263238"/>
<path d="M187.728 102.016C187.728 102.265 187.527 102.466 187.277 102.466C187.028 102.466 186.827 102.265 186.827 102.016C186.827 101.767 187.028 101.565 187.277 101.565C187.527 101.565 187.728 101.767 187.728 102.016Z" fill="#263238"/>
<path d="M190.687 102.466C190.936 102.466 191.137 102.265 191.137 102.016C191.137 101.767 190.936 101.565 190.687 101.565C190.438 101.565 190.236 101.767 190.236 102.016C190.236 102.265 190.438 102.466 190.687 102.466Z" fill="#263238"/>
<path d="M194.233 100.76C195.135 100.76 195.866 100.029 195.866 99.1269C195.866 98.2247 195.135 97.4933 194.233 97.4933C193.33 97.4933 192.599 98.2247 192.599 99.1269C192.599 100.029 193.33 100.76 194.233 100.76Z" fill="#2490A9"/>
<path d="M171.097 22.6118H160.034V279.95H171.097V22.6118Z" fill="#263238"/>
<path d="M160.035 33.4685H49.8957V279.95H160.035V33.4685Z" fill="#455A64"/>
<path d="M52.9821 22.6117H42.7901V279.95H52.9821V22.6117Z" fill="#263238"/>
<path d="M171.097 22.6117H42.7901V33.4685H171.097V22.6117Z" fill="#263238"/>
<path d="M171.097 22.6118C171.111 22.6284 170.962 22.7801 170.684 23.0429C170.35 23.3486 169.952 23.7131 169.488 24.1371C168.413 25.1088 167.042 26.3498 165.525 27.7217C163.987 29.1311 162.614 30.4287 161.673 31.4146C161.203 31.907 160.841 32.3227 160.621 32.6283C160.508 32.7806 160.441 32.9072 160.395 32.9947C160.368 33.0839 160.346 33.1356 160.335 33.1356C160.325 33.1356 160.324 33.0833 160.335 32.975C160.365 32.8757 160.419 32.73 160.519 32.5635C160.715 32.2263 161.058 31.7833 161.512 31.2671C162.42 30.2336 163.774 28.9063 165.316 27.494C166.857 26.0822 168.292 24.8483 169.345 23.9718C169.871 23.5341 170.303 23.1856 170.605 22.9513C170.909 22.7164 171.083 22.5957 171.097 22.6118Z" fill="#455A64"/>
<path d="M52.982 33.6916C52.919 33.7493 50.5861 31.3159 47.7721 28.257C44.957 25.1968 42.727 22.6701 42.79 22.6118C42.853 22.5541 45.1853 24.9869 48.0005 28.047C50.8144 31.1066 53.045 33.6339 52.982 33.6916Z" fill="#455A64"/>
<path d="M59.7368 178.54H59.4211C57.4616 178.54 55.8733 176.952 55.8733 174.993V149.17C55.8733 147.21 57.4616 145.622 59.4211 145.622H59.7368C61.6963 145.622 63.2846 147.21 63.2846 149.17V174.993C63.2846 176.952 61.6963 178.54 59.7368 178.54Z" fill="#263238"/>
<path d="M61.0837 170.457C61.0837 169.767 60.5247 169.208 59.8349 169.208C59.1451 169.208 58.5861 169.767 58.5861 170.457C58.5861 170.944 58.868 171.362 59.2742 171.568V173.018C59.2742 173.328 59.5251 173.579 59.8349 173.579C60.1447 173.579 60.3957 173.328 60.3957 173.018V171.568C60.8024 171.361 61.0837 170.944 61.0837 170.457Z" fill="#455A64"/>
<path d="M77.9989 160.646H61.3655C60.3249 160.646 59.481 159.803 59.481 158.762V158.594C59.481 157.554 60.3249 156.71 61.3655 156.71H77.9989C79.0396 156.71 79.8834 157.554 79.8834 158.594V158.762C79.8834 159.803 79.0396 160.646 77.9989 160.646Z" fill="#263238"/>
<path d="M66.8936 160.759C66.893 160.782 66.6718 160.792 66.274 160.81C65.8066 160.831 65.244 160.855 64.5857 160.884C63.8721 160.904 63.0134 160.924 62.0625 160.797C61.5921 160.728 61.0873 160.644 60.5925 160.426C60.1055 160.213 59.6232 159.867 59.3324 159.346C59.0511 158.826 59.0095 158.195 59.2527 157.676C59.3693 157.42 59.5816 157.194 59.8159 157.066C60.0454 156.931 60.2803 156.846 60.5099 156.769C61.4363 156.461 62.32 156.483 63.0277 156.472C63.7448 156.475 64.3217 156.507 64.7201 156.531C65.1185 156.557 65.3391 156.579 65.3386 156.601C65.3391 156.651 64.4519 156.653 63.0312 156.691C62.3218 156.729 61.4708 156.732 60.5996 157.04C60.1667 157.194 59.7076 157.375 59.5269 157.806C59.333 158.22 59.3663 158.763 59.6036 159.197C59.8474 159.635 60.2702 159.951 60.7156 160.149C61.1616 160.351 61.6445 160.439 62.103 160.514C63.0229 160.654 63.8709 160.658 64.5821 160.664C66.0087 160.658 66.8966 160.712 66.8936 160.759Z" fill="#455A64"/>
<path d="M101.931 88.6566C101.931 88.6566 101.925 88.5877 101.923 88.4598C101.921 88.3224 101.918 88.1357 101.915 87.8937C101.912 87.3864 101.906 86.6544 101.899 85.7047C101.89 83.7869 101.878 80.9967 101.862 77.4632C101.845 70.3926 101.821 60.3469 101.793 48.3995L101.931 48.5375C92.2205 48.5422 81.0633 48.5482 69.2503 48.5541H69.2467L69.4013 48.3995C69.3918 63.2929 69.3829 77.1409 69.3757 88.6566L69.2467 88.5276C79.0783 88.5555 87.2324 88.5781 92.94 88.5942C95.7914 88.6085 98.0309 88.6198 99.5699 88.6275C100.329 88.634 100.914 88.6388 101.321 88.6424C101.718 88.6471 101.931 88.6566 101.931 88.6566C101.931 88.6566 101.737 88.6662 101.349 88.6709C100.947 88.6745 100.37 88.6792 99.6217 88.6858C98.0898 88.6935 95.8598 88.7048 93.0209 88.7191C87.2936 88.7351 79.1116 88.7583 69.2461 88.7857L69.1171 88.7863V88.6566C69.1099 77.1409 69.101 63.2929 69.0915 48.3995V48.2449H69.2467H69.2503C81.0633 48.2508 92.2205 48.2568 101.931 48.2615H102.069L102.069 48.4001C102.04 60.3844 102.016 70.461 101.999 77.553C101.984 81.0734 101.971 83.8529 101.962 85.7636C101.955 86.7014 101.95 87.4239 101.946 87.9252C101.942 88.1607 101.94 88.3427 101.938 88.4765C101.936 88.5978 101.933 88.659 101.931 88.6566Z" fill="#263238"/>
<path d="M96.5496 83.674C96.5466 83.671 96.5443 83.6192 96.5413 83.5205C96.5395 83.4099 96.5365 83.2672 96.533 83.084C96.5288 82.6886 96.5235 82.1266 96.5163 81.4029C96.5074 79.9264 96.4949 77.7915 96.4789 75.0953C96.4616 69.691 96.4378 62.0382 96.4093 52.9826L96.5496 53.123C89.7704 53.1271 82.1117 53.1325 74.032 53.1372C73.9939 53.1699 74.3234 52.8476 74.1842 52.9886V52.9969V53.0135V53.0474V53.1146V53.249V53.5172V54.0524V55.1192C74.1842 55.8287 74.1842 56.5346 74.1836 57.2363C74.183 58.6403 74.1824 60.0282 74.1824 61.3989C74.1806 64.1403 74.1789 66.8104 74.1771 69.3924C74.1693 74.5547 74.1622 79.362 74.1563 83.674L74.0302 83.5479C80.8308 83.5752 86.4427 83.5978 90.371 83.6139C92.3275 83.6276 93.8635 83.6389 94.9262 83.646C95.4424 83.6519 95.8432 83.6567 96.1292 83.6603C96.4021 83.665 96.5496 83.674 96.5496 83.674C96.5496 83.674 96.42 83.6829 96.1554 83.6876C95.8747 83.6912 95.4822 83.696 94.9761 83.7019C93.92 83.7096 92.3935 83.7203 90.4489 83.734C86.5015 83.7501 80.8623 83.7727 74.029 83.8L73.9029 83.8006V83.674C73.8964 79.3626 73.8899 74.5547 73.8821 69.3924C73.8803 66.8104 73.8786 64.1403 73.8768 61.3989C73.8762 60.0282 73.8756 58.6397 73.875 57.2363C73.875 56.5346 73.875 55.8287 73.8744 55.1192V54.0524V53.5172V53.249V53.1146V53.0474V53.0135V52.9969V52.9886C73.7364 53.1247 74.0611 52.7929 74.032 52.828C82.1117 52.8333 89.7704 52.8381 96.5496 52.8429H96.6906L96.69 52.9832C96.6614 62.0763 96.637 69.7605 96.6204 75.1875C96.6043 77.8706 96.5918 79.9942 96.5829 81.4636C96.5758 82.1754 96.5698 82.7272 96.5663 83.1167C96.5627 83.2934 96.5603 83.4313 96.5579 83.5378C96.555 83.6305 96.5526 83.6769 96.5496 83.674Z" fill="#263238"/>
<path d="M101.931 173.632C101.931 173.632 101.925 173.503 101.922 173.259C101.919 173.007 101.916 172.647 101.913 172.175C101.909 171.216 101.902 169.811 101.894 167.99C101.885 164.339 101.871 159.029 101.853 152.352C101.836 139.008 101.812 120.212 101.783 98.364L101.931 98.5115C91.7727 98.5139 80.7208 98.5162 69.252 98.5186H69.2467L69.4013 98.364C69.3841 127.677 69.3686 154.257 69.3573 173.632L69.2467 173.522C79.3257 173.547 87.4821 173.567 93.1285 173.582C95.952 173.593 98.1457 173.603 99.6425 173.609C100.385 173.614 100.953 173.618 101.343 173.621C101.728 173.624 101.931 173.632 101.931 173.632C101.931 173.632 101.743 173.64 101.366 173.643C100.979 173.646 100.419 173.65 99.6853 173.655C98.1939 173.662 96.0085 173.671 93.1957 173.683C87.5333 173.697 79.3536 173.717 69.2467 173.742H69.1355V173.631C69.1242 154.256 69.1087 127.676 69.0915 98.3628V98.2082H69.2467H69.252C80.7214 98.2106 91.7727 98.213 101.931 98.2153H102.079V98.3628C102.05 120.251 102.026 139.082 102.009 152.451C101.991 159.113 101.977 164.412 101.968 168.055C101.959 169.862 101.953 171.257 101.949 172.209C101.945 172.673 101.942 173.028 101.94 173.275C101.937 173.515 101.931 173.632 101.931 173.632Z" fill="#263238"/>
<path d="M96.5496 169.462C96.5496 169.462 96.543 169.345 96.5401 169.127C96.5377 168.9 96.5347 168.579 96.5306 168.159C96.5258 167.301 96.5199 166.049 96.5115 164.43C96.5014 161.178 96.4872 156.459 96.4693 150.544C96.4521 138.722 96.4277 122.129 96.3997 103.004L96.5496 103.153C89.454 103.155 81.8619 103.156 74.0337 103.158H74.0296L74.1842 103.004C74.1634 129.574 74.1443 153.419 74.1318 169.462L74.0296 169.359C81.0698 169.383 86.6859 169.402 90.553 169.415C92.4839 169.426 93.9765 169.435 94.9969 169.44C95.4982 169.445 95.8824 169.449 96.1506 169.451C96.4116 169.455 96.5496 169.462 96.5496 169.462C96.5496 169.462 96.4253 169.469 96.1714 169.472C95.9068 169.475 95.5291 169.478 95.0356 169.483C94.0205 169.489 92.5356 169.497 90.6148 169.508C86.7334 169.521 81.096 169.54 74.0296 169.564L73.9273 169.565V169.462C73.9148 153.419 73.8958 129.574 73.8749 103.004V102.849H74.0302H74.0343C81.8625 102.851 89.4546 102.853 96.5502 102.854H96.7V103.004C96.6721 122.17 96.6477 138.8 96.6305 150.647C96.6126 156.547 96.5983 161.255 96.5882 164.498C96.5799 166.104 96.5734 167.345 96.5686 168.196C96.5645 168.608 96.5615 168.923 96.5591 169.146C96.5561 169.358 96.5496 169.462 96.5496 169.462Z" fill="#263238"/>
<path d="M101.931 268.957C101.931 268.957 101.925 268.828 101.922 268.583C101.919 268.332 101.916 267.971 101.913 267.499C101.909 266.541 101.902 265.135 101.894 263.314C101.885 259.664 101.871 254.353 101.853 247.677C101.836 234.333 101.812 215.536 101.783 193.689L101.931 193.836C91.7727 193.838 80.7208 193.841 69.252 193.843H69.2467L69.4013 193.689C69.3841 223.001 69.3686 249.582 69.3573 268.957L69.2467 268.846C79.3257 268.872 87.4821 268.892 93.1285 268.906C95.952 268.918 98.1457 268.928 99.6425 268.933C100.385 268.939 100.953 268.943 101.343 268.945C101.728 268.949 101.931 268.957 101.931 268.957C101.931 268.957 101.743 268.964 101.366 268.968C100.979 268.971 100.419 268.975 99.6853 268.98C98.1939 268.986 96.0085 268.995 93.1957 269.007C87.5333 269.021 79.3536 269.042 69.2467 269.067H69.1355V268.956C69.1242 249.581 69.1087 223.001 69.0915 193.688V193.533H69.2467H69.252C80.7214 193.535 91.7727 193.538 101.931 193.54H102.079V193.687C102.05 215.575 102.026 234.407 102.009 247.775C101.991 254.437 101.977 259.736 101.968 263.379C101.959 265.186 101.953 266.581 101.949 267.533C101.945 267.997 101.942 268.352 101.94 268.6C101.937 268.84 101.931 268.957 101.931 268.957Z" fill="#263238"/>
<path d="M96.5496 264.786C96.5496 264.786 96.543 264.67 96.5401 264.451C96.5377 264.225 96.5347 263.903 96.5306 263.483C96.5258 262.625 96.5199 261.373 96.5115 259.754C96.5014 256.503 96.4872 251.784 96.4693 245.869C96.4521 234.047 96.4277 217.453 96.3997 198.328L96.5496 198.478C89.454 198.48 81.8619 198.482 74.0337 198.483H74.0296L74.1842 198.329C74.1634 224.899 74.1443 248.745 74.1318 264.787L74.0296 264.685C81.0698 264.708 86.6859 264.727 90.553 264.741C92.4839 264.751 93.9765 264.76 94.9969 264.765C95.4982 264.77 95.8824 264.774 96.1506 264.776C96.4116 264.779 96.5496 264.786 96.5496 264.786C96.5496 264.786 96.4253 264.793 96.1714 264.797C95.9068 264.799 95.5291 264.803 95.0356 264.808C94.0205 264.814 92.5356 264.822 90.6148 264.833C86.7334 264.846 81.096 264.865 74.0296 264.889H73.9273V264.786C73.9148 248.743 73.8958 224.898 73.8749 198.328V198.173H74.0302H74.0343C81.8625 198.175 89.4546 198.176 96.5502 198.178H96.7V198.328C96.6721 217.495 96.6477 234.124 96.6305 245.972C96.6126 251.872 96.5983 256.579 96.5882 259.823C96.5799 261.428 96.5734 262.669 96.5686 263.52C96.5645 263.932 96.5615 264.248 96.5591 264.471C96.5561 264.682 96.5496 264.786 96.5496 264.786Z" fill="#263238"/>
<path d="M74.5559 83.6609C74.61 83.7275 73.3588 84.8354 71.7616 86.1353C70.1637 87.4359 68.8257 88.4361 68.7716 88.3695C68.7175 88.3029 69.9686 87.1956 71.5659 85.8951C73.1632 84.5945 74.5018 83.5943 74.5559 83.6609Z" fill="#263238"/>
<path d="M102.116 88.0638C102.071 88.1322 100.735 87.3312 99.2511 86.118C97.7633 84.9079 96.7101 83.7608 96.7684 83.7031C96.8309 83.6395 97.9726 84.6789 99.4468 85.8778C100.917 87.0808 102.166 87.9895 102.116 88.0638Z" fill="#263238"/>
<path d="M101.444 49.354C101.494 49.423 100.389 50.312 98.9771 51.339C97.5642 52.3666 96.3784 53.1432 96.3279 53.0742C96.2774 53.0052 97.3817 52.1162 98.7946 51.0886C100.208 50.0616 101.394 49.285 101.444 49.354Z" fill="#263238"/>
<path d="M74.1241 52.4747C74.0848 52.5466 72.8325 51.9276 71.4184 50.9511C70.0013 49.9777 68.9761 49.0292 69.0296 48.9662C69.0861 48.8978 70.1904 49.7315 71.5938 50.696C72.9942 51.6636 74.1675 52.3974 74.1241 52.4747Z" fill="#263238"/>
<path d="M73.9119 103.099C73.8762 103.166 72.4764 102.347 71.1699 100.861C69.8533 99.3826 69.2117 97.8936 69.2824 97.8662C69.3663 97.8204 70.1162 99.2137 71.4018 100.655C72.6762 102.107 73.9678 103.021 73.9119 103.099Z" fill="#263238"/>
<path d="M101.522 98.3289C101.579 98.3931 100.541 99.3975 99.2048 100.572C97.868 101.747 96.7393 102.647 96.6828 102.583C96.6263 102.518 97.664 101.514 99.0008 100.339C100.336 99.1644 101.466 98.2647 101.522 98.3289Z" fill="#263238"/>
<path d="M73.9011 169.804C73.9511 169.879 72.8652 170.667 71.6343 171.76C70.398 172.849 69.4846 173.831 69.4162 173.772C69.3531 173.721 70.1738 172.635 71.4291 171.528C72.6797 170.417 73.8589 169.736 73.9011 169.804Z" fill="#263238"/>
<path d="M101.011 173.562C100.953 173.625 99.9375 172.781 98.7428 171.678C97.5475 170.574 96.6258 169.628 96.6841 169.565C96.7424 169.502 97.7575 170.346 98.9527 171.45C100.147 172.553 101.069 173.5 101.011 173.562Z" fill="#263238"/>
<path d="M74.456 199.22C74.3941 199.28 73.1644 198.099 71.7098 196.585C70.2547 195.069 69.1254 193.793 69.1866 193.734C69.2479 193.675 70.4777 194.855 71.9328 196.37C73.388 197.884 74.5172 199.161 74.456 199.22Z" fill="#263238"/>
<path d="M101.818 193.498C101.878 193.56 100.758 194.734 99.3173 196.122C97.8758 197.51 96.6603 198.586 96.6008 198.524C96.5414 198.462 97.6611 197.287 99.1026 195.899C100.543 194.512 101.759 193.437 101.818 193.498Z" fill="#263238"/>
<path d="M73.3677 264.399C73.4313 264.456 72.5709 265.511 71.4458 266.754C70.3207 267.997 69.3573 268.958 69.2943 268.901C69.2306 268.844 70.0911 267.79 71.2162 266.546C72.3407 265.303 73.3041 264.341 73.3677 264.399Z" fill="#263238"/>
<path d="M101.39 268.955C101.339 269.021 100.154 268.181 98.8509 266.957C97.5445 265.736 96.6293 264.608 96.6911 264.554C96.7571 264.494 97.7675 265.521 99.0627 266.731C100.354 267.944 101.445 268.886 101.39 268.955Z" fill="#263238"/>
<path d="M145.431 88.6566C145.431 88.6566 145.425 88.5877 145.423 88.4598C145.421 88.3224 145.418 88.1357 145.415 87.8937C145.412 87.3864 145.406 86.6544 145.399 85.7047C145.39 83.7869 145.378 80.9967 145.362 77.4632C145.345 70.3926 145.321 60.3469 145.293 48.3995L145.431 48.5375C135.72 48.5422 124.563 48.5482 112.75 48.5541H112.747L112.901 48.3995C112.892 63.2929 112.883 77.1409 112.876 88.6566L112.747 88.5276C122.578 88.5555 130.732 88.5781 136.44 88.5942C139.291 88.6085 141.531 88.6198 143.07 88.6275C143.829 88.634 144.414 88.6388 144.821 88.6424C145.218 88.6471 145.431 88.6566 145.431 88.6566C145.431 88.6566 145.237 88.6662 144.848 88.6709C144.446 88.6745 143.87 88.6792 143.122 88.6858C141.59 88.6935 139.36 88.7048 136.521 88.7191C130.794 88.7351 122.612 88.7583 112.746 88.7857L112.617 88.7863V88.6566C112.61 77.1409 112.601 63.2929 112.591 48.3995V48.2449H112.747H112.75C124.563 48.2508 135.72 48.2568 145.431 48.2615H145.569L145.569 48.4001C145.54 60.3844 145.516 70.461 145.499 77.553C145.484 81.0734 145.471 83.8529 145.462 85.7636C145.455 86.7014 145.45 87.4239 145.446 87.9252C145.442 88.1607 145.44 88.3427 145.438 88.4765C145.436 88.5978 145.434 88.659 145.431 88.6566Z" fill="#263238"/>
<path d="M140.05 83.674C140.047 83.671 140.045 83.6192 140.042 83.5205C140.04 83.4099 140.037 83.2672 140.033 83.084C140.029 82.6886 140.024 82.1266 140.017 81.4029C140.008 79.9264 139.995 77.7915 139.979 75.0953C139.962 69.691 139.938 62.0382 139.91 52.9826L140.05 53.123C133.271 53.1271 125.612 53.1325 117.532 53.1372C117.494 53.1699 117.824 52.8476 117.685 52.9886V52.9969V53.0135V53.0474V53.1146V53.249V53.5172V54.0524V55.1192C117.685 55.8287 117.685 56.5346 117.684 57.2363C117.683 58.6403 117.683 60.0282 117.683 61.3989C117.681 64.1403 117.679 66.8104 117.678 69.3924C117.67 74.5547 117.663 79.362 117.657 83.674L117.531 83.5479C124.331 83.5752 129.943 83.5978 133.871 83.6139C135.828 83.6276 137.364 83.6389 138.427 83.646C138.943 83.6519 139.344 83.6567 139.63 83.6603C139.902 83.665 140.05 83.674 140.05 83.674C140.05 83.674 139.92 83.6829 139.656 83.6876C139.375 83.6912 138.983 83.696 138.477 83.7019C137.42 83.7096 135.894 83.7203 133.949 83.734C130.003 83.7501 124.363 83.7727 117.529 83.8L117.403 83.8006V83.674C117.397 79.3626 117.39 74.5547 117.383 69.3924C117.381 66.8104 117.379 64.1403 117.377 61.3989C117.377 60.0282 117.376 58.6397 117.375 57.2363C117.375 56.5346 117.375 55.8287 117.375 55.1192V54.0524V53.5172V53.249V53.1146V53.0474V53.0135V52.9969V52.9886C117.237 53.1247 117.562 52.7929 117.532 52.828C125.612 52.8333 133.271 52.8381 140.05 52.8429H140.191L140.19 52.9832C140.162 62.0763 140.137 69.7605 140.121 75.1875C140.105 77.8706 140.092 79.9942 140.083 81.4636C140.076 82.1754 140.07 82.7272 140.067 83.1167C140.063 83.2934 140.061 83.4313 140.058 83.5378C140.055 83.6305 140.052 83.6769 140.05 83.674Z" fill="#263238"/>
<path d="M145.431 173.632C145.431 173.632 145.425 173.503 145.422 173.259C145.419 173.007 145.416 172.647 145.413 172.175C145.409 171.216 145.402 169.811 145.394 167.99C145.385 164.339 145.371 159.029 145.353 152.352C145.336 139.008 145.312 120.212 145.283 98.364L145.431 98.5115C135.272 98.5139 124.221 98.5162 112.752 98.5186H112.747L112.901 98.364C112.884 127.677 112.868 154.257 112.857 173.632L112.747 173.522C122.826 173.547 130.982 173.567 136.628 173.582C139.452 173.593 141.646 173.603 143.142 173.609C143.884 173.614 144.452 173.618 144.843 173.621C145.228 173.624 145.431 173.632 145.431 173.632C145.431 173.632 145.243 173.64 144.866 173.643C144.479 173.646 143.918 173.65 143.185 173.655C141.694 173.662 139.508 173.671 136.696 173.683C131.033 173.697 122.853 173.717 112.747 173.742H112.636V173.631C112.625 154.256 112.609 127.676 112.592 98.3628V98.2082H112.747H112.752C124.222 98.2106 135.273 98.213 145.431 98.2153H145.579V98.3628C145.551 120.251 145.526 139.082 145.509 152.451C145.492 159.113 145.478 164.412 145.468 168.055C145.46 169.862 145.454 171.257 145.45 172.209C145.445 172.673 145.442 173.028 145.441 173.275C145.437 173.515 145.431 173.632 145.431 173.632Z" fill="#263238"/>
<path d="M140.05 169.462C140.05 169.462 140.043 169.345 140.04 169.127C140.038 168.9 140.035 168.579 140.031 168.159C140.026 167.301 140.02 166.049 140.012 164.43C140.002 161.178 139.988 156.459 139.97 150.544C139.952 138.722 139.928 122.129 139.9 103.004L140.05 103.153C132.954 103.155 125.362 103.156 117.534 103.158H117.53L117.685 103.004C117.664 129.574 117.645 153.419 117.632 169.462L117.53 169.359C124.57 169.383 130.186 169.402 134.053 169.415C135.984 169.426 137.477 169.435 138.497 169.44C138.999 169.445 139.383 169.449 139.651 169.451C139.911 169.455 140.05 169.462 140.05 169.462C140.05 169.462 139.926 169.469 139.672 169.472C139.407 169.475 139.03 169.478 138.536 169.483C137.521 169.489 136.036 169.497 134.115 169.508C130.234 169.521 124.596 169.54 117.53 169.564L117.428 169.565V169.462C117.415 153.419 117.396 129.574 117.375 103.004V102.849H117.531H117.535C125.363 102.851 132.955 102.853 140.051 102.854H140.2V103.004C140.173 122.17 140.148 138.8 140.131 150.647C140.113 156.547 140.099 161.255 140.089 164.498C140.08 166.104 140.074 167.345 140.07 168.196C140.065 168.608 140.062 168.923 140.06 169.146C140.056 169.358 140.05 169.462 140.05 169.462Z" fill="#263238"/>
<path d="M145.431 268.957C145.431 268.957 145.425 268.828 145.422 268.583C145.419 268.332 145.416 267.971 145.413 267.499C145.409 266.541 145.402 265.135 145.394 263.314C145.385 259.664 145.371 254.353 145.353 247.677C145.336 234.333 145.312 215.536 145.283 193.689L145.431 193.836C135.272 193.838 124.221 193.841 112.752 193.843H112.747L112.901 193.689C112.884 223.001 112.868 249.582 112.857 268.957L112.747 268.846C122.826 268.872 130.982 268.892 136.628 268.906C139.452 268.918 141.646 268.928 143.142 268.933C143.884 268.939 144.452 268.943 144.843 268.945C145.228 268.949 145.431 268.957 145.431 268.957C145.431 268.957 145.243 268.964 144.866 268.968C144.479 268.971 143.918 268.975 143.185 268.98C141.694 268.986 139.508 268.995 136.696 269.007C131.033 269.021 122.853 269.042 112.747 269.067H112.636V268.956C112.625 249.581 112.609 223.001 112.592 193.688V193.533H112.747H112.752C124.222 193.535 135.273 193.538 145.431 193.54H145.579V193.687C145.551 215.575 145.526 234.407 145.509 247.775C145.492 254.437 145.478 259.736 145.468 263.379C145.46 265.186 145.454 266.581 145.45 267.533C145.445 267.997 145.442 268.352 145.441 268.6C145.437 268.84 145.431 268.957 145.431 268.957Z" fill="#263238"/>
<path d="M140.05 264.786C140.05 264.786 140.043 264.67 140.04 264.451C140.038 264.225 140.035 263.903 140.031 263.483C140.026 262.625 140.02 261.373 140.012 259.754C140.002 256.503 139.988 251.784 139.97 245.869C139.952 234.047 139.928 217.453 139.9 198.328L140.05 198.478C132.954 198.48 125.362 198.482 117.534 198.483H117.53L117.685 198.329C117.664 224.899 117.645 248.745 117.632 264.787L117.53 264.685C124.57 264.708 130.186 264.727 134.053 264.741C135.984 264.751 137.477 264.76 138.497 264.765C138.999 264.77 139.383 264.774 139.651 264.776C139.911 264.779 140.05 264.786 140.05 264.786C140.05 264.786 139.926 264.793 139.672 264.797C139.407 264.799 139.03 264.803 138.536 264.808C137.521 264.814 136.036 264.822 134.115 264.833C130.234 264.846 124.596 264.865 117.53 264.889H117.428V264.786C117.415 248.743 117.396 224.898 117.375 198.328V198.173H117.531H117.535C125.363 198.175 132.955 198.176 140.051 198.178H140.2V198.328C140.173 217.495 140.148 234.124 140.131 245.972C140.113 251.872 140.099 256.579 140.089 259.823C140.08 261.428 140.074 262.669 140.07 263.52C140.065 263.932 140.062 264.248 140.06 264.471C140.056 264.682 140.05 264.786 140.05 264.786Z" fill="#263238"/>
<path d="M118.056 83.6609C118.11 83.7275 116.859 84.8354 115.261 86.1353C113.664 87.4359 112.326 88.4361 112.271 88.3695C112.217 88.3029 113.469 87.1956 115.066 85.8951C116.663 84.5945 118.002 83.5943 118.056 83.6609Z" fill="#263238"/>
<path d="M145.616 88.0638C145.572 88.1322 144.236 87.3312 142.752 86.118C141.264 84.9079 140.211 83.7608 140.269 83.7031C140.331 83.6395 141.473 84.6789 142.947 85.8778C144.418 87.0808 145.666 87.9895 145.616 88.0638Z" fill="#263238"/>
<path d="M144.944 49.354C144.994 49.423 143.889 50.312 142.477 51.339C141.064 52.3666 139.878 53.1432 139.828 53.0742C139.777 53.0052 140.882 52.1162 142.294 51.0886C143.707 50.0616 144.894 49.285 144.944 49.354Z" fill="#263238"/>
<path d="M117.624 52.4747C117.585 52.5466 116.332 51.9276 114.918 50.9511C113.501 49.9777 112.476 49.0292 112.529 48.9662C112.586 48.8978 113.69 49.7315 115.094 50.696C116.495 51.6636 117.667 52.3974 117.624 52.4747Z" fill="#263238"/>
<path d="M117.412 103.099C117.377 103.166 115.977 102.347 114.67 100.861C113.354 99.3826 112.712 97.8936 112.783 97.8662C112.867 97.8204 113.617 99.2137 114.902 100.655C116.176 102.107 117.468 103.021 117.412 103.099Z" fill="#263238"/>
<path d="M145.022 98.3289C145.079 98.3931 144.041 99.3975 142.705 100.572C141.368 101.747 140.239 102.647 140.183 102.583C140.126 102.518 141.164 101.514 142.501 100.339C143.836 99.1644 144.966 98.2647 145.022 98.3289Z" fill="#263238"/>
<path d="M117.402 169.804C117.452 169.879 116.366 170.667 115.135 171.76C113.898 172.849 112.985 173.831 112.917 173.772C112.854 173.721 113.674 172.635 114.93 171.528C116.18 170.417 117.359 169.736 117.402 169.804Z" fill="#263238"/>
<path d="M144.511 173.562C144.453 173.625 143.437 172.781 142.243 171.678C141.047 170.574 140.126 169.628 140.184 169.565C140.242 169.502 141.258 170.346 142.453 171.45C143.647 172.553 144.569 173.5 144.511 173.562Z" fill="#263238"/>
<path d="M117.956 199.22C117.894 199.279 116.664 198.099 115.21 196.584C113.755 195.069 112.625 193.793 112.687 193.734C112.748 193.675 113.978 194.855 115.433 196.37C116.888 197.884 118.018 199.161 117.956 199.22Z" fill="#263238"/>
<path d="M145.318 193.498C145.378 193.56 144.257 194.734 142.817 196.122C141.376 197.51 140.16 198.586 140.101 198.524C140.041 198.462 141.161 197.287 142.602 195.899C144.043 194.512 145.259 193.437 145.318 193.498Z" fill="#263238"/>
<path d="M116.868 264.399C116.931 264.456 116.07 265.511 114.946 266.754C113.821 267.997 112.857 268.958 112.794 268.901C112.731 268.844 113.591 267.79 114.716 266.546C115.841 265.303 116.804 264.341 116.868 264.399Z" fill="#263238"/>
<path d="M144.889 268.955C144.839 269.021 143.654 268.181 142.351 266.957C141.044 265.736 140.129 264.608 140.191 264.554C140.257 264.494 141.267 265.521 142.563 266.731C143.855 267.944 144.945 268.886 144.889 268.955Z" fill="#263238"/>
<path d="M209.567 227.512H136.627V279.951H209.567V227.512Z" fill="#2490A9"/>
<path d="M156.191 227.512C156.295 227.512 156.191 238.584 156.191 238.584H150.792V227.512H156.191Z" fill="#263238"/>
<g opacity="0.4">
<path d="M173.097 279.95H209.568V227.512H173.097V279.95Z" fill="black"/>
</g>
<path d="M148.615 269.684H138.851V276.594H148.615V269.684Z" fill="#FAFAFA"/>
<path d="M148.63 276.61H138.836V269.669H148.63V276.61ZM138.866 276.58H148.6V269.7H138.866V276.58Z" fill="#263238"/>
<path d="M155.299 269.684H150.417V276.594H155.299V269.684Z" fill="#FAFAFA"/>
<path d="M155.314 276.61H150.402V269.669H155.314V276.61ZM150.432 276.58H155.284V269.7H150.432V276.58Z" fill="#263238"/>
<path d="M296.759 31.7041H219.098V171.216H296.759V31.7041Z" fill="#EBEBEB"/>
<path d="M292.855 35.7498H222.201V167.06H292.855V35.7498Z" fill="#FAFAFA"/>
<path d="M300.044 172.474L296.759 171.217V29.3381H300.044V172.474Z" fill="#E0E0E0"/>
<path d="M294.39 73.5242H222.201V74.9222H294.39V73.5242Z" fill="#E0E0E0"/>
<path d="M294.39 104.794H222.201V106.192H294.39V104.794Z" fill="#E0E0E0"/>
<path d="M294.39 136.065H222.201V137.463H294.39V136.065Z" fill="#E0E0E0"/>
<path d="M255.744 74.2236V170.784H259.313V74.2236H255.744Z" fill="#E0E0E0"/>
<path d="M237.423 35.7498H235.806V74.2229H237.423V35.7498Z" fill="#E0E0E0"/>
<path d="M251.371 35.7498H249.754V74.2229H251.371V35.7498Z" fill="#E0E0E0"/>
<path d="M265.319 35.7498H263.702V74.2229H265.319V35.7498Z" fill="#E0E0E0"/>
<path d="M279.267 35.7498H277.65V74.2229H279.267V35.7498Z" fill="#E0E0E0"/>
<path d="M219.098 29.3381H215.813V172.08H219.098V29.3381Z" fill="#E0E0E0"/>
<path d="M300.044 27.8977H215.813V31.7042H300.044V27.8977Z" fill="#E0E0E0"/>
<path d="M302.267 172.944H213.483V176.49H302.267V172.944Z" fill="#E0E0E0"/>
<path d="M296.759 171.217L302.267 172.944H213.483L219.098 171.217H296.759Z" fill="#E0E0E0"/>
<path d="M327.482 208.645C327.48 208.642 327.477 208.603 327.474 208.529C327.473 208.444 327.47 208.337 327.467 208.204C327.462 207.905 327.457 207.488 327.449 206.954C327.439 205.858 327.425 204.282 327.408 202.296L327.482 202.37C322.002 202.381 313.287 202.398 303.483 202.418C303.537 202.363 303.36 202.539 303.604 202.296V202.297V202.3V202.307V202.32V202.346V202.397V202.499V202.703V203.11C303.604 203.381 303.604 203.651 303.604 203.92C303.604 204.458 303.603 204.992 303.603 205.523C303.603 206.583 303.602 207.625 303.601 208.646L303.482 208.527C310.316 208.548 316.296 208.567 320.585 208.581C322.722 208.595 324.436 208.607 325.633 208.615C326.216 208.621 326.672 208.626 326.999 208.63C327.146 208.633 327.263 208.636 327.356 208.638C327.437 208.64 327.48 208.642 327.482 208.645C327.484 208.647 327.447 208.65 327.371 208.653C327.282 208.654 327.169 208.657 327.028 208.66C326.708 208.664 326.261 208.669 325.689 208.676C324.498 208.684 322.793 208.695 320.668 208.71C316.358 208.723 310.349 208.742 303.481 208.764L303.362 208.764V208.644C303.361 207.623 303.361 206.581 303.36 205.521C303.36 204.991 303.359 204.457 303.359 203.918C303.359 203.65 303.359 203.38 303.359 203.109V202.701V202.497V202.395V202.344V202.318V202.305V202.299V202.296V202.294C303.604 202.049 303.428 202.226 303.483 202.171C313.287 202.191 322.002 202.208 327.482 202.219H327.557L327.556 202.294C327.539 204.3 327.525 205.89 327.515 206.997C327.508 207.524 327.502 207.935 327.498 208.23C327.495 208.358 327.492 208.461 327.49 208.543C327.487 208.613 327.484 208.647 327.482 208.645Z" fill="#E0E0E0"/>
<path d="M324.166 76.2287C324.164 76.2264 324.161 76.1871 324.159 76.1134C324.157 76.0283 324.154 75.9213 324.151 75.7875C324.147 75.489 324.141 75.0721 324.134 74.5381C324.124 73.4421 324.11 71.8663 324.092 69.8795L324.167 69.9538C318.687 69.9645 309.972 69.9824 300.168 70.002C300.222 69.9473 300.045 70.1239 300.289 69.8801V69.8819V69.8848V69.8914V69.9039V69.9294V69.9806V70.0829V70.2868V70.6942C300.289 70.9654 300.289 71.2353 300.289 71.5041C300.289 72.0423 300.288 72.5763 300.288 73.1062C300.287 74.1658 300.287 75.2083 300.286 76.2293L300.167 76.1098C307.001 76.1318 312.981 76.1508 317.27 76.1639C319.407 76.1782 321.122 76.1901 322.319 76.1978C322.901 76.2044 323.357 76.2097 323.684 76.2139C323.831 76.2169 323.949 76.2198 324.041 76.2216C324.121 76.2234 324.164 76.2258 324.166 76.2287C324.169 76.2311 324.131 76.2341 324.055 76.2365C323.966 76.2383 323.853 76.2412 323.712 76.2442C323.392 76.2478 322.945 76.2531 322.373 76.2597C321.182 76.268 319.477 76.2793 317.353 76.2936C313.042 76.3072 307.033 76.3263 300.165 76.3477L300.046 76.3483V76.2282C300.045 75.2071 300.045 74.1647 300.044 73.105C300.044 72.5751 300.044 72.0411 300.044 71.5029C300.044 71.2341 300.044 70.9642 300.044 70.693V70.2857V70.0817V69.9794V69.9283V69.9027V69.8902V69.8837V69.8807V69.8789C300.288 69.6339 300.112 69.8111 300.167 69.7564C309.971 69.776 318.686 69.7933 324.166 69.8046H324.241L324.241 69.8789C324.223 71.8847 324.209 73.4754 324.2 74.5821C324.192 75.109 324.186 75.5199 324.182 75.8149C324.179 75.9433 324.176 76.0456 324.174 76.1277C324.171 76.1972 324.169 76.2311 324.166 76.2287Z" fill="#E0E0E0"/>
<path d="M327.421 69.8794C327.418 69.8765 327.415 69.8354 327.411 69.7587C327.409 69.6677 327.405 69.5571 327.402 69.4221C327.396 69.1099 327.389 68.6847 327.38 68.1489C327.369 67.0357 327.352 65.4634 327.332 63.5302L327.42 63.6182C323.685 63.6271 318.603 63.639 313.001 63.6527C312.891 63.7621 313.148 63.5034 313.122 63.5308V63.5325V63.5355V63.5421V63.5551V63.5813V63.6336V63.7377V63.9458V64.3609C313.122 64.6368 313.122 64.9116 313.122 65.1845C313.121 65.7304 313.121 66.2692 313.121 66.8008C313.119 67.8629 313.118 68.8929 313.117 69.8794L313 69.7629C317.163 69.7849 320.747 69.8045 323.316 69.8182C324.582 69.8318 325.598 69.8426 326.321 69.8503C326.658 69.8562 326.927 69.861 327.131 69.8646C327.317 69.8699 327.415 69.8747 327.421 69.8794C327.426 69.8842 327.336 69.8889 327.159 69.8937C326.961 69.8973 326.701 69.902 326.373 69.9086C325.656 69.9163 324.65 69.927 323.395 69.9407C320.807 69.9543 317.196 69.9734 313.001 69.996L312.884 69.9966V69.8794C312.883 68.8929 312.881 67.8629 312.88 66.8008C312.879 66.2698 312.879 65.7304 312.879 65.1845C312.879 64.9116 312.879 64.6368 312.879 64.3609V63.9458V63.7377V63.6336V63.5813V63.5551V63.5421V63.5355V63.5325V63.5308C312.852 63.5563 313.111 63.2982 313.002 63.4077C318.603 63.4207 323.686 63.4332 327.421 63.4422H327.51L327.509 63.5296C327.489 65.4854 327.473 67.0756 327.462 68.2019C327.452 68.7293 327.445 69.1474 327.44 69.4554C327.433 69.7397 327.427 69.8854 327.421 69.8794Z" fill="#E0E0E0"/>
<path d="M213.841 211.735H189.841V218.085H213.841V211.735Z" fill="#E0E0E0"/>
<path d="M231.098 198.698H207.097V205.048H231.098V198.698Z" fill="#EBEBEB"/>
<path d="M220.949 211.735C220.946 211.733 220.944 211.694 220.941 211.62C220.939 211.535 220.936 211.428 220.933 211.294C220.929 210.995 220.923 210.579 220.915 210.045C220.906 208.949 220.892 207.373 220.874 205.386L220.949 205.46C215.469 205.471 206.753 205.489 196.95 205.508C197.004 205.454 196.827 205.63 197.071 205.387V205.388V205.391V205.398V205.41V205.436V205.487V205.589V205.793V206.201C197.071 206.472 197.071 206.742 197.071 207.011C197.071 207.549 197.07 208.083 197.07 208.613C197.069 209.672 197.069 210.715 197.068 211.736L196.949 211.616C203.783 211.638 209.763 211.657 214.052 211.67C216.189 211.685 217.903 211.697 219.101 211.704C219.683 211.711 220.139 211.716 220.466 211.72C220.613 211.723 220.731 211.726 220.823 211.728C220.904 211.73 220.946 211.732 220.949 211.735C220.951 211.738 220.914 211.741 220.838 211.743C220.749 211.745 220.636 211.748 220.495 211.751C220.175 211.754 219.727 211.76 219.156 211.766C217.965 211.775 216.26 211.786 214.135 211.8C209.825 211.814 203.816 211.833 196.948 211.854L196.828 211.855V211.735C196.828 210.714 196.827 209.671 196.827 208.611C196.827 208.082 196.826 207.548 196.826 207.009C196.826 206.741 196.826 206.47 196.826 206.199V205.792V205.588V205.486V205.435V205.409V205.397V205.39V205.387V205.385C197.071 205.14 196.895 205.318 196.95 205.263C206.753 205.283 215.469 205.3 220.949 205.311H221.024L221.023 205.385C221.006 207.391 220.992 208.982 220.982 210.089C220.974 210.615 220.968 211.027 220.964 211.321C220.961 211.45 220.958 211.553 220.956 211.634C220.954 211.704 220.952 211.738 220.949 211.735Z" fill="#E0E0E0"/>
<path d="M301.065 258.499L304.801 273.322L311.136 284.195C311.592 284.978 311.29 285.985 310.477 286.387C310.022 286.612 309.49 286.605 309.043 286.364C306.198 284.829 295.763 279.132 295.55 278.032C295.304 276.758 290.572 262.658 290.572 262.658L301.065 258.499Z" fill="#2490A9"/>
<g opacity="0.6">
<path d="M310.477 286.387L295.275 277.037L295.448 277.661C295.597 278.201 295.931 278.672 296.394 278.986C297.633 279.827 301.107 282.074 308.999 286.377C309.458 286.627 310.014 286.631 310.477 286.387Z" fill="white"/>
</g>
<g opacity="0.6">
<path d="M296.984 271.449C297.424 271.602 297.699 272.127 297.564 272.573C297.43 273.018 296.898 273.303 296.455 273.157C296.013 273.012 295.664 272.392 295.848 271.964C296.032 271.536 296.674 271.237 297.068 271.484" fill="white"/>
</g>
<path d="M305.329 280.881C305.424 280.898 305.543 280.035 306.305 279.377C307.046 278.697 307.918 278.68 307.911 278.584C307.914 278.544 307.695 278.481 307.337 278.528C306.982 278.572 306.497 278.758 306.081 279.127C305.668 279.496 305.426 279.956 305.341 280.304C305.253 280.655 305.29 280.878 305.329 280.881Z" fill="#263238"/>
<path d="M306.924 282.563C307.012 282.608 307.353 281.998 308.054 281.569C308.746 281.124 309.443 281.084 309.441 280.985C309.463 280.898 308.668 280.782 307.876 281.284C307.079 281.778 306.836 282.545 306.924 282.563Z" fill="#263238"/>
<path d="M302.677 278.892C302.765 278.943 303.284 278.002 304.317 277.24C305.338 276.461 306.386 276.225 306.362 276.126C306.364 276.041 305.213 276.139 304.115 276.971C303.01 277.792 302.594 278.87 302.677 278.892Z" fill="#263238"/>
<path d="M301.165 274.481C301.229 274.558 301.949 273.993 302.997 273.662C304.042 273.317 304.956 273.353 304.962 273.253C304.983 273.17 304.017 272.974 302.894 273.343C301.768 273.701 301.099 274.425 301.165 274.481Z" fill="#263238"/>
<path d="M299.958 270.157C300.028 270.23 300.71 269.512 301.843 269.254C302.971 268.971 303.903 269.301 303.932 269.205C303.948 269.167 303.736 269.027 303.342 268.925C302.951 268.821 302.374 268.783 301.765 268.928C301.157 269.075 300.659 269.37 300.358 269.64C300.053 269.91 299.928 270.131 299.958 270.157Z" fill="#263238"/>
<path d="M301.589 268.438C301.608 268.434 301.586 268.226 301.455 267.875C301.323 267.528 301.075 267.031 300.609 266.538C300.374 266.308 300.11 266.002 299.646 265.922C299.415 265.881 299.12 266.003 298.999 266.246C298.878 266.484 298.891 266.741 298.95 266.975C299.224 267.907 300.277 268.589 301.366 268.433C302.454 268.257 303.245 267.389 303.439 266.466C303.473 266.232 303.466 265.958 303.283 265.74C303.101 265.52 302.773 265.503 302.572 265.598C302.153 265.783 301.946 266.112 301.741 266.37C301.346 266.919 301.151 267.435 301.052 267.793C300.953 268.154 300.947 268.362 300.967 268.365C301.029 268.389 301.139 267.539 301.93 266.514C302.134 266.272 302.364 265.974 302.671 265.858C302.82 265.8 302.969 265.825 303.058 265.933C303.147 266.037 303.167 266.23 303.134 266.416C302.963 267.175 302.239 267.966 301.316 268.101C300.4 268.242 299.475 267.64 299.248 266.893C299.196 266.712 299.193 266.517 299.261 266.382C299.327 266.25 299.464 266.18 299.615 266.198C299.933 266.234 300.211 266.491 300.439 266.705C301.36 267.616 301.528 268.471 301.589 268.438Z" fill="#263238"/>
<path d="M251.133 260.84L251.958 273.293C251.958 273.293 239.564 277.406 239.492 279.722L263.709 279.898L263.22 260.442L251.133 260.84Z" fill="#2490A9"/>
<g opacity="0.6">
<path d="M259.411 272.018C259.883 272.132 260.222 272.648 260.128 273.125C260.034 273.602 259.511 273.951 259.037 273.846C258.563 273.74 258.136 273.132 258.283 272.669C258.43 272.206 259.066 271.829 259.501 272.045" fill="white"/>
</g>
<g opacity="0.6">
<path d="M263.709 279.897L263.66 277.936L240.27 278.582C240.27 278.582 239.492 278.918 239.369 279.897L263.709 279.897Z" fill="white"/>
</g>
<path d="M251.562 273.181C251.57 273.299 252.162 273.335 252.755 273.697C253.358 274.044 253.673 274.547 253.78 274.497C253.888 274.471 253.691 273.769 252.966 273.343C252.243 272.911 251.533 273.074 251.562 273.181Z" fill="#263238"/>
<path d="M249.056 274.308C249.032 274.423 249.55 274.609 249.966 275.097C250.398 275.572 250.515 276.11 250.632 276.101C250.744 276.116 250.805 275.422 250.276 274.825C249.751 274.224 249.055 274.195 249.056 274.308Z" fill="#263238"/>
<path d="M247.706 277.39C247.814 277.412 247.96 276.817 247.637 276.178C247.318 275.538 246.754 275.3 246.706 275.4C246.643 275.499 247.012 275.836 247.269 276.363C247.539 276.885 247.588 277.382 247.706 277.39Z" fill="#263238"/>
<path d="M251.689 270.322C251.742 270.429 252.279 270.249 252.948 270.274C253.618 270.286 254.145 270.494 254.203 270.391C254.269 270.303 253.748 269.881 252.959 269.863C252.172 269.839 251.628 270.232 251.689 270.322Z" fill="#263238"/>
<g opacity="0.3">
<path d="M251.3 263.306L251.444 265.525L263.336 265.057L263.29 263.055L251.3 263.306Z" fill="black"/>
</g>
<path d="M251.569 267.807C251.569 267.856 252.039 267.915 252.781 267.764C253.15 267.689 253.584 267.554 254.037 267.336C254.263 267.227 254.494 267.098 254.722 266.946C254.831 266.871 254.961 266.795 255.079 266.649C255.207 266.522 255.272 266.207 255.114 266.019C254.985 265.837 254.763 265.763 254.588 265.764C254.41 265.764 254.266 265.804 254.136 265.841C253.868 265.915 253.618 266.012 253.39 266.122C252.934 266.347 252.566 266.624 252.294 266.889C251.749 267.426 251.57 267.874 251.611 267.896C251.666 267.933 251.928 267.554 252.487 267.108C252.765 266.886 253.123 266.654 253.549 266.466C253.763 266.373 253.994 266.293 254.238 266.23C254.493 266.155 254.711 266.147 254.78 266.259C254.805 266.302 254.809 266.319 254.757 266.395C254.704 266.466 254.602 266.537 254.495 266.612C254.285 266.758 254.073 266.885 253.865 266.997C253.45 267.219 253.05 267.375 252.707 267.482C252.021 267.697 251.565 267.743 251.569 267.807Z" fill="#263238"/>
<path d="M251.728 267.972C251.771 267.989 251.992 267.558 252.013 266.792C252.021 266.412 251.968 265.952 251.807 265.469C251.725 265.229 251.616 264.983 251.476 264.743C251.327 264.508 251.144 264.193 250.684 264.154C250.444 264.152 250.251 264.345 250.188 264.508C250.113 264.674 250.102 264.814 250.077 264.956C250.041 265.24 250.055 265.517 250.101 265.772C250.193 266.285 250.417 266.707 250.657 267.008C251.149 267.622 251.646 267.748 251.655 267.708C251.693 267.647 251.274 267.431 250.894 266.84C250.706 266.548 250.536 266.161 250.476 265.712C250.445 265.489 250.442 265.251 250.477 265.011C250.507 264.753 250.597 264.542 250.694 264.566C250.815 264.56 251.025 264.748 251.13 264.95C251.261 265.164 251.367 265.383 251.45 265.598C251.616 266.031 251.694 266.448 251.722 266.801C251.776 267.509 251.663 267.956 251.728 267.972Z" fill="#263238"/>
<path d="M251.071 152.263L287.969 151.985L305.799 269.093L290.486 271.036L270.86 174.746L264.986 271.379L264.971 271.666L248.41 271.377L251.071 152.263Z" fill="#263238"/>
<path d="M269.626 172.226C269.67 172.218 269.612 171.674 269.53 170.796C269.448 169.918 269.351 168.705 269.309 167.362C269.269 166.019 269.292 164.802 269.322 163.921C269.351 163.04 269.376 162.493 269.331 162.488C269.292 162.484 269.192 163.024 269.107 163.908C269.022 164.791 268.965 166.017 269.005 167.372C269.047 168.726 269.178 169.947 269.316 170.823C269.453 171.699 269.587 172.232 269.626 172.226Z" fill="#455A64"/>
<path d="M266.586 162.824C266.591 162.809 266.521 162.757 266.368 162.742C266.217 162.725 265.985 162.766 265.757 162.924C265.538 163.082 265.303 163.369 265.296 163.769C265.281 164.175 265.609 164.567 266.02 164.699C266.428 164.844 266.926 164.733 267.162 164.401C267.399 164.079 267.387 163.708 267.309 163.45C267.223 163.185 267.064 163.011 266.935 162.934C266.804 162.853 266.717 162.852 266.711 162.867C266.682 162.909 267.008 163.041 267.1 163.503C267.142 163.722 267.119 164.014 266.942 164.226C266.774 164.442 266.434 164.516 266.119 164.41C265.804 164.303 265.579 164.037 265.577 163.763C265.565 163.488 265.724 163.242 265.89 163.093C266.245 162.782 266.583 162.875 266.586 162.824Z" fill="#455A64"/>
<path d="M276.035 160.468C276.022 160.485 276.142 160.593 276.372 160.775C276.598 160.963 276.958 161.193 277.425 161.435C277.89 161.683 278.48 161.908 279.153 162.089C279.831 162.255 280.594 162.367 281.401 162.373C282.208 162.367 282.972 162.256 283.649 162.09C284.324 161.91 284.914 161.685 285.378 161.438C285.845 161.196 286.205 160.966 286.432 160.779C286.662 160.597 286.782 160.489 286.769 160.472C286.736 160.425 286.222 160.82 285.285 161.243C284.82 161.46 284.24 161.657 283.583 161.818C282.922 161.963 282.182 162.062 281.401 162.068C280.62 162.062 279.88 161.961 279.22 161.816C278.563 161.655 277.983 161.458 277.517 161.241C276.582 160.816 276.069 160.421 276.035 160.468Z" fill="#455A64"/>
<path d="M253.195 162.946C253.187 162.98 253.567 163.105 254.206 163.159C254.844 163.216 255.744 163.172 256.691 162.903C257.637 162.631 258.425 162.193 258.936 161.809C259.451 161.425 259.707 161.119 259.683 161.094C259.625 161.014 258.449 162.099 256.607 162.611C254.774 163.149 253.202 162.848 253.195 162.946Z" fill="#455A64"/>
<path d="M299.958 270.157C299.961 270.151 299.905 270.082 299.851 269.909C299.797 269.736 299.725 269.477 299.643 269.134C299.478 268.448 299.26 267.429 298.995 266.114C298.466 263.483 297.749 259.665 296.89 254.943C295.171 245.499 292.878 232.437 290.352 218.009C287.813 203.584 285.516 190.527 283.85 181.061C282.998 176.348 282.307 172.529 281.827 169.873C281.582 168.565 281.39 167.544 281.257 166.836C281.19 166.499 281.139 166.238 281.101 166.047C281.064 165.87 281.037 165.78 281.037 165.78C281.037 165.78 281.043 165.873 281.071 166.053C281.101 166.245 281.143 166.508 281.197 166.847C281.316 167.558 281.489 168.582 281.71 169.895C282.168 172.554 282.826 176.379 283.638 181.099C285.281 190.569 287.548 203.632 290.052 218.062C292.577 232.49 294.904 245.547 296.678 254.983C297.564 259.701 298.314 263.513 298.879 266.138C299.435 268.761 299.846 270.206 299.958 270.157Z" fill="#455A64"/>
<path d="M252.932 268.837C252.932 268.837 252.943 268.746 252.948 268.567C252.951 268.375 252.957 268.112 252.963 267.775C252.969 267.063 252.979 266.039 252.992 264.727C252.997 263.403 253.008 261.784 253.042 259.905C253.072 258.025 253.086 255.885 253.15 253.52C253.243 248.789 253.423 243.157 253.696 236.907C253.987 230.659 254.378 223.791 254.912 216.592C255.459 209.391 256.096 202.541 256.741 196.318C257.405 190.096 258.066 184.501 258.681 179.809C258.97 177.461 259.275 175.342 259.526 173.479C259.773 171.616 260.005 170.014 260.196 168.704C260.38 167.405 260.523 166.391 260.622 165.687C260.667 165.352 260.701 165.091 260.726 164.901C260.747 164.724 260.751 164.631 260.751 164.631C260.751 164.631 260.727 164.72 260.695 164.896C260.663 165.085 260.618 165.344 260.562 165.677C260.449 166.38 260.287 167.391 260.079 168.687C259.869 169.994 259.621 171.594 259.357 173.455C259.09 175.316 258.77 177.434 258.467 179.78C257.825 184.47 257.141 190.066 256.462 196.288C255.8 202.513 255.155 209.365 254.607 216.57C254.074 223.772 253.69 230.643 253.415 236.895C253.158 243.148 252.998 248.783 252.934 253.516C252.884 255.882 252.884 258.023 252.871 259.903C252.854 261.783 252.86 263.403 252.873 264.726C252.885 266.039 252.895 267.063 252.901 267.775C252.908 268.112 252.913 268.375 252.917 268.567C252.922 268.746 252.932 268.837 252.932 268.837Z" fill="#455A64"/>
<path d="M214.784 107.123L237.841 113.853L250.755 106.227L260.555 117.852L242.275 125.767C239.665 126.897 236.685 126.799 234.154 125.498L211.505 113.852L214.784 107.123Z" fill="#FFBE9D"/>
<path d="M209.525 104.902L206.67 103.42L198.729 99.2886C198.082 99.0317 197.48 99.7268 197.813 100.338L202.876 104.5L200.758 105.308C200.338 105.468 199.993 105.78 199.791 106.181L198.666 108.42C198.666 108.42 197.381 108.558 197.251 109.393C197.114 110.279 198.086 110.516 198.086 110.516L197.844 111.492C197.731 111.949 197.816 112.432 198.078 112.823C199.308 113.328 200.285 110.752 200.285 110.752L201.594 110.89L203.027 113.777C204.845 114.218 203.984 111.352 203.984 111.352C203.984 111.352 203.984 111.352 204.786 111.551C205.588 111.75 206.009 112.319 207.257 112.959C208.505 113.598 210.957 113.823 210.957 113.823L212.769 115.161L218.268 107.637L209.525 104.902Z" fill="#FAFAFA"/>
<path d="M209.525 104.902C209.527 104.898 209.58 104.909 209.681 104.936C209.798 104.969 209.946 105.011 210.131 105.063C210.544 105.185 211.123 105.357 211.862 105.576C213.385 106.042 215.569 106.708 218.297 107.542L218.432 107.583L218.348 107.697C216.811 109.815 214.953 112.376 212.875 115.24L212.797 115.347L212.689 115.268C212.124 114.853 211.506 114.398 210.875 113.934L210.944 113.96C209.778 113.825 208.56 113.663 207.364 113.168C206.778 112.9 206.24 112.535 205.712 112.171C205.449 111.991 205.182 111.83 204.892 111.735C204.598 111.651 204.263 111.576 203.947 111.496L204.125 111.31C204.264 111.83 204.369 112.372 204.321 112.959C204.287 113.243 204.207 113.578 203.926 113.797C203.638 114.015 203.284 113.98 202.991 113.924L202.925 113.912L202.892 113.845C202.436 112.927 201.95 111.948 201.459 110.958L201.578 111.041C201.216 111.003 200.826 110.962 200.434 110.92L200.27 110.903L200.427 110.806C200.238 111.271 200.015 111.709 199.727 112.118C199.441 112.509 199.083 112.937 198.513 113.028L198.302 113.032C198.233 113.022 198.166 113 198.099 112.983L198.048 112.969L198.023 112.962L198.022 112.961C198.036 112.974 197.893 112.856 197.953 112.906L197.951 112.903L197.948 112.898L197.941 112.888L197.89 112.805C197.858 112.749 197.828 112.692 197.802 112.632C197.697 112.397 197.643 112.14 197.644 111.883C197.642 111.621 197.719 111.377 197.772 111.158L197.94 110.48L198.05 110.661C197.739 110.569 197.46 110.409 197.264 110.134C197.071 109.851 197.048 109.498 197.152 109.187C197.271 108.868 197.538 108.655 197.804 108.524C198.076 108.393 198.352 108.314 198.649 108.275L198.534 108.354C198.773 107.88 199.01 107.409 199.245 106.944C199.362 106.712 199.479 106.481 199.595 106.251C199.701 106.02 199.859 105.766 200.059 105.584C200.256 105.394 200.5 105.249 200.749 105.16C200.984 105.071 201.218 104.982 201.45 104.894C201.915 104.718 202.374 104.544 202.826 104.372L202.788 104.606C200.975 103.107 199.285 101.711 197.736 100.431L197.719 100.417L197.707 100.396C197.524 100.074 197.586 99.6471 197.829 99.3972C198.061 99.1328 198.463 99.0526 198.77 99.184L198.778 99.1874L198.781 99.1892C202.085 100.932 204.77 102.348 206.65 103.34C207.563 103.829 208.279 104.212 208.786 104.483C209.017 104.61 209.2 104.712 209.34 104.789C209.464 104.858 209.527 104.897 209.525 104.902C209.523 104.907 209.456 104.879 209.327 104.818C209.184 104.749 208.997 104.658 208.76 104.542C208.246 104.284 207.519 103.918 206.592 103.452C204.702 102.482 202 101.095 198.677 99.3897L198.688 99.3943C198.454 99.2996 198.175 99.3589 198.002 99.5542C197.825 99.743 197.782 100.044 197.918 100.281L197.889 100.246C199.445 101.518 201.142 102.906 202.963 104.395L203.145 104.544L202.925 104.628C202.473 104.801 202.014 104.977 201.551 105.155C201.319 105.244 201.085 105.333 200.85 105.424C200.625 105.505 200.427 105.626 200.256 105.79C200.081 105.955 199.962 106.143 199.852 106.379C199.737 106.609 199.621 106.841 199.504 107.073C199.271 107.539 199.035 108.01 198.797 108.485L198.763 108.553L198.681 108.565C198.19 108.638 197.599 108.843 197.431 109.287C197.36 109.507 197.375 109.775 197.511 109.965C197.643 110.16 197.887 110.303 198.123 110.371L198.267 110.412L198.233 110.552L198.065 111.23C198.008 111.464 197.943 111.673 197.947 111.885C197.946 112.099 197.991 112.314 198.079 112.51C198.101 112.56 198.126 112.607 198.153 112.654L198.195 112.723L198.201 112.731L198.204 112.735L198.205 112.738C198.265 112.788 198.123 112.671 198.138 112.683L198.139 112.684L198.157 112.688L198.193 112.696C198.24 112.707 198.287 112.724 198.335 112.732L198.48 112.73C198.877 112.675 199.219 112.316 199.482 111.943C199.749 111.565 199.969 111.134 200.145 110.699L200.189 110.59L200.303 110.602L200.467 110.619C200.859 110.661 201.25 110.702 201.612 110.74L201.695 110.748L201.732 110.823C202.223 111.814 202.708 112.793 203.163 113.711L203.064 113.632C203.316 113.68 203.577 113.693 203.747 113.559C203.919 113.43 203.998 113.179 204.026 112.927C204.072 112.414 203.973 111.876 203.844 111.395L203.777 111.146L204.021 111.209C204.345 111.293 204.651 111.36 204.985 111.456C205.317 111.565 205.611 111.747 205.877 111.929C206.409 112.298 206.929 112.651 207.484 112.907C208.608 113.379 209.833 113.553 210.971 113.688L211.011 113.693L211.04 113.714C211.669 114.181 212.285 114.638 212.849 115.056L212.664 115.084C214.762 112.234 216.637 109.686 218.189 107.579L218.24 107.734C215.521 106.863 213.344 106.165 211.825 105.679C211.094 105.438 210.521 105.25 210.113 105.115C209.931 105.052 209.786 105.002 209.673 104.963C209.573 104.927 209.523 104.907 209.525 104.902Z" fill="#263238"/>
<path d="M204.175 111.4C204.167 111.434 203.54 111.32 202.466 111.161C201.392 111.001 199.868 110.807 198.075 110.657L198.103 110.657C197.401 110.718 196.909 109.902 197.179 109.268C197.424 108.633 198.091 108.296 198.71 108.193C199.392 108.083 200.023 108.05 200.641 107.938C201.257 107.838 201.845 107.715 202.4 107.575C202.956 107.434 203.478 107.278 203.961 107.115C204.198 107.038 204.417 106.942 204.571 106.802C204.726 106.664 204.768 106.474 204.695 106.306C204.621 106.134 204.473 105.995 204.332 105.858C204.194 105.721 204.064 105.589 203.939 105.463C203.698 105.214 203.488 105.006 203.306 104.847C202.943 104.529 202.707 104.394 202.721 104.372C202.728 104.358 202.986 104.458 203.381 104.756C203.578 104.904 203.805 105.105 204.057 105.342C204.186 105.461 204.322 105.587 204.464 105.718C204.606 105.848 204.782 105.99 204.891 106.22C205.013 106.449 204.941 106.791 204.733 106.97C204.537 107.158 204.289 107.264 204.044 107.351C203.559 107.527 203.032 107.694 202.471 107.844C201.909 107.994 201.313 108.126 200.689 108.231C200.071 108.346 199.4 108.388 198.767 108.49C198.19 108.583 197.647 108.886 197.457 109.373C197.242 109.829 197.646 110.428 198.071 110.375L198.086 110.374L198.1 110.375C199.899 110.548 201.425 110.781 202.495 110.99C203.03 111.094 203.452 111.189 203.739 111.262C204.025 111.335 204.178 111.385 204.175 111.4Z" fill="#263238"/>
<path d="M203.96 107.329C203.974 107.409 203.296 107.58 202.443 107.533C202.143 107.518 201.866 107.477 201.636 107.43L201.776 107.347C201.605 107.741 201.464 107.991 201.414 107.973C201.362 107.955 201.414 107.672 201.534 107.26L201.561 107.169L201.674 107.177C201.98 107.198 202.217 107.215 202.459 107.232C203.277 107.277 203.948 107.244 203.96 107.329Z" fill="#263238"/>
<path d="M256.012 97.7862L241.157 109.182L251.573 122.898L264.275 115.688L256.012 97.7862Z" fill="#2490A9"/>
<path d="M256.012 97.7863C258.162 96.463 265.599 94.8322 265.599 94.8322L279.976 93.2694L292.445 98.9952L287.32 120.46L291.808 160.926L249.003 163.257L256.012 97.7863Z" fill="#2490A9"/>
<path d="M280.449 115.74H273.076V117.729H280.449V115.74Z" fill="#FAFAFA"/>
<path d="M280.463 117.743H273.061V115.726H280.463V117.743ZM273.091 117.715H280.434V115.755H273.091V117.715Z" fill="#263238"/>
<path d="M254.222 110.207C254.139 110.209 254.044 108.733 254.011 106.912C253.978 105.09 254.019 103.613 254.102 103.611C254.186 103.609 254.28 105.085 254.313 106.906C254.347 108.727 254.306 110.205 254.222 110.207Z" fill="#263238"/>
<path d="M281.19 73.5742L279.617 95.8601C279.36 99.4989 276.333 102.319 272.686 102.319C268.67 102.319 265.489 98.9235 265.753 94.9163C265.892 92.795 266.018 91.0578 266.018 91.0578C266.018 91.0578 260.623 90.2192 260.556 84.8247C260.518 81.709 261.055 74.6389 261.516 69.2229C261.827 65.5615 264.892 62.7503 268.567 62.7503H271.826C277.438 63.0787 281.673 67.9734 281.19 73.5742Z" fill="#FFBE9D"/>
<path d="M266.009 90.9805C266.009 90.9805 269.419 91.2577 273.042 88.9818C273.042 88.9818 271.379 92.8641 265.997 92.3782L266.009 90.9805Z" fill="#EB996E"/>
<path d="M262.614 76.0399C262.599 76.4468 262.932 76.7943 263.357 76.817C263.78 76.8396 264.136 76.5293 264.151 76.1225C264.165 75.7156 263.833 75.3675 263.408 75.3449C262.984 75.3222 262.629 75.6331 262.614 76.0399Z" fill="#263238"/>
<path d="M262.446 74.6324C262.541 74.733 263.125 74.3011 263.954 74.3035C264.782 74.2936 265.39 74.7202 265.48 74.6185C265.525 74.5737 265.428 74.3924 265.163 74.1994C264.902 74.0077 264.457 73.8205 263.941 73.8228C263.425 73.8257 262.99 74.0158 262.741 74.2105C262.485 74.4058 262.399 74.5877 262.446 74.6324Z" fill="#263238"/>
<path d="M270.583 76.0403C270.568 76.4471 270.901 76.7947 271.325 76.8173C271.749 76.84 272.105 76.5297 272.119 76.1228C272.134 75.716 271.801 75.3679 271.377 75.3452C270.953 75.3226 270.597 75.6335 270.583 76.0403Z" fill="#263238"/>
<path d="M270.594 74.7871C270.69 74.8876 271.274 74.4558 272.103 74.4581C272.93 74.4483 273.539 74.8748 273.629 74.7731C273.673 74.7284 273.576 74.5471 273.31 74.3541C273.049 74.1617 272.605 73.9752 272.089 73.9775C271.572 73.9804 271.138 74.1705 270.888 74.3651C270.635 74.5604 270.547 74.7423 270.594 74.7871Z" fill="#263238"/>
<path d="M267.663 80.7296C267.667 80.6825 267.151 80.5936 266.316 80.4867C266.105 80.4646 265.904 80.4227 265.869 80.278C265.819 80.1252 265.908 79.8968 266.01 79.6509C266.209 79.1389 266.417 78.6019 266.636 78.0393C267.505 75.7442 268.134 73.8572 268.042 73.8229C267.949 73.7886 267.169 75.621 266.3 77.9161C266.091 78.4822 265.891 79.0215 265.7 79.5376C265.62 79.7782 265.482 80.0508 265.59 80.3681C265.647 80.5262 265.802 80.6413 265.938 80.6779C266.074 80.7191 266.193 80.7215 266.298 80.7279C267.139 80.7732 267.66 80.7773 267.663 80.7296Z" fill="#263238"/>
<path d="M270.38 71.9119C270.462 72.1374 271.29 72.0305 272.262 72.1479C273.237 72.2455 274.021 72.5303 274.15 72.3281C274.208 72.2316 274.071 72.0195 273.754 71.8009C273.439 71.583 272.938 71.3761 272.354 71.311C271.77 71.2471 271.236 71.3401 270.882 71.4842C270.525 71.6277 270.345 71.805 270.38 71.9119Z" fill="#263238"/>
<path d="M262.455 73.0056C262.601 73.1939 263.172 72.9986 263.859 72.9893C264.545 72.9562 265.127 73.116 265.26 72.919C265.319 72.8237 265.228 72.6348 264.973 72.4564C264.723 72.2785 264.304 72.1338 263.832 72.1478C263.361 72.1629 262.951 72.3332 262.713 72.5261C262.471 72.7197 262.391 72.9138 262.455 73.0056Z" fill="#263238"/>
<path d="M279.372 77.6232C279.464 77.5831 283.078 76.5271 282.961 80.2147C282.843 83.9023 279.165 83.0235 279.162 82.9178C279.159 82.812 279.372 77.6232 279.372 77.6232Z" fill="#FFBE9D"/>
<path d="M280.333 81.5567C280.35 81.5456 280.396 81.6037 280.502 81.6572C280.606 81.7089 280.788 81.7484 280.983 81.6822C281.377 81.5514 281.725 80.9435 281.764 80.2798C281.784 79.9445 281.724 79.6225 281.613 79.354C281.509 79.0802 281.341 78.8867 281.146 78.8454C280.952 78.7937 280.809 78.9071 280.761 79.0093C280.708 79.111 280.73 79.1854 280.71 79.1913C280.699 79.2 280.633 79.1267 280.668 78.9756C280.685 78.903 280.731 78.8176 280.82 78.749C280.91 78.6798 281.042 78.6473 281.178 78.6664C281.462 78.6949 281.71 78.9652 281.831 79.2598C281.968 79.5562 282.043 79.9183 282.021 80.2949C281.973 81.0371 281.571 81.7205 281.033 81.8577C280.772 81.917 280.558 81.8321 280.448 81.7415C280.337 81.6462 280.32 81.563 280.333 81.5567Z" fill="#EB996E"/>
<path d="M281.423 77.4984C280.861 77.3624 279.888 77.8814 279.648 78.4079C279.408 78.9345 279.355 79.5314 279.116 80.0585C278.877 80.5856 278.337 81.0622 277.774 80.9285C277.385 80.8367 277.108 80.4729 277.005 80.087C276.903 79.7011 276.944 79.2937 276.994 78.8973C277.212 77.1747 277.574 75.4672 277.643 73.7323C277.712 71.9981 277.465 70.1959 276.554 68.7179C275.644 67.24 273.97 66.1538 272.24 66.2927C271.094 66.3851 270.043 66.9825 268.904 67.1423C267.554 67.3312 266.127 66.8552 265.161 65.8928C265.037 65.7696 264.461 65.3901 264.461 65.3901C264.461 65.3006 264.545 64.5305 264.849 64.2498C267.108 62.1605 271.179 61.5775 274.163 62.3284C277.147 63.0793 279.944 65.1861 281.228 67.9822C282.512 70.7794 282.131 74.6686 281.423 77.4984Z" fill="#263238"/>
<path d="M261.456 68.3908C261.456 68.3908 275.608 63.8378 281.73 76.0815C281.73 76.0815 282.645 73.0175 282.645 71.3751C282.645 70.2784 281.988 63.7454 275.266 61.6903C275.266 61.6903 265.139 57.8249 261.456 68.3908Z" fill="#2490A9"/>
<path d="M273.616 68.6964C273.116 69.5042 272.223 70.0563 271.277 70.1424C270.331 70.2284 269.353 69.8465 268.716 69.1421C268.436 69.8396 267.687 70.3185 266.936 70.2795C266.186 70.24 265.49 69.6855 265.285 68.9626C264.874 69.3612 264.447 69.771 263.908 69.968C263.371 70.165 262.689 70.0906 262.336 69.6396C261.977 69.1805 262.081 68.4808 262.434 68.0164C262.787 67.552 263.33 67.2754 263.868 67.0505C265.549 66.3484 267.403 65.9962 269.208 66.2409C271.013 66.4856 272.762 67.3608 273.89 68.7905" fill="#263238"/>
<g opacity="0.4">
<path d="M261.456 68.3908C261.456 68.3908 263.067 66.4752 265.957 66.3473C270.131 66.1631 277.944 68.5099 281.73 76.0815C281.73 76.0815 282.645 73.0175 282.645 71.3751C282.645 70.2784 281.988 63.7454 275.266 61.6903C275.266 61.6903 265.139 57.8249 261.456 68.3908Z" fill="black"/>
</g>
<path d="M281.139 74.6479C279.04 71.4374 276.147 68.7832 272.894 66.7508C269.641 64.7184 264.262 62.7087 260.555 61.7247C259.442 61.4295 258.282 61.1709 257.147 61.3673C256.012 61.5632 254.902 62.3187 254.62 63.4351C254.267 64.8329 256.748 66.9896 257.913 67.8376C259.079 68.6855 261.457 69.9298 261.457 69.9298C261.457 69.9298 261.425 67.3378 265.574 66.8031C271.217 66.076 281.139 74.6479 281.139 74.6479Z" fill="#2490A9"/>
<path d="M269.532 64.0731C269.532 64.0731 267.493 62.9451 265.446 62.6824C265.866 62.3743 266.091 62.2261 266.556 62.0157C267.604 62.2238 268.666 62.49 269.741 63.0869L269.532 64.0731Z" fill="#E0E0E0"/>
<path d="M280.329 77.7525C280.339 77.7903 280.038 77.9699 279.565 78.3261C278.974 78.7591 278.369 79.2014 277.707 79.6855C276.251 80.7444 275.049 81.5755 274.998 81.5087C274.948 81.4424 276.07 80.5027 277.529 79.4409C278.977 78.3703 280.267 77.6299 280.329 77.7525Z" fill="#EBEBEB"/>
<path d="M280.707 83.1314C280.771 83.1727 279.94 84.4158 278.542 85.595C277.15 86.7824 275.789 87.3996 275.759 87.3304C275.714 87.2502 276.985 86.5266 278.346 85.3643C279.715 84.2106 280.636 83.0744 280.707 83.1314Z" fill="#EBEBEB"/>
<path d="M260.426 81.3469C260.426 81.3469 261.885 81.7636 262.269 81.7427C264.94 81.5986 265.879 80.6966 270.241 81.6276C270.945 81.7776 271.671 81.7973 272.383 81.6939C273.021 81.6009 273.928 81.5085 274.998 81.5085L275.837 87.3371C275.837 87.3371 270.661 91.8651 265.997 91.3577C259.969 90.701 259.255 83.667 260.426 81.3469Z" fill="#FAFAFA"/>
<path d="M260.425 81.3469C260.425 81.3469 260.371 81.5003 260.267 81.7729C260.177 82.053 260.077 82.4813 260.017 83.0416C259.931 84.1511 259.998 85.8469 260.859 87.6771C261.301 88.575 261.971 89.4892 262.936 90.1692C263.894 90.8573 265.138 91.2525 266.458 91.3211C267.783 91.3722 269.176 91.0654 270.512 90.515C271.855 89.9716 273.168 89.2277 274.426 88.3443C274.9 88.006 275.364 87.6585 275.797 87.2912L275.777 87.3452C275.484 85.3018 275.203 83.3421 274.94 81.5166L274.997 81.5654C273.922 81.5543 272.902 81.6781 271.913 81.7973C271.414 81.831 270.925 81.8025 270.457 81.7206C269.989 81.6351 269.547 81.5294 269.106 81.4648C268.23 81.3196 267.395 81.2452 266.62 81.2579C265.845 81.2649 265.136 81.3812 264.495 81.4881C263.854 81.5997 263.276 81.6898 262.768 81.7334C262.514 81.7438 262.278 81.788 262.057 81.752C261.841 81.7206 261.648 81.6764 261.476 81.6363C260.788 81.4695 260.425 81.3469 260.425 81.3469C260.423 81.2492 261.905 82.0943 264.483 81.4184C265.124 81.3068 265.837 81.1853 266.619 81.1737C267.4 81.1562 268.241 81.2271 269.122 81.3695C269.563 81.4317 270.014 81.5375 270.474 81.62C270.934 81.6991 271.416 81.7252 271.906 81.6909C272.879 81.5706 273.92 81.4422 274.997 81.4515L275.047 81.4521L275.054 81.5003C275.318 83.3258 275.602 85.2849 275.897 87.3278L275.902 87.3609L275.877 87.3818C275.438 87.755 274.974 88.1025 274.496 88.4431C273.232 89.3305 271.91 90.0785 270.556 90.6248C269.209 91.1775 267.8 91.4873 266.453 91.4321C265.112 91.3594 263.85 90.9544 262.877 90.2505C261.898 89.5549 261.223 88.6238 260.781 87.7137C259.921 85.8586 259.869 84.1516 259.969 83.0364C260.037 82.4726 260.145 82.0454 260.244 81.7624C260.363 81.4834 260.425 81.3469 260.425 81.3469Z" fill="#263238"/>
<path d="M260.911 84.7468C264.926 86.7472 269.916 86.6554 273.855 84.5079C273.05 85.4587 272.214 86.4345 271.103 86.9994C269.828 87.648 268.339 87.6818 266.908 87.6794C265.768 87.6777 264.584 87.6515 263.563 87.1447C262.515 86.6246 261.768 85.6627 261.058 84.7328" fill="#E0E0E0"/>
<path d="M273.239 83.2771C273.248 83.3131 272.616 83.509 271.568 83.7176C270.522 83.9268 269.055 84.1297 267.424 84.1889C265.793 84.2453 264.315 84.1465 263.256 84.0117C262.196 83.8774 261.552 83.7269 261.558 83.6903C261.565 83.6444 262.22 83.7199 263.277 83.799C264.334 83.8786 265.798 83.9425 267.413 83.8867C269.028 83.8286 270.483 83.6612 271.532 83.5072C272.582 83.3532 273.229 83.2317 273.239 83.2771Z" fill="#E0E0E0"/>
<path d="M274.241 85.7017C274.266 85.7232 273.886 86.2254 273.098 86.8612C272.317 87.4964 271.094 88.2345 269.597 88.6483C268.1 89.0633 266.671 89.0598 265.675 88.9162C264.673 88.7756 264.089 88.5402 264.1 88.5088C264.112 88.46 264.712 88.6198 265.699 88.703C266.682 88.7895 268.066 88.7587 269.517 88.356C270.968 87.955 272.17 87.2698 272.969 86.6903C273.773 86.1121 274.205 85.6663 274.241 85.7017Z" fill="#E0E0E0"/>
<path d="M274.331 84.3621C274.341 84.3807 274.175 84.4853 273.865 84.6602C273.558 84.8404 273.092 85.0607 272.499 85.2932C271.907 85.5303 271.178 85.7494 270.354 85.929C269.527 86.0946 268.603 86.2126 267.629 86.2329C266.653 86.2434 265.726 86.1545 264.895 86.0156C264.065 85.8621 263.329 85.6668 262.73 85.4483C262.131 85.2344 261.657 85.0293 261.345 84.859C261.03 84.6939 260.861 84.594 260.871 84.5754C260.894 84.5248 261.598 84.8741 262.797 85.2449C263.396 85.4344 264.124 85.6047 264.941 85.7407C265.759 85.8621 266.668 85.9406 267.624 85.9307C268.579 85.9104 269.485 85.8028 270.3 85.6558C271.112 85.4942 271.835 85.3007 272.426 85.0926C273.614 84.6841 274.305 84.3127 274.331 84.3621Z" fill="#263238"/>
<path d="M269.999 84.3692C270.011 84.4453 268.466 84.7121 266.543 84.6296C264.619 84.5552 263.101 84.1641 263.119 84.0891C263.136 84.0007 264.66 84.2541 266.555 84.3274C268.45 84.4087 269.99 84.2803 269.999 84.3692Z" fill="#263238"/>
<path d="M205.822 156.827V109.699H271.376V156.827L236.633 157.12L205.822 156.827Z" fill="#2490A9"/>
<g opacity="0.4">
<path d="M271.376 109.699H205.822V156.827H271.376V109.699Z" fill="black"/>
</g>
<path d="M236.633 157.12L205.822 156.827V109.699H236.532L236.633 157.12Z" fill="#2490A9"/>
<path d="M222.433 109.699H218.345V117.875H222.433V109.699Z" fill="#263238"/>
<path d="M216.146 146.426H208.009V154.563H216.146V146.426Z" fill="#FAFAFA"/>
<path d="M216.16 154.578H207.994V146.412H216.16V154.578ZM208.023 154.549H216.131V146.441H208.023V154.549Z" fill="#263238"/>
<path d="M286.718 120.518L288.074 131.487L267.734 143.56L270.896 150.518L294.014 141.179C296.818 139.759 299.215 137.654 299.017 134.501L297.903 119.157L286.718 120.518Z" fill="#FFBE9D"/>
<path d="M292.445 98.9944C292.445 98.9944 295.339 101.138 296.157 105.601C296.936 109.851 299.581 121.727 299.581 121.727L285.643 123.377C285.643 123.377 285.652 120.116 285.651 120.114C285.628 120.067 284.353 113.99 284.353 113.99L286.952 105.601L292.445 98.9944Z" fill="#2490A9"/>
<path d="M299.028 121.78C299.031 121.8 298.692 121.861 298.076 121.953C297.408 122.045 296.528 122.166 295.466 122.313C293.26 122.604 290.211 122.985 286.841 123.388C286.437 123.436 286.037 123.483 285.661 123.528L285.505 123.546L285.493 123.389C285.261 120.28 285.005 117.515 284.815 115.529C284.724 114.575 284.648 113.787 284.591 113.186C284.54 112.635 284.521 112.331 284.54 112.328C284.559 112.326 284.616 112.625 284.701 113.172C284.785 113.72 284.895 114.516 285.017 115.507C285.261 117.489 285.553 120.252 285.793 123.367L285.625 123.228C286.001 123.183 286.401 123.135 286.805 123.087C290.175 122.685 293.228 122.337 295.44 122.101C296.508 121.993 297.391 121.904 298.062 121.837C298.682 121.78 299.026 121.759 299.028 121.78Z" fill="#263238"/>
<path d="M291.305 99.7592C291.325 99.8074 290.799 100.025 290.025 100.501C289.252 100.973 288.25 101.743 287.355 102.797C286.465 103.855 285.873 104.972 285.537 105.813C285.197 106.655 285.071 107.21 285.02 107.199C284.989 107.194 285.042 106.619 285.336 105.738C285.628 104.86 286.208 103.691 287.124 102.602C288.045 101.517 289.101 100.75 289.918 100.316C290.737 99.8772 291.295 99.7296 291.305 99.7592Z" fill="#263238"/>
<path d="M267.418 142.947L264.431 144.315L263.149 143.82L256.631 143.413L252.548 144.315L252.432 144.548C252.432 146.762 256.625 145.888 257.907 146.237C259.188 146.587 258.023 149.324 258.023 149.324C258.023 149.324 252.257 156.838 251.252 158.643C250.75 159.546 250.914 160.041 251.203 160.311C251.499 160.587 251.962 160.585 252.293 160.351L254.422 158.844C254.422 158.844 260.278 159.184 260.68 158.986C261.26 158.699 262.1 157.479 262.1 157.479C265.097 154.676 268.179 152.344 271.375 150.637L267.418 142.947Z" fill="#FAFAFA"/>
<path d="M267.418 142.947C267.42 142.942 267.444 142.983 267.491 143.067C267.545 143.166 267.614 143.291 267.699 143.448C267.891 143.807 268.157 144.307 268.498 144.946C269.203 146.287 270.211 148.206 271.464 150.593L271.51 150.679L271.423 150.725C268.632 152.225 265.426 154.533 262.194 157.579L262.214 157.557C261.825 158.085 261.445 158.628 260.85 159.052C260.778 159.105 260.671 159.14 260.558 159.158L260.294 159.179L259.776 159.19C259.43 159.193 259.083 159.186 258.733 159.178C257.333 159.143 255.891 159.074 254.414 158.993L254.508 158.966C254.052 159.29 253.591 159.616 253.127 159.946L252.427 160.441C252.181 160.637 251.813 160.733 251.484 160.637C251.148 160.546 250.886 160.257 250.809 159.922C250.735 159.586 250.814 159.26 250.927 158.976C251.168 158.4 251.524 157.931 251.85 157.431C253.875 154.512 255.958 151.796 257.908 149.237L257.89 149.269C258.049 148.875 258.183 148.463 258.27 148.055C258.352 147.65 258.413 147.222 258.313 146.858C258.271 146.671 258.16 146.535 258.024 146.441C257.879 146.366 257.679 146.327 257.48 146.312C257.082 146.274 256.672 146.277 256.268 146.275C255.46 146.272 254.658 146.269 253.88 146.108C253.499 146.011 253.102 145.903 252.789 145.627C252.467 145.359 252.317 144.942 252.306 144.55L252.306 144.521L252.32 144.493C252.361 144.412 252.399 144.336 252.436 144.261L252.463 144.207L252.521 144.194C253.983 143.877 255.342 143.581 256.606 143.306L256.621 143.303L256.637 143.304C259.24 143.481 261.425 143.63 263.152 143.748L263.164 143.748L263.175 143.752C263.676 143.951 264.08 144.11 264.452 144.257L264.403 144.259C265.373 143.831 266.126 143.499 266.656 143.266C266.895 143.163 267.084 143.082 267.228 143.02C267.356 142.966 267.42 142.941 267.418 142.947C267.416 142.952 267.349 142.987 267.22 143.051C267.076 143.122 266.887 143.213 266.648 143.33C266.132 143.575 265.4 143.924 264.457 144.373L264.434 144.384L264.409 144.374C264.034 144.233 263.628 144.079 263.124 143.889L263.146 143.894C261.417 143.795 259.23 143.671 256.626 143.523L256.656 143.52C255.395 143.804 254.038 144.108 252.577 144.437L252.661 144.371C252.623 144.447 252.586 144.523 252.546 144.604L252.559 144.548C252.575 144.886 252.693 145.209 252.957 145.431C253.215 145.66 253.581 145.762 253.938 145.851C254.674 146 255.464 146.001 256.272 146.001C256.676 146.002 257.086 145.996 257.511 146.034C257.722 146.053 257.941 146.081 258.169 146.198C258.379 146.331 258.536 146.552 258.588 146.78C258.709 147.237 258.635 147.683 258.553 148.113C258.461 148.546 258.328 148.963 258.159 149.381L258.153 149.397L258.141 149.413C256.2 151.974 254.118 154.696 252.103 157.601C251.781 158.091 251.421 158.577 251.211 159.087C251.107 159.342 251.051 159.615 251.105 159.853C251.159 160.086 251.342 160.286 251.569 160.347C251.801 160.411 252.053 160.355 252.256 160.196L252.957 159.7C253.421 159.372 253.882 159.046 254.339 158.723L254.382 158.693L254.433 158.696C255.906 158.779 257.349 158.851 258.742 158.89C259.09 158.899 259.436 158.907 259.776 158.905L260.282 158.897L260.525 158.879C260.58 158.868 260.636 158.862 260.703 158.813C261.213 158.457 261.621 157.905 261.99 157.402L262.001 157.388L262.01 157.38C265.268 154.334 268.508 152.032 271.332 150.551L271.29 150.683C270.088 148.298 269.121 146.38 268.446 145.039C268.12 144.383 267.864 143.868 267.681 143.499C267.6 143.333 267.535 143.199 267.484 143.094C267.438 143.001 267.416 142.951 267.418 142.947Z" fill="#263238"/>
<path d="M259.942 153.773C259.994 153.835 258.768 154.977 257.25 156.382C256.489 157.083 255.795 157.712 255.285 158.158C254.775 158.606 254.448 158.87 254.423 158.845C254.355 158.777 255.521 157.564 257.045 156.159C258.566 154.752 259.887 153.707 259.942 153.773Z" fill="#263238"/>
<path d="M261.716 155.227C261.785 155.282 261.063 156.239 260.023 157.273C258.99 158.313 258.076 159.074 258.019 159.013C257.962 158.951 258.781 158.095 259.808 157.059C260.843 156.031 261.653 155.178 261.716 155.227Z" fill="#263238"/>
</svg>
