<svg width="50" height="50" viewBox="0 0 50 50" fill="none" xmlns="http://www.w3.org/2000/svg">
<path fill-rule="evenodd" clip-rule="evenodd" d="M1.84639 22.0557H12.0045C12.644 22.0557 13.1673 21.5324 13.1673 20.8929V10.7348C13.1673 10.0952 12.644 9.57187 12.0045 9.57187H1.84639C1.20684 9.57187 0.683594 10.0952 0.683594 10.7348V20.8929C0.683594 21.5324 1.20684 22.0557 1.84639 22.0557Z" fill="#FFDC6E"/>
<path fill-rule="evenodd" clip-rule="evenodd" d="M10.9523 22.0557H12.0045C12.6441 22.0557 13.1673 21.5324 13.1673 20.8929V10.7348C13.1673 10.0952 12.6441 9.57187 12.0045 9.57187H10.9523V22.0557Z" fill="#FFCA28"/>
<path fill-rule="evenodd" clip-rule="evenodd" d="M8.78013 14.2476V9.57187H5.07056V14.2476C5.07056 14.6157 5.32397 14.9159 5.63472 14.9159H8.21616C8.52681 14.916 8.78013 14.6157 8.78013 14.2476Z" fill="#F7524B"/>
<path fill-rule="evenodd" clip-rule="evenodd" d="M35.5166 22.5495H40.629L43.0617 33.7964H35.5166V22.5495Z" fill="#F7524B"/>
<path fill-rule="evenodd" clip-rule="evenodd" d="M35.5166 22.5495H40.629L41.613 27.0987L35.5166 24.797V22.5495Z" fill="#CB413D"/>
<path fill-rule="evenodd" clip-rule="evenodd" d="M7.37512 26.0114H23.5228C24.601 26.0114 25.483 25.1293 25.483 24.0512C25.483 22.973 24.601 22.0909 23.5228 22.0909H9.33547C8.25725 22.0909 7.37512 22.973 7.37512 24.0512V26.0114Z" fill="#404049"/>
<path fill-rule="evenodd" clip-rule="evenodd" d="M19.221 39.2118C19.221 43.3087 15.8998 46.6299 11.803 46.6299C7.70608 46.6299 4.38489 43.3088 4.38489 39.2118H19.221Z" fill="#404049"/>
<path fill-rule="evenodd" clip-rule="evenodd" d="M15.4981 39.2118C15.4981 41.2525 13.8438 42.9068 11.8031 42.9068C9.76233 42.9068 8.10803 41.2525 8.10803 39.2118H15.4981Z" fill="#F0F0FC"/>
<path fill-rule="evenodd" clip-rule="evenodd" d="M47.878 39.2118C47.878 43.3087 44.5568 46.6299 40.4599 46.6299C36.3631 46.6299 33.0419 43.3087 33.0419 39.2118H47.878Z" fill="#404049"/>
<path fill-rule="evenodd" clip-rule="evenodd" d="M44.1548 39.2118C44.1548 41.2525 42.5005 42.9068 40.4598 42.9068C38.4192 42.9068 36.7648 41.2525 36.7648 39.2118H44.1548Z" fill="#F0F0FC"/>
<path fill-rule="evenodd" clip-rule="evenodd" d="M2.94617 39.212H23.8184V25.1936H9.95544C6.10037 25.1936 2.94617 28.3477 2.94617 32.2027V39.212Z" fill="#F7524B"/>
<path fill-rule="evenodd" clip-rule="evenodd" d="M22.0419 34.05H34.396V39.212H22.0419V34.05Z" fill="#F7524B"/>
<path fill-rule="evenodd" clip-rule="evenodd" d="M41.8796 16.8611L36.4755 17.6814C35.92 17.7657 35.5166 18.235 35.5166 18.7968V23.2616L41.8796 24.2274C43.5632 24.483 44.9653 22.57 44.9653 20.5443C44.9653 18.6114 43.6116 16.5983 41.8796 16.8611Z" fill="#EF444E"/>
<path fill-rule="evenodd" clip-rule="evenodd" d="M41.9515 24.2371C43.603 24.4284 44.9654 22.5413 44.9654 20.5444C44.9654 18.6382 43.649 16.6544 41.9515 16.8517V24.2371Z" fill="#FFDC6E"/>
<path fill-rule="evenodd" clip-rule="evenodd" d="M11.8028 30.3554C16.6942 30.3554 20.6594 34.3206 20.6594 39.212H2.94617C2.94617 34.3206 6.9114 30.3554 11.8028 30.3554Z" fill="#E14844"/>
<path fill-rule="evenodd" clip-rule="evenodd" d="M14.771 18.0173L19.5591 20.2964L25.5405 17.3799L29.2399 20.3286L37.6992 22.8176L38.9045 20.7901C36.1581 19.8731 33.9519 18.9816 31.1946 17.8862L29.1185 15.2126C29.1185 15.2126 29.1867 12.7503 27.7842 11.4621C26.3816 10.174 26.3729 10.1415 26.3729 10.1415C18.8301 10.425 15.9519 13.9417 14.771 18.0173Z" fill="#FFDC6E"/>
<path fill-rule="evenodd" clip-rule="evenodd" d="M37.9348 23.1916C38.7799 23.1916 39.4691 22.5023 39.4691 21.6572C39.4691 20.8121 38.7799 20.1228 37.9348 20.1228C37.0896 20.1228 36.4004 20.8121 36.4004 21.6572C36.4004 22.5023 37.0896 23.1916 37.9348 23.1916Z" fill="#484A50"/>
<path fill-rule="evenodd" clip-rule="evenodd" d="M15.3449 23.0769L25.6204 26.6254L25.5254 35.6986H28.8584L29.1522 25.0028C29.18 23.9909 28.6003 23.1218 27.6774 22.7067L15.0979 17.0482L13.9909 19.5091C13.3822 20.8623 13.9419 22.5926 15.3449 23.0769Z" fill="#484A50"/>
<path fill-rule="evenodd" clip-rule="evenodd" d="M25.5183 35.2458L25.5046 36.402C25.4932 37.3761 26.3255 38.1652 27.2997 38.1494L28.6331 38.1276L30.2587 38.1172C30.9581 38.1127 31.5248 37.5386 31.5205 36.8393L31.5193 36.6687C31.5146 35.9307 30.9477 35.3213 30.2294 35.2458H28.8403H25.5183Z" fill="#FFDC6E"/>
<path fill-rule="evenodd" clip-rule="evenodd" d="M28.093 38.1363L28.6333 38.1274L30.2588 38.1169C30.9583 38.1124 31.525 37.5383 31.5206 36.839L31.5194 36.6685C31.5147 35.9304 30.9478 35.321 30.2295 35.2455H28.8404H28.0931V38.1363H28.093Z" fill="#FFCA28"/>
<path fill-rule="evenodd" clip-rule="evenodd" d="M40.4598 30.3554C45.3511 30.3554 49.3165 34.3206 49.3165 39.212H31.6033C31.6033 34.3206 35.5685 30.3554 40.4598 30.3554Z" fill="#E14844"/>
<path fill-rule="evenodd" clip-rule="evenodd" d="M11.803 30.3554C16.6944 30.3554 20.6596 34.3206 20.6596 39.212H16.7699C16.6458 35.1205 13.918 31.6841 10.1873 30.5029C10.7111 30.4062 11.251 30.3554 11.803 30.3554Z" fill="#CB413D"/>
<path fill-rule="evenodd" clip-rule="evenodd" d="M40.4597 30.3554C45.3511 30.3554 49.3164 34.3206 49.3164 39.212H45.4266C45.3025 35.1205 42.5748 31.6841 38.844 30.5029C39.3679 30.4062 39.9079 30.3554 40.4597 30.3554Z" fill="#CB413D"/>
<path fill-rule="evenodd" clip-rule="evenodd" d="M37.9348 20.1228C38.7822 20.1228 39.4691 20.8097 39.4691 21.6571C39.4691 22.5045 38.7822 23.1914 37.9348 23.1914C37.8303 23.1914 37.7283 23.1809 37.6296 23.161C38.3308 23.0195 38.8587 22.4 38.8587 21.6571C38.8587 20.9142 38.3308 20.2947 37.6296 20.1532C37.7282 20.1333 37.8303 20.1228 37.9348 20.1228Z" fill="#404049"/>
<path fill-rule="evenodd" clip-rule="evenodd" d="M19.8891 20.1356L26.7988 23.2438C27.7218 23.6589 28.2979 24.528 28.2736 25.54L28.0399 35.2459H28.8712L29.1525 25.0029C29.1752 24.07 28.6871 23.2585 27.8876 22.8122C27.874 22.8047 27.8604 22.7972 27.8466 22.7899H27.8465C27.8328 22.7825 27.8189 22.7752 27.8051 22.7681C27.7912 22.761 27.7771 22.7539 27.7631 22.747C27.749 22.7401 27.7349 22.7332 27.7206 22.7265C27.7063 22.7197 27.692 22.7132 27.6776 22.7067L15.0981 17.0482L14.7515 17.819L19.8891 20.1356Z" fill="#404049"/>
<path fill-rule="evenodd" clip-rule="evenodd" d="M19.5547 11.7603C21.0909 11.1224 22.9918 10.7185 25.3478 10.6299C25.7195 11.9382 26.7592 13.2608 27.8849 14.014C28.1148 14.9237 28.0933 15.701 28.0933 15.701L30.1694 18.3745C32.3135 19.2263 34.4524 20.0858 36.6296 20.8503C36.7946 20.584 37.039 20.3719 37.3296 20.247C35.2643 19.5125 33.2316 18.6953 31.1948 17.8862L29.1187 15.2126C29.1187 15.2126 29.1393 14.4686 28.9249 13.5845C28.7492 12.8603 28.4159 12.0422 27.7844 11.4621C26.3818 10.174 26.3731 10.1415 26.3731 10.1415C26.2976 10.1444 26.2225 10.1476 26.1479 10.151C23.3479 10.2819 21.2027 10.8657 19.5547 11.7603Z" fill="#FFCA28"/>
<path fill-rule="evenodd" clip-rule="evenodd" d="M31.7799 4.5304C34.1206 4.75803 35.8336 6.84006 35.6059 9.18069C35.3783 11.5214 33.2962 13.2344 30.9556 13.0068C28.6149 12.7791 26.9019 10.6971 27.1296 8.35637L31.3678 8.76858L31.7799 4.5304Z" fill="#F6DCCD"/>
<path fill-rule="evenodd" clip-rule="evenodd" d="M31.8904 3.39567C34.3669 3.63649 36.2889 5.51471 36.6896 7.85416C36.751 8.21236 36.6513 8.54664 36.4038 8.81285C36.1563 9.07906 35.8301 9.2027 35.4683 9.16754L32.4908 8.87799C31.8723 8.81783 31.3188 9.2732 31.2587 9.89166L30.9692 12.8686C30.934 13.2305 30.7496 13.527 30.4406 13.7186C30.1316 13.9102 29.7841 13.9436 29.4442 13.8143C27.2262 12.9701 25.754 10.7223 25.9947 8.24625C26.2834 5.27887 28.923 3.10709 31.8904 3.39567Z" fill="#E14844"/>
<path fill-rule="evenodd" clip-rule="evenodd" d="M31.8904 3.39569C34.3668 3.63651 36.2889 5.51473 36.6896 7.85419C36.7509 8.21239 36.6512 8.54667 36.4038 8.81288C36.1882 9.04471 35.9128 9.16844 35.6063 9.17323C35.6067 9.14833 35.6073 9.12343 35.6073 9.09842C35.6073 6.18593 33.2463 3.82499 30.3338 3.82499C29.7515 3.82499 29.1915 3.91962 28.6677 4.09384C29.6096 3.54882 30.7247 3.28231 31.8904 3.39569Z" fill="#CB413D"/>
</svg>
