<svg width="26" height="26" viewBox="0 0 26 26" fill="none" xmlns="http://www.w3.org/2000/svg">
<g clip-path="url(#clip0_0_7659)">
<path d="M13 0.0509644C7.99724 0.0509644 4.91553 2.87283 4.90701 2.87757C4.90701 2.87757 4.7789 3.0375 4.75494 3.14379C4.5603 4.00781 4.37845 5.16583 4.37845 6.01083C4.37845 13.1905 10.433 19.0094 17.6128 19.0094C20.3775 19.0094 23.4535 17.6843 25.5121 16.0911C25.5581 16.0555 25.7043 15.816 25.7043 15.816C25.7133 15.7606 25.9999 14.6192 25.9999 13.0509C26 5.87124 20.1797 0.0509644 13 0.0509644Z" fill="#FEF056"/>
<path d="M17.6116 18.6424C10.4319 18.6424 4.61164 12.8222 4.61164 5.64243C4.61164 4.69343 4.71395 3.76875 4.90707 2.87756C1.91732 5.25937 0 8.93133 0 13.051C0 16.1582 1.09016 19.0109 2.90884 21.2473L23.0912 21.2475C24.3509 19.6991 25.2635 17.8509 25.7043 15.8161C23.4836 17.5848 20.6713 18.6424 17.6116 18.6424Z" fill="#FBDE4C"/>
<path d="M21.8328 0H9.84791L8.7995 20.8307L9.84791 25.6662C10.4944 25.8272 11.1601 25.9398 11.8408 26H14.1564C16.0614 25.8314 17.8551 25.2503 19.4426 24.343L19.6092 24.0204L20.1101 23.9345C21.236 23.198 22.2424 22.2908 23.0911 21.2475V1.2583C23.0911 0.563333 22.5278 0 21.8328 0Z" fill="#26A4C0"/>
<path d="M4.16712 0C3.47221 0 2.90887 0.563333 2.90887 1.2583V21.2473C3.59186 22.0872 4.37762 22.8401 5.24694 23.487L9.84792 21.6048V20.143L9.20358 16.2134L9.84792 15.542V14.0802L9.3944 10.1407L9.84792 9.47924V0L4.16712 0Z" fill="#2490A9"/>
<path d="M12.6458 7.14778C11.7934 7.11939 11.0974 6.67897 11.0974 6.22438C11.0974 5.98288 11.3104 5.6277 11.5804 5.6277C11.8787 5.6277 12.1202 6.04681 12.6458 6.13914V4.98846C11.9924 4.73983 11.2252 4.4344 11.2252 3.52522C11.2252 2.62312 11.8929 2.18984 12.6458 2.08329V1.88442C12.6458 1.78495 12.7595 1.69263 12.9157 1.69263C13.0507 1.69263 13.1857 1.78495 13.1857 1.88442V2.06198C13.626 2.0762 14.4571 2.18984 14.4571 2.67996C14.4571 2.87175 14.3292 3.26242 14.0166 3.26242C13.7822 3.26242 13.6473 3.03514 13.1856 2.99961V4.03665C13.832 4.27815 14.5849 4.61202 14.5849 5.57091C14.5849 6.45165 14.0166 6.98439 13.1856 7.11939V7.3254C13.1856 7.42481 13.0507 7.51719 12.9157 7.51719C12.7594 7.51719 12.6458 7.42481 12.6458 7.3254L12.6458 7.14778ZM12.7168 3.86618V3.02092C12.3971 3.08485 12.2622 3.24819 12.2622 3.41872C12.2622 3.62468 12.4469 3.75254 12.7168 3.86618ZM13.1146 5.18025V6.13205C13.3561 6.07521 13.5479 5.94026 13.5479 5.68454C13.5479 5.45014 13.3703 5.30097 13.1146 5.18025Z" fill="#FBDE4C"/>
<path d="M15.8583 3.92206H18.6805V5.04363H15.8583V3.92206Z" fill="#FBDE4C"/>
<path d="M7.02203 3.92206H9.84421V5.04363H7.02203V3.92206Z" fill="#FFC344"/>
<path d="M5.24695 9.47925H9.84793V14.0802H5.24695V9.47925Z" fill="white"/>
<path d="M11.6464 11.3464H19.9835V12.213H11.6464V11.3464Z" fill="white"/>
<path d="M5.24695 15.5421H9.84793V20.143H5.24695V15.5421Z" fill="white"/>
<path d="M11.7097 17.4092H20.0468V18.2758H11.7097V17.4092Z" fill="white"/>
<path d="M5.24695 23.487C6.60175 24.4951 8.15956 25.2457 9.84793 25.6662V21.6049H5.24695V23.487Z" fill="white"/>
<path d="M20.1101 23.9345V23.472H11.7731V24.3387H19.4503C19.6745 24.2104 19.8945 24.0755 20.1101 23.9345Z" fill="white"/>
<path d="M8.55943 13.682L6.22641 11.3491L7.30786 10.2676L8.55943 11.5192L10.7869 9.29175L11.8683 10.3732L8.55943 13.682Z" fill="#46DC00"/>
<path d="M8.55943 19.9106L6.22641 17.5776L7.30786 16.4961L8.55943 17.7477L10.7869 15.5203L11.8683 16.6017L8.55943 19.9106Z" fill="#46DC00"/>
</g>
<defs>
<clipPath id="clip0_0_7659">
<rect width="26" height="26" fill="white"/>
</clipPath>
</defs>
</svg>
