<svg width="26" height="26" viewBox="0 0 26 26" fill="none" xmlns="http://www.w3.org/2000/svg">
<g clip-path="url(#clip0_0_7413)">
<path d="M13 1.11719C6.12879 1.11719 0.558594 6.68738 0.558594 13.5586C0.558594 15.3199 0.925184 16.9953 1.58539 18.5136H1.63617V13.1016C1.63617 12.9895 1.72727 12.8984 1.8393 12.8984H9.55805C9.67007 12.8984 9.76117 12.9895 9.76117 13.1016V21.0125H22.8003L22.9994 20.9617C24.5336 18.893 25.4414 16.3319 25.4414 13.5586C25.4414 6.68738 19.8712 1.11719 13 1.11719Z" fill="#D8ECFE"/>
<path d="M15.6406 17.1072V18.6529H17.924C18.1074 17.9509 18.6154 17.3791 19.2771 17.1072H15.6406Z" fill="#096B82"/>
<path d="M24.8108 17.1072H21.0177C21.6795 17.3791 22.1874 17.9509 22.3708 18.6529H24.4257C24.7062 18.6529 24.9335 18.4255 24.9335 18.145V17.158L24.8108 17.1072Z" fill="#096B82"/>
<path d="M23.9686 14.7011H24.8949L24.9335 14.6504V13.8733C24.9335 13.7488 24.9148 13.6258 24.8792 13.5078L24.8079 13.457H18.183C18.0709 13.457 17.9798 13.3659 17.9798 13.2539V10.3593C17.9798 10.2473 18.0709 10.1562 18.183 10.1562H22.7692L22.7972 10.1054L22.3913 9.45894C22.2984 9.31096 22.136 9.22113 21.9612 9.22113H16.5814V17.1579H19.1619C19.4607 17.0155 19.7948 16.9355 20.1473 16.9355C20.4999 16.9355 20.8339 17.0154 21.1328 17.1579H24.9335V16.4277L24.9062 16.3769H23.9686C23.8566 16.3769 23.7655 16.2858 23.7655 16.1738V14.9043C23.7655 14.7922 23.8566 14.7011 23.9686 14.7011Z" fill="#2490A9"/>
<path d="M19.1987 10.1782L19.1479 10.1055H18.183C18.0428 10.1055 17.9291 10.2192 17.9291 10.3594V13.2539C17.9291 13.3941 18.0428 13.5078 18.183 13.5078H19.1479L19.1987 13.4181V10.1782Z" fill="#096B82"/>
<path d="M13.855 4.72266H2.84738C2.56692 4.72266 2.33957 4.95 2.33957 5.23047V12.8984H9.55802C9.67005 12.8984 9.76115 12.9895 9.76115 13.1016V15.2455H15.4375C15.5495 15.2455 15.6406 15.3366 15.6406 15.4487V17.158H16.6323V7.59606C15.2495 7.23684 14.1686 6.12305 13.855 4.72266Z" fill="#FED402"/>
<path d="M4.46873 12.8477V5.23047C4.46873 4.95 4.69607 4.72266 4.97654 4.72266H2.84738C2.56692 4.72266 2.33957 4.95 2.33957 5.23047V12.8477H4.46873Z" fill="#FAC600"/>
<path d="M13.4568 11.0642H5.51471C5.23424 11.0642 5.0069 10.8369 5.0069 10.5564V8.17578C5.0069 7.89532 5.23424 7.66797 5.51471 7.66797H13.4568C13.7373 7.66797 13.9647 7.89532 13.9647 8.17578V10.5564C13.9647 10.8369 13.7373 11.0642 13.4568 11.0642Z" fill="white"/>
<path d="M6.60138 10.5564V8.17578C6.60138 7.89532 6.82873 7.66797 7.10919 7.66797H5.51471C5.23424 7.66797 5.0069 7.89532 5.0069 8.17578V10.5564C5.0069 10.8369 5.23424 11.0642 5.51471 11.0642H7.10919C6.82873 11.0642 6.60138 10.8369 6.60138 10.5564Z" fill="#F3F0FF"/>
<path d="M18.6151 21.0125H21.6798C22.1793 20.5818 22.4961 19.9448 22.4961 19.2334C22.4961 17.9363 21.4445 16.8848 20.1474 16.8848C18.8503 16.8848 17.7988 17.9363 17.7988 19.2334C17.7988 19.9448 18.1155 20.5818 18.6151 21.0125Z" fill="#9182B0"/>
<path d="M18.5575 20.9617H19.3957C18.9291 20.5327 18.6367 19.9174 18.6367 19.2334C18.6367 18.0794 19.4692 17.1205 20.5664 16.9228C20.4303 16.8983 20.2905 16.8848 20.1474 16.8848C18.8503 16.8848 17.7988 17.9363 17.7988 19.2334C17.7988 19.9172 18.0912 20.5325 18.5575 20.9617Z" fill="#7A6D98"/>
<path d="M20.1474 20.4902C20.8416 20.4902 21.4043 19.9275 21.4043 19.2334C21.4043 18.5393 20.8416 17.9766 20.1474 17.9766C19.4533 17.9766 18.8906 18.5393 18.8906 19.2334C18.8906 19.9275 19.4533 20.4902 20.1474 20.4902Z" fill="#CFCAE4"/>
<path d="M20.1474 19.9062C20.519 19.9062 20.8203 19.605 20.8203 19.2334C20.8203 18.8618 20.519 18.5605 20.1474 18.5605C19.7758 18.5605 19.4746 18.8618 19.4746 19.2334C19.4746 19.605 19.7758 19.9062 20.1474 19.9062Z" fill="white"/>
<path d="M20.0078 19.2334C20.0078 18.9571 20.1753 18.7193 20.414 18.6159C20.3322 18.5805 20.2421 18.5605 20.1474 18.5605C19.7764 18.5605 19.4746 18.8624 19.4746 19.2334C19.4746 19.6044 19.7764 19.9062 20.1474 19.9062C20.2421 19.9062 20.3322 19.8863 20.414 19.8509C20.1753 19.7474 20.0078 19.5097 20.0078 19.2334Z" fill="#F3F0FF"/>
<path d="M17.5957 7.76953C19.7412 7.76953 21.4805 6.03026 21.4805 3.88477C21.4805 1.73927 19.7412 0 17.5957 0C15.4502 0 13.7109 1.73927 13.7109 3.88477C13.7109 6.03026 15.4502 7.76953 17.5957 7.76953Z" fill="#9182B0"/>
<path d="M15.7755 5.86214C15.2421 5.37093 14.9077 4.667 14.9077 3.88477C14.9077 3.10253 15.2421 2.3986 15.7755 1.90739C16.3282 0.975152 17.2592 0.293516 18.3574 0.0751562C18.1111 0.0261523 17.8565 0 17.5957 0C15.4502 0 13.7109 1.73926 13.7109 3.88477C13.7109 6.03027 15.4502 7.76953 17.5957 7.76953C17.8565 7.76953 18.1111 7.74338 18.3574 7.69438C17.2592 7.47602 16.3282 6.79438 15.7755 5.86214Z" fill="#7A6D98"/>
<path d="M17.5956 6.57268C19.0802 6.57268 20.2836 5.36925 20.2836 3.88473C20.2836 2.40021 19.0802 1.19678 17.5956 1.19678C16.1111 1.19678 14.9077 2.40021 14.9077 3.88473C14.9077 5.36925 16.1111 6.57268 17.5956 6.57268Z" fill="white"/>
<path d="M15.9522 3.88473C15.9522 2.57894 16.8834 1.49105 18.1179 1.24791C17.9489 1.21465 17.7744 1.19678 17.5956 1.19678C16.1111 1.19678 14.9077 2.40019 14.9077 3.88473C14.9077 5.36927 16.1111 6.57268 17.5956 6.57268C17.7744 6.57268 17.9489 6.55481 18.1179 6.52155C16.8834 6.27841 15.9522 5.19052 15.9522 3.88473Z" fill="#F3F0FF"/>
<path d="M18.9924 4.28102H17.5802C17.4761 4.28102 17.3766 4.23847 17.3048 4.16326L15.9825 2.77927C15.8373 2.62718 15.8427 2.38607 15.9948 2.24079C16.1468 2.0955 16.3879 2.10098 16.5333 2.25307L17.743 3.51931H18.9924C19.2028 3.51931 19.3733 3.68983 19.3733 3.90016C19.3733 4.1105 19.2027 4.28102 18.9924 4.28102Z" fill="#A79BC6"/>
<path d="M17.5957 4.53949C17.9573 4.53949 18.2504 4.24636 18.2504 3.88476C18.2504 3.52317 17.9573 3.23004 17.5957 3.23004C17.2341 3.23004 16.941 3.52317 16.941 3.88476C16.941 4.24636 17.2341 4.53949 17.5957 4.53949Z" fill="#9182B0"/>
<path d="M15.4374 15.1947H9.76111V21.0124H15.6913V15.4486C15.6913 15.3084 15.5776 15.1947 15.4374 15.1947Z" fill="#D88A55"/>
<path d="M9.81177 15.1946H10.929V20.9615H9.81177V15.1946Z" fill="#C57A44"/>
<path d="M13.31 17.1907H12.1928C12.0526 17.1907 11.9389 17.077 11.9389 16.9368V15.1946H13.5639V16.9368C13.5639 17.077 13.4502 17.1907 13.31 17.1907Z" fill="#2F9BB4"/>
<path d="M12.5935 16.9368V15.1946H11.9389V16.9368C11.9389 17.077 12.0526 17.1907 12.1928 17.1907H12.8474C12.7072 17.1907 12.5935 17.077 12.5935 16.9368Z" fill="#1A869F"/>
<path d="M19.6339 14.8281H18.0815C17.9974 14.8281 17.9292 14.7599 17.9292 14.6758V14.168C17.9292 14.0838 17.9974 14.0156 18.0815 14.0156H19.6339C19.7181 14.0156 19.7863 14.0838 19.7863 14.168V14.6758C19.7863 14.7599 19.7181 14.8281 19.6339 14.8281Z" fill="#096B82"/>
<path d="M24.7392 13.1982L22.7974 10.1055H19.1479V13.5078H24.8793C24.8467 13.3994 24.8 13.2951 24.7392 13.1982Z" fill="white"/>
<path d="M19.1479 10.1055H20.2686V13.5078H19.1479V10.1055Z" fill="#F3F0FF"/>
<path d="M9.81189 13.1016C9.81189 12.9614 9.69819 12.8477 9.55798 12.8477H1.83923C1.69903 12.8477 1.58533 12.9614 1.58533 13.1016V18.5136C1.96466 19.386 2.44064 20.2068 3.00045 20.9617L3.19956 21.0125H9.81189V13.1016Z" fill="#F6A96C"/>
<path d="M3.14837 13.1016C3.14837 12.9614 3.26207 12.8477 3.40228 12.8477H1.83923C1.69903 12.8477 1.58533 12.9614 1.58533 13.1016V18.5136C1.96466 19.386 2.44064 20.2068 3.00045 20.9617L3.14837 20.9994V13.1016Z" fill="#EA9B58"/>
<path d="M6.46021 15.6406H4.93677C4.79656 15.6406 4.68286 15.5269 4.68286 15.3867V12.8477H6.71411V15.3867C6.71411 15.5269 6.60041 15.6406 6.46021 15.6406Z" fill="#2F9BB4"/>
<path d="M5.43341 15.3867V12.8477H4.68286V15.3867C4.68286 15.5269 4.79656 15.6406 4.93677 15.6406H5.68731C5.54711 15.6406 5.43341 15.5269 5.43341 15.3867Z" fill="#1A869F"/>
<path d="M5.06016 22.8516L4.78635 22.9023C6.97766 24.8302 9.85203 26 13 26C16.148 26 19.0224 24.8302 21.2137 22.9023L20.9399 22.8516H5.06016Z" fill="#B5ADD5"/>
<path d="M3.0004 20.9618C3.52583 21.6703 4.12485 22.3208 4.78602 22.9024H21.2138C21.8749 22.3208 22.4739 21.6703 22.9994 20.9618H3.0004Z" fill="#CFCAE4"/>
<path d="M24.9336 14.6504H23.9688C23.8285 14.6504 23.7148 14.7641 23.7148 14.9043V16.1738C23.7148 16.314 23.8285 16.4277 23.9688 16.4277H24.9336V14.6504Z" fill="white"/>
</g>
<defs>
<clipPath id="clip0_0_7413">
<rect width="26" height="26" fill="white"/>
</clipPath>
</defs>
</svg>
